<svg width="24" height="24" viewBox="0 0 24 24" fill="none" xmlns="http://www.w3.org/2000/svg">
<g clip-path="url(#clip0_85_536)">
<path d="M12.0006 0C8.7417 0 8.33271 0.01425 7.05274 0.0724988C5.77526 0.130998 4.90328 0.333244 4.1403 0.629988C3.35106 0.936482 2.68158 1.34647 2.01459 2.01371C1.3471 2.6807 0.937109 3.35018 0.629615 4.13917C0.332121 4.9024 0.129625 5.77464 0.0721264 7.05161C0.0148775 8.33159 -0.00012207 8.74083 -0.00012207 11.9998C-0.00012207 15.2587 0.0143779 15.6664 0.0723767 16.9464C0.131126 18.2239 0.333371 19.0959 0.629866 19.8589C0.93661 20.6481 1.3466 21.3176 2.01384 21.9846C2.68057 22.6521 3.35006 23.0631 4.1388 23.3695C4.90228 23.6663 5.77451 23.8685 7.05174 23.927C8.33171 23.9853 8.74046 23.9995 11.9991 23.9995C15.2583 23.9995 15.6661 23.9853 16.946 23.927C18.2235 23.8685 19.0965 23.6663 19.86 23.3695C20.649 23.0631 21.3175 22.6521 21.9842 21.9846C22.6517 21.3176 23.0617 20.6481 23.3692 19.8591C23.6642 19.0959 23.8667 18.2236 23.9267 16.9467C23.9842 15.6667 23.9992 15.2587 23.9992 11.9998C23.9992 8.74083 23.9842 8.33184 23.9267 7.05186C23.8667 5.77439 23.6642 4.9024 23.3692 4.13942C23.0617 3.35018 22.6517 2.6807 21.9842 2.01371C21.3167 1.34622 20.6492 0.936232 19.8592 0.629988C19.0943 0.333244 18.2218 0.130998 16.9443 0.0724988C15.6643 0.01425 15.2568 0 11.9969 0H12.0006ZM10.9242 2.16246C11.2437 2.16196 11.6001 2.16246 12.0006 2.16246C15.2046 2.16246 15.5843 2.17396 16.8495 2.23146C18.0195 2.28496 18.6545 2.48045 19.0775 2.6447C19.6375 2.86219 20.0367 3.12219 20.4565 3.54218C20.8765 3.96217 21.1365 4.36217 21.3545 4.92215C21.5187 5.34465 21.7144 5.97963 21.7677 7.14961C21.8252 8.41459 21.8377 8.79458 21.8377 11.997C21.8377 15.1995 21.8252 15.5794 21.7677 16.8444C21.7142 18.0144 21.5187 18.6494 21.3545 19.0719C21.137 19.6319 20.8765 20.0306 20.4565 20.4504C20.0365 20.8703 19.6377 21.1303 19.0775 21.3478C18.655 21.5128 18.0195 21.7078 16.8495 21.7613C15.5846 21.8188 15.2046 21.8313 12.0006 21.8313C8.79645 21.8313 8.41671 21.8188 7.15174 21.7613C5.98176 21.7073 5.34677 21.5118 4.92353 21.3476C4.36354 21.1301 3.96355 20.8701 3.54356 20.4501C3.12357 20.0301 2.86357 19.6311 2.64558 19.0709C2.48133 18.6484 2.28558 18.0134 2.23233 16.8434C2.17484 15.5784 2.16334 15.1985 2.16334 11.994C2.16334 8.78958 2.17484 8.41159 2.23233 7.14661C2.28583 5.97663 2.48133 5.34165 2.64558 4.91865C2.86307 4.35867 3.12357 3.95867 3.54356 3.53868C3.96355 3.11869 4.36354 2.85869 4.92353 2.6407C5.34652 2.4757 5.98176 2.28071 7.15174 2.22696C8.25872 2.17696 8.68771 2.16196 10.9242 2.15946V2.16246ZM18.406 4.15492C17.611 4.15492 16.966 4.79916 16.966 5.59439C16.966 6.38938 17.611 7.03436 18.406 7.03436C19.201 7.03436 19.846 6.38938 19.846 5.59439C19.846 4.79941 19.201 4.15442 18.406 4.15442V4.15492ZM12.0006 5.83739C8.59746 5.83739 5.83826 8.59658 5.83826 11.9998C5.83826 15.403 8.59746 18.1609 12.0006 18.1609C15.4038 18.1609 18.162 15.403 18.162 11.9998C18.162 8.59658 15.4038 5.83739 12.0006 5.83739ZM12.0006 7.99985C14.2096 7.99985 16.0006 9.79056 16.0006 11.9998C16.0006 14.2087 14.2096 15.9997 12.0006 15.9997C9.79143 15.9997 8.00072 14.2087 8.00072 11.9998C8.00072 9.79056 9.79143 7.99985 12.0006 7.99985Z" fill="#3957ED"/>
</g>
<defs>
<clipPath id="clip0_85_536">
<rect width="24" height="23.9993" fill="white"/>
</clipPath>
</defs>
</svg>
