<svg width="24" height="24" viewBox="0 0 24 24" fill="none" xmlns="http://www.w3.org/2000/svg">
<path d="M23.4735 5.25928C24 7.22803 24 11.4468 24 11.4468C24 11.4468 24 15.6187 23.4735 17.6343C23.2102 18.7593 22.3766 19.603 21.3675 19.8843C19.4808 20.3999 12.0219 20.3999 12.0219 20.3999C12.0219 20.3999 4.5192 20.3999 2.63254 19.8843C1.6234 19.603 0.789762 18.7593 0.526508 17.6343C0 15.6187 0 11.4468 0 11.4468C0 11.4468 0 7.22803 0.526508 5.25928C0.789762 4.13428 1.6234 3.24365 2.63254 2.9624C4.5192 2.3999 12.0219 2.3999 12.0219 2.3999C12.0219 2.3999 19.4808 2.3999 21.3675 2.9624C22.3766 3.24365 23.2102 4.13428 23.4735 5.25928ZM9.5649 15.2437L15.7952 11.4468L9.5649 7.6499V15.2437Z" fill="#3957ED"/>
</svg>
