<svg width="24" height="24" viewBox="0 0 24 24" fill="none" xmlns="http://www.w3.org/2000/svg">
<path d="M22.2857 0C23.1964 0 24 0.803571 24 1.76786V22.2857C24 23.25 23.1964 24 22.2857 24H1.66071C0.75 24 0 23.25 0 22.2857V1.76786C0 0.803571 0.75 0 1.66071 0H22.2857ZM7.23214 20.5714V9.16071H3.69643V20.5714H7.23214ZM5.46429 7.55357C6.58929 7.55357 7.5 6.64286 7.5 5.51786C7.5 4.39286 6.58929 3.42857 5.46429 3.42857C4.28571 3.42857 3.375 4.39286 3.375 5.51786C3.375 6.64286 4.28571 7.55357 5.46429 7.55357ZM20.5714 20.5714V14.3036C20.5714 11.25 19.875 8.83929 16.2857 8.83929C14.5714 8.83929 13.3929 9.80357 12.9107 10.7143H12.8571V9.16071H9.48214V20.5714H13.0179V14.9464C13.0179 13.4464 13.2857 12 15.1607 12C16.9821 12 16.9821 13.7143 16.9821 15V20.5714H20.5714Z" fill="#3957ED"/>
</svg>
