<svg width="96" height="29" viewBox="0 0 96 29" fill="none" xmlns="http://www.w3.org/2000/svg">
<g clip-path="url(#clip0_85_222)">
<path opacity="0.5" d="M14 28.1836C21.732 28.1836 28 21.9156 28 14.1836C28 6.45161 21.732 0.183594 14 0.183594C6.26801 0.183594 0 6.45161 0 14.1836C0 21.9156 6.26801 28.1836 14 28.1836Z" fill="#126FFF"/>
<path d="M82 0.183594H47C39.268 0.183594 33 6.45161 33 14.1836C33 21.9156 39.268 28.1836 47 28.1836H82C89.732 28.1836 96 21.9156 96 14.1836C96 6.45161 89.732 0.183594 82 0.183594Z" fill="#3957ED"/>
</g>
<defs>
<clipPath id="clip0_85_222">
<rect width="96" height="28" fill="white" transform="translate(0 0.183594)"/>
</clipPath>
</defs>
</svg>
