<svg width="686" height="473" viewBox="0 0 686 473" fill="none" xmlns="http://www.w3.org/2000/svg">
<g filter="url(#filter0_d_201_206)">
<g clip-path="url(#clip0_201_206)">
<rect x="35" y="35" width="596" height="383" rx="12" fill="white"/>
<path d="M35 55C35 43.9543 43.9543 35 55 35H611C622.046 35 631 43.9543 631 55V398C631 409.046 622.046 418 611 418H55C43.9543 418 35 409.046 35 398V55Z" fill="white"/>
<path d="M63.1 80H60.62V65.38H63.1L67.82 77.02L72.54 65.38H75.06V80H72.58V75.5C72.58 72.56 72.58 71.7 72.72 70.66L69 80H66.64L62.94 70.68C63.08 71.56 63.1 72.94 63.1 74.76V80ZM77.3558 75.04C77.3558 71.96 79.5758 69.84 82.6358 69.84C85.6958 69.84 87.9158 71.96 87.9158 75.04C87.9158 78.12 85.6958 80.24 82.6358 80.24C79.5758 80.24 77.3558 78.12 77.3558 75.04ZM79.7958 75.04C79.7958 76.84 80.9558 78.06 82.6358 78.06C84.3158 78.06 85.4758 76.84 85.4758 75.04C85.4758 73.24 84.3158 72.02 82.6358 72.02C80.9558 72.02 79.7958 73.24 79.7958 75.04ZM92.2898 80H89.8498V70.12H92.1098L92.3098 71.4C92.9298 70.4 94.1298 69.82 95.4698 69.82C97.9498 69.82 99.2298 71.36 99.2298 73.92V80H96.7898V74.5C96.7898 72.84 95.9698 72.04 94.7098 72.04C93.2098 72.04 92.2898 73.08 92.2898 74.68V80ZM102.847 68.14C102.007 68.14 101.347 67.48 101.347 66.66C101.347 65.84 102.007 65.2 102.847 65.2C103.647 65.2 104.307 65.84 104.307 66.66C104.307 67.48 103.647 68.14 102.847 68.14ZM101.627 80V70.12H104.067V80H101.627ZM109.948 80H107.508V72.16H105.608V70.12H107.508V67.04H109.948V70.12H111.868V72.16H109.948V80ZM112.707 75.04C112.707 71.96 114.927 69.84 117.987 69.84C121.047 69.84 123.267 71.96 123.267 75.04C123.267 78.12 121.047 80.24 117.987 80.24C114.927 80.24 112.707 78.12 112.707 75.04ZM115.147 75.04C115.147 76.84 116.307 78.06 117.987 78.06C119.667 78.06 120.827 76.84 120.827 75.04C120.827 73.24 119.667 72.02 117.987 72.02C116.307 72.02 115.147 73.24 115.147 75.04ZM131.401 70.08V72.34H130.501C128.741 72.34 127.641 73.28 127.641 75.2V80H125.201V70.14H127.501L127.641 71.58C128.061 70.6 129.001 69.94 130.321 69.94C130.661 69.94 131.001 69.98 131.401 70.08ZM137.141 80.26C134.201 80.26 132.141 78.12 132.141 75.06C132.141 71.96 134.161 69.82 137.061 69.82C140.021 69.82 141.901 71.8 141.901 74.88V75.62L134.461 75.64C134.641 77.38 135.561 78.26 137.181 78.26C138.521 78.26 139.401 77.74 139.681 76.8H141.941C141.521 78.96 139.721 80.26 137.141 80.26ZM137.081 71.82C135.641 71.82 134.761 72.6 134.521 74.08H139.481C139.481 72.72 138.541 71.82 137.081 71.82ZM143.274 75.04C143.274 71.96 145.494 69.84 148.554 69.84C151.614 69.84 153.834 71.96 153.834 75.04C153.834 78.12 151.614 80.24 148.554 80.24C145.494 80.24 143.274 78.12 143.274 75.04ZM145.714 75.04C145.714 76.84 146.874 78.06 148.554 78.06C150.234 78.06 151.394 76.84 151.394 75.04C151.394 73.24 150.234 72.02 148.554 72.02C146.874 72.02 145.714 73.24 145.714 75.04ZM165.218 80.26C162.358 80.26 160.578 78.16 160.578 75.1C160.578 72.02 162.378 69.82 165.358 69.82C166.738 69.82 167.958 70.4 168.578 71.38V65.12H170.998V80H168.758L168.598 78.46C167.998 79.6 166.718 80.26 165.218 80.26ZM165.758 78.02C167.458 78.02 168.558 76.8 168.558 75.02C168.558 73.24 167.458 72 165.758 72C164.058 72 163.018 73.26 163.018 75.02C163.018 76.78 164.058 78.02 165.758 78.02ZM177.961 80.26C175.021 80.26 172.961 78.12 172.961 75.06C172.961 71.96 174.981 69.82 177.881 69.82C180.841 69.82 182.721 71.8 182.721 74.88V75.62L175.281 75.64C175.461 77.38 176.381 78.26 178.001 78.26C179.341 78.26 180.221 77.74 180.501 76.8H182.761C182.341 78.96 180.541 80.26 177.961 80.26ZM177.901 71.82C176.461 71.82 175.581 72.6 175.341 74.08H180.301C180.301 72.72 179.361 71.82 177.901 71.82ZM192.865 80L188.945 70.12H191.545L193.265 74.66C193.685 75.84 194.025 76.86 194.145 77.4C194.285 76.78 194.645 75.74 195.065 74.66L196.865 70.12H199.385L195.265 80H192.865ZM204.719 80.26C201.779 80.26 199.719 78.12 199.719 75.06C199.719 71.96 201.739 69.82 204.639 69.82C207.599 69.82 209.479 71.8 209.479 74.88V75.62L202.039 75.64C202.219 77.38 203.139 78.26 204.759 78.26C206.099 78.26 206.979 77.74 207.259 76.8H209.519C209.099 78.96 207.299 80.26 204.719 80.26ZM204.659 71.82C203.219 71.82 202.339 72.6 202.099 74.08H207.059C207.059 72.72 206.119 71.82 204.659 71.82ZM213.872 80H211.432V70.12H213.692L213.892 71.4C214.512 70.4 215.712 69.82 217.052 69.82C219.532 69.82 220.812 71.36 220.812 73.92V80H218.372V74.5C218.372 72.84 217.552 72.04 216.292 72.04C214.792 72.04 213.872 73.08 213.872 74.68V80ZM226.569 80H224.129V72.16H222.229V70.12H224.129V67.04H226.569V70.12H228.489V72.16H226.569V80ZM232.888 80.26C230.788 80.26 229.508 79.04 229.508 77.18C229.508 75.36 230.828 74.22 233.168 74.04L236.128 73.82V73.6C236.128 72.26 235.328 71.72 234.088 71.72C232.648 71.72 231.848 72.32 231.848 73.36H229.768C229.768 71.22 231.528 69.82 234.208 69.82C236.868 69.82 238.508 71.26 238.508 74V80H236.368L236.188 78.54C235.768 79.56 234.428 80.26 232.888 80.26ZM233.688 78.42C235.188 78.42 236.148 77.52 236.148 76V75.48L234.088 75.64C232.568 75.78 231.988 76.28 231.988 77.08C231.988 77.98 232.588 78.42 233.688 78.42ZM240.145 77H242.465C242.485 77.86 243.125 78.4 244.245 78.4C245.385 78.4 246.005 77.94 246.005 77.22C246.005 76.72 245.745 76.36 244.865 76.16L243.085 75.74C241.305 75.34 240.445 74.5 240.445 72.92C240.445 70.98 242.085 69.82 244.365 69.82C246.585 69.82 248.085 71.1 248.105 73.02H245.785C245.765 72.18 245.205 71.64 244.265 71.64C243.305 71.64 242.745 72.08 242.745 72.82C242.745 73.38 243.185 73.74 244.025 73.94L245.805 74.36C247.465 74.74 248.305 75.5 248.305 77.02C248.305 79.02 246.605 80.26 244.165 80.26C241.705 80.26 240.145 78.94 240.145 77Z" fill="black"/>
<path d="M552.12 61.155H559.695V62.505L555.585 72H554.055L558.21 62.505H552.12V61.155ZM567.855 72.18C565.725 72.18 564.435 70.59 564.435 68.355C564.435 66.105 565.74 64.455 567.915 64.455C569.04 64.455 569.985 64.95 570.48 65.85V60.96H571.875V72H570.615L570.495 70.665C570.015 71.67 569.025 72.18 567.855 72.18ZM568.14 70.905C569.58 70.905 570.465 69.84 570.465 68.31C570.465 66.81 569.58 65.73 568.14 65.73C566.7 65.73 565.86 66.81 565.86 68.31C565.86 69.825 566.7 70.905 568.14 70.905ZM576.474 61.815L575.184 63.81H574.104L575.109 61.815H576.474ZM573.909 72V64.665H575.319V72H573.909ZM579.511 72.18C577.936 72.18 577.006 71.295 577.006 69.96C577.006 68.61 578.011 67.77 579.736 67.635L582.046 67.455V67.245C582.046 66.015 581.311 65.58 580.321 65.58C579.136 65.58 578.461 66.105 578.461 66.99H577.231C577.231 65.46 578.491 64.455 580.381 64.455C582.196 64.455 583.426 65.415 583.426 67.395V72H582.226L582.076 70.815C581.701 71.655 580.696 72.18 579.511 72.18ZM579.916 71.085C581.251 71.085 582.061 70.215 582.061 68.835V68.445L580.186 68.595C578.941 68.715 578.431 69.195 578.431 69.915C578.431 70.695 579.001 71.085 579.916 71.085ZM584.778 69.87H586.128C586.128 70.62 586.698 71.07 587.628 71.07C588.618 71.07 589.188 70.665 589.188 69.99C589.188 69.495 588.948 69.195 588.183 69L586.893 68.7C585.588 68.385 584.973 67.74 584.973 66.66C584.973 65.31 586.113 64.455 587.733 64.455C589.338 64.455 590.388 65.355 590.418 66.75H589.068C589.038 66.015 588.543 65.55 587.688 65.55C586.803 65.55 586.308 65.94 586.308 66.615C586.308 67.11 586.668 67.44 587.388 67.62L588.678 67.935C589.923 68.235 590.538 68.805 590.538 69.9C590.538 71.295 589.338 72.18 587.598 72.18C585.873 72.18 584.778 71.265 584.778 69.87Z" fill="black"/>
<path d="M602 66L606 70L610 66" stroke="#3A58EC" stroke-width="1.2" stroke-linecap="round" stroke-linejoin="round"/>
<path fill-rule="evenodd" clip-rule="evenodd" d="M608.81 163.205C608.687 163.51 608.505 163.961 608.263 164.545L606.415 163.783C606.653 163.204 606.834 162.759 606.955 162.459C607.015 162.309 607.06 162.195 607.09 162.12L607.132 162.014L607.134 162.008L607.135 162.007L608.996 162.738L608.995 162.741L608.993 162.747L608.984 162.769L608.949 162.858C608.918 162.937 608.871 163.053 608.81 163.205ZM606.686 168.285C606.221 169.366 605.688 170.587 605.09 171.935L603.262 171.123C603.857 169.783 604.387 168.568 604.849 167.494L606.686 168.285ZM413.117 172.127C411.904 172.073 410.646 172.108 409.339 172.239L409.14 170.249C410.538 170.109 411.893 170.07 413.206 170.129L413.117 172.127ZM420.461 173.692C419.305 173.229 418.105 172.862 416.857 172.598L417.272 170.641C418.633 170.93 419.943 171.33 421.204 171.835L420.461 173.692ZM405.591 172.851C404.961 172.992 404.321 173.153 403.67 173.336C403.013 173.52 402.374 173.721 401.752 173.938L401.093 172.05C401.755 171.818 402.434 171.605 403.13 171.41C403.814 171.218 404.489 171.048 405.155 170.899L405.591 172.851ZM426.936 177.578C425.938 176.76 424.906 176.026 423.838 175.38L424.873 173.668C426.028 174.367 427.137 175.157 428.203 176.031L426.936 177.578ZM398.115 175.48C396.918 176.085 395.792 176.76 394.729 177.499L393.587 175.857C394.725 175.065 395.932 174.343 397.213 173.695L398.115 175.48ZM603.439 175.597C602.911 176.753 602.347 177.972 601.749 179.247L599.938 178.397C600.534 177.128 601.094 175.916 601.62 174.766L603.439 175.597ZM391.648 179.974C390.678 180.868 389.768 181.825 388.912 182.841L387.383 181.551C388.29 180.476 389.258 179.457 390.293 178.503L391.648 179.974ZM432.28 183.079C431.459 182.05 430.615 181.081 429.745 180.179L431.184 178.791C432.102 179.742 432.987 180.758 433.844 181.832L432.28 183.079ZM600.019 182.885C599.454 184.06 598.863 185.272 598.249 186.517L596.455 185.632C597.067 184.392 597.655 183.186 598.217 182.017L600.019 182.885ZM386.52 186.023C385.785 187.116 385.095 188.259 384.445 189.446L382.691 188.484C383.367 187.25 384.088 186.055 384.86 184.907L386.52 186.023ZM436.657 189.45C435.977 188.319 435.281 187.229 434.568 186.186L436.22 185.057C436.957 186.136 437.673 187.259 438.371 188.42L436.657 189.45ZM596.46 190.096C595.871 191.261 595.263 192.449 594.637 193.657L592.861 192.737C593.485 191.535 594.089 190.352 594.676 189.194L596.46 190.096ZM440.373 196.314C439.787 195.125 439.19 193.964 438.581 192.836L440.341 191.886C440.963 193.038 441.571 194.221 442.167 195.43L440.373 196.314ZM382.646 193.045C382.094 194.253 381.574 195.495 381.08 196.767L379.216 196.042C379.722 194.739 380.257 193.461 380.827 192.214L382.646 193.045ZM592.766 197.223C592.145 198.392 591.508 199.576 590.856 200.774L589.1 199.817C589.748 198.626 590.382 197.448 591 196.285L592.766 197.223ZM443.645 203.441C443.122 202.229 442.594 201.036 442.058 199.865L443.877 199.032C444.42 200.218 444.954 201.425 445.482 202.65L443.645 203.441ZM379.703 200.571C379.274 201.84 378.864 203.131 378.47 204.439L376.555 203.862C376.955 202.536 377.371 201.224 377.808 199.931L379.703 200.571ZM588.926 204.273C588.279 205.432 587.618 206.601 586.944 207.777L585.208 206.783C585.879 205.613 586.536 204.45 587.18 203.298L588.926 204.273ZM446.636 210.709C446.148 209.479 445.659 208.261 445.164 207.057L447.014 206.297C447.512 207.51 448.005 208.736 448.495 209.973L446.636 210.709ZM250.595 208.373C249.928 208.368 249.266 208.378 248.611 208.401L248.54 206.402C249.224 206.378 249.913 206.368 250.609 206.373C251.323 206.378 252.028 206.401 252.726 206.443L252.607 208.439C251.945 208.4 251.274 208.377 250.595 208.373ZM244.688 208.708C243.372 208.868 242.079 209.085 240.808 209.354L240.394 207.397C241.721 207.116 243.071 206.89 244.446 206.723L244.688 208.708ZM260.433 209.77C259.172 209.411 257.881 209.116 256.557 208.891L256.892 206.919C258.29 207.156 259.652 207.468 260.982 207.847L260.433 209.77ZM377.346 208.351C376.987 209.655 376.638 210.97 376.296 212.293L374.359 211.792C374.704 210.461 375.055 209.136 375.418 207.82L377.346 208.351ZM236.997 210.334C235.737 210.717 234.497 211.152 233.277 211.636L232.539 209.777C233.81 209.273 235.101 208.82 236.416 208.421L236.997 210.334ZM267.822 212.739C266.641 212.123 265.433 211.563 264.198 211.065L264.946 209.21C266.245 209.733 267.511 210.321 268.747 210.965L267.822 212.739ZM584.924 211.255C584.252 212.398 583.567 213.546 582.871 214.698L581.159 213.664C581.851 212.518 582.532 211.377 583.2 210.241L584.924 211.255ZM229.667 213.233C228.488 213.809 227.326 214.43 226.18 215.094L225.178 213.363C226.363 212.677 227.566 212.034 228.789 211.436L229.667 213.233ZM274.59 217.026C273.51 216.221 272.409 215.458 271.287 214.744L272.361 213.056C273.528 213.799 274.669 214.59 275.786 215.423L274.59 217.026ZM449.475 218.054C449.007 216.823 448.539 215.598 448.07 214.381L449.935 213.661C450.406 214.882 450.876 216.11 451.345 217.344L449.475 218.054ZM222.816 217.187C221.722 217.914 220.642 218.679 219.573 219.478L218.376 217.876C219.472 217.057 220.582 216.271 221.708 215.522L222.816 217.187ZM374.791 218.241C374.625 218.903 374.46 219.566 374.294 220.228L372.354 219.741C372.52 219.08 372.685 218.418 372.851 217.756C373.016 217.093 373.182 216.43 373.348 215.768L375.288 216.255C375.13 216.885 374.972 217.515 374.815 218.146L374.791 218.241ZM580.764 218.134C580.062 219.264 579.349 220.395 578.625 221.527L576.94 220.449C577.659 219.325 578.368 218.201 579.066 217.079L580.764 218.134ZM280.757 222.227C279.767 221.299 278.762 220.4 277.742 219.536L279.034 218.009C280.083 218.897 281.112 219.819 282.125 220.767L280.757 222.227ZM216.445 221.938C215.428 222.776 214.421 223.644 213.423 224.537L212.089 223.047C213.106 222.137 214.134 221.251 215.173 220.394L216.445 221.938ZM450.93 221.895L450.872 221.744L452.743 221.036C453.208 222.265 453.673 223.495 454.14 224.726L452.27 225.436C451.822 224.254 451.375 223.073 450.93 221.895ZM286.459 227.998C285.534 227 284.601 226.018 283.656 225.058L285.08 223.655C286.042 224.631 286.99 225.628 287.926 226.639L286.459 227.998ZM373.282 224.204C372.937 225.535 372.586 226.861 372.223 228.176L370.295 227.645C370.654 226.342 371.003 225.026 371.346 223.703L373.282 224.204ZM576.434 224.9C575.698 226.016 574.952 227.13 574.195 228.242L572.542 227.117C573.292 226.014 574.033 224.907 574.764 223.799L576.434 224.9ZM210.496 227.252C209.541 228.166 208.594 229.103 207.652 230.059L206.228 228.655C207.182 227.687 208.142 226.737 209.111 225.808L210.496 227.252ZM455.113 232.81C454.631 231.585 454.153 230.355 453.679 229.125L455.546 228.406C456.018 229.633 456.494 230.858 456.974 232.077L455.113 232.81ZM291.872 234.089C290.983 233.058 290.09 232.032 289.19 231.017L290.687 229.69C291.595 230.714 292.494 231.747 293.387 232.784L291.872 234.089ZM571.909 231.548C571.139 232.644 570.359 233.736 569.569 234.822L567.951 233.645C568.735 232.568 569.509 231.485 570.273 230.398L571.909 231.548ZM371.085 232.134C370.684 233.461 370.268 234.773 369.83 236.066L367.935 235.424C368.365 234.156 368.775 232.865 369.17 231.557L371.085 232.134ZM204.879 232.943C203.969 233.91 203.064 234.892 202.162 235.888L200.68 234.545C201.589 233.542 202.503 232.55 203.422 231.573L204.879 232.943ZM458.099 240.139C457.586 238.928 457.08 237.707 456.581 236.48L458.434 235.727C458.93 236.946 459.432 238.157 459.941 239.358L458.099 240.139ZM295.273 238.07C295.025 237.778 294.776 237.486 294.528 237.194L296.051 235.898C296.299 236.189 296.546 236.48 296.793 236.77C297.431 237.52 298.067 238.268 298.703 239.012L297.182 240.311C296.546 239.567 295.91 238.819 295.273 238.07ZM567.175 238.054C566.366 239.126 565.549 240.19 564.722 241.246L563.147 240.012C563.967 238.967 564.777 237.912 565.578 236.85L567.175 238.054ZM199.491 238.881C198.611 239.881 197.732 240.891 196.854 241.909L195.34 240.603C196.221 239.581 197.105 238.566 197.99 237.559L199.491 238.881ZM368.418 239.954C367.91 241.256 367.373 242.532 366.802 243.777L364.984 242.942C365.537 241.737 366.059 240.497 366.555 239.227L368.418 239.954ZM302.588 246.497C301.674 245.487 300.766 244.459 299.86 243.42L301.368 242.106C302.268 243.138 303.168 244.156 304.071 245.155L302.588 246.497ZM461.335 247.38C460.773 246.193 460.222 244.992 459.681 243.778L461.507 242.963C462.043 244.165 462.588 245.352 463.142 246.524L461.335 247.38ZM562.209 244.389C561.358 245.432 560.498 246.465 559.629 247.485L558.106 246.188C558.966 245.179 559.817 244.157 560.66 243.124L562.209 244.389ZM194.24 244.963C193.373 245.981 192.506 247.004 191.637 248.03L190.111 246.738C190.98 245.712 191.848 244.687 192.717 243.666L194.24 244.963ZM364.927 247.503C364.245 248.737 363.519 249.929 362.741 251.073L361.087 249.949C361.827 248.86 362.522 247.721 363.176 246.536L364.927 247.503ZM308.309 252.446C307.327 251.499 306.356 250.521 305.394 249.517L306.839 248.133C307.785 249.121 308.736 250.08 309.697 251.006L308.309 252.446ZM556.988 250.516C556.088 251.525 555.179 252.519 554.262 253.498L552.803 252.13C553.709 251.164 554.606 250.182 555.495 249.185L556.988 250.516ZM189.036 251.104C188.168 252.127 187.298 253.151 186.424 254.174L184.904 252.874C185.775 251.855 186.643 250.833 187.51 249.811L189.036 251.104ZM464.944 254.467C464.308 253.313 463.688 252.137 463.081 250.941L464.864 250.036C465.462 251.213 466.072 252.369 466.696 253.502L464.944 254.467ZM360.194 254.414C359.278 255.484 358.3 256.494 357.254 257.437L355.914 255.952C356.894 255.069 357.812 254.121 358.675 253.113L360.194 254.414ZM314.592 257.862C313.497 257.037 312.422 256.162 311.364 255.245L312.673 253.734C313.701 254.624 314.74 255.47 315.795 256.264L314.592 257.862ZM551.467 256.401C550.517 257.362 549.558 258.304 548.591 259.226L547.21 257.779C548.163 256.87 549.108 255.942 550.045 254.995L551.467 256.401ZM183.793 257.231C182.911 258.247 182.024 259.26 181.131 260.266L179.635 258.938C180.522 257.938 181.404 256.932 182.282 255.92L183.793 257.231ZM469.073 261.281C468.341 260.19 467.629 259.069 466.935 257.92L468.647 256.886C469.325 258.01 470.02 259.104 470.734 260.167L469.073 261.281ZM353.925 260.044C352.776 260.82 351.559 261.525 350.266 262.153L349.392 260.354C350.599 259.768 351.735 259.11 352.806 258.387L353.925 260.044ZM321.7 262.272C320.448 261.663 319.227 260.98 318.031 260.233L319.091 258.537C320.232 259.25 321.392 259.898 322.575 260.473L321.7 262.272ZM545.619 261.971C544.611 262.872 543.594 263.75 542.569 264.604L541.289 263.067C542.296 262.229 543.295 261.366 544.286 260.48L545.619 261.971ZM346.359 263.735C345.693 263.955 345.01 264.157 344.31 264.34C343.61 264.523 342.918 264.685 342.233 264.825L341.833 262.865C342.481 262.733 343.138 262.58 343.803 262.405C344.463 262.232 345.106 262.042 345.732 261.836L346.359 263.735ZM178.428 263.269C177.517 264.266 176.599 265.253 175.673 266.23L174.222 264.854C175.139 263.887 176.048 262.908 176.951 261.92L178.428 263.269ZM329.672 264.973C328.276 264.701 326.917 264.334 325.59 263.881L326.236 261.988C327.48 262.413 328.751 262.756 330.055 263.01L329.672 264.973ZM473.918 267.66C473.048 266.659 472.206 265.616 471.388 264.535L472.984 263.328C473.776 264.376 474.59 265.384 475.428 266.349L473.918 267.66ZM338.074 265.422C336.636 265.54 335.234 265.559 333.864 265.487L333.968 263.49C335.248 263.557 336.561 263.539 337.912 263.429L338.074 265.422ZM539.406 267.137C538.328 267.967 537.241 268.768 536.144 269.539L534.994 267.903C536.066 267.149 537.13 266.365 538.187 265.552L539.406 267.137ZM172.857 269.138C171.903 270.099 170.941 271.047 169.967 271.979L168.584 270.534C169.544 269.615 170.494 268.68 171.436 267.73L172.857 269.138ZM479.666 273.291C478.634 272.446 477.636 271.546 476.67 270.596L478.072 269.17C478.998 270.08 479.95 270.939 480.933 271.743L479.666 273.291ZM532.79 271.784C531.635 272.517 530.471 273.216 529.299 273.877L528.316 272.134C529.457 271.491 530.591 270.811 531.718 270.096L532.79 271.784ZM166.995 274.739C165.986 275.647 164.965 276.536 163.931 277.403L162.646 275.87C163.661 275.019 164.665 274.146 165.657 273.253L166.995 274.739ZM525.703 275.77C524.48 276.369 523.247 276.927 522.006 277.439L521.243 275.591C522.443 275.095 523.637 274.555 524.824 273.974L525.703 275.77ZM486.42 277.724C485.213 277.112 484.046 276.431 482.917 275.688L484.018 274.018C485.086 274.721 486.187 275.364 487.325 275.94L486.42 277.724ZM518.183 278.865C516.886 279.297 515.58 279.678 514.265 280.006L513.78 278.066C515.044 277.75 516.301 277.383 517.551 276.967L518.183 278.865ZM494.032 280.5C492.697 280.187 491.403 279.8 490.149 279.343L490.834 277.464C492.013 277.894 493.23 278.258 494.487 278.552L494.032 280.5ZM160.764 279.953C160.228 280.367 159.687 280.776 159.143 281.177C158.596 281.581 158.045 281.983 157.491 282.384L156.319 280.763C156.868 280.367 157.413 279.968 157.955 279.568C158.488 279.175 159.017 278.776 159.542 278.37L160.764 279.953ZM510.269 280.834C508.923 281.054 507.569 281.218 506.207 281.321L506.056 279.327C507.359 279.228 508.655 279.072 509.945 278.86L510.269 280.834ZM500.065 281.371C499.371 281.329 498.686 281.269 498.011 281.191L498.241 279.204C498.879 279.278 499.527 279.335 500.186 279.375C500.842 279.414 501.497 279.438 502.151 279.448L502.122 281.447C501.438 281.438 500.753 281.412 500.065 281.371ZM154.15 284.755C153.032 285.534 151.905 286.305 150.772 287.068L149.655 285.409C150.78 284.652 151.898 283.887 153.006 283.114L154.15 284.755ZM147.36 289.329C146.215 290.076 145.067 290.814 143.918 291.542L142.847 289.852C143.99 289.129 145.13 288.396 146.267 287.654L147.36 289.329ZM140.45 293.708C139.282 294.428 138.116 295.137 136.954 295.835L135.924 294.121C137.08 293.427 138.24 292.721 139.401 292.006L140.45 293.708ZM133.436 297.922C132.248 298.618 131.069 299.301 129.901 299.97L128.907 298.234C130.07 297.568 131.243 296.889 132.425 296.197L133.436 297.922ZM126.341 301.984C125.131 302.662 123.937 303.323 122.763 303.966L121.802 302.212C122.971 301.571 124.16 300.914 125.365 300.239L126.341 301.984ZM119.176 305.91C117.939 306.573 116.732 307.213 115.558 307.83L114.628 306.059C115.797 305.445 117 304.807 118.23 304.147L119.176 305.91ZM111.934 309.713C110.668 310.364 109.455 310.981 108.301 311.563L107.401 309.776C108.55 309.198 109.759 308.583 111.019 307.935L111.934 309.713ZM104.643 313.385C103.283 314.055 102.046 314.656 100.951 315.182L100.084 313.38C101.174 312.856 102.405 312.258 103.759 311.591L104.643 313.385ZM95.411 317.784C95.411 317.784 95.411 317.784 95.0001 316.873L94.5894 315.961L94.5909 315.96L94.5962 315.958L94.6181 315.948L94.7062 315.908C94.7844 315.872 94.9014 315.819 95.0555 315.749C95.3636 315.607 95.82 315.397 96.4112 315.121L97.2566 316.934C96.6612 317.212 96.2007 317.424 95.8886 317.567C95.7325 317.638 95.6136 317.693 95.5334 317.729L95.4425 317.77L95.4132 317.783L95.411 317.784Z" fill="#FD5256"/>
<path d="M262.192 392H257.044V383.408H262.18V384.2H257.908V387.296H261.784V388.076H257.908V391.208H262.192V392ZM263.274 390.368H264.066C264.066 391.04 264.57 391.46 265.386 391.46C266.286 391.46 266.814 391.076 266.814 390.452C266.814 389.972 266.574 389.696 265.89 389.528L264.894 389.276C263.886 389.024 263.394 388.496 263.394 387.704C263.394 386.684 264.246 386.036 265.494 386.036C266.718 386.036 267.51 386.708 267.546 387.788H266.742C266.718 387.116 266.25 386.72 265.47 386.72C264.654 386.72 264.198 387.068 264.198 387.692C264.198 388.136 264.51 388.448 265.146 388.604L266.142 388.856C267.15 389.108 267.606 389.576 267.606 390.416C267.606 391.46 266.718 392.144 265.398 392.144C264.09 392.144 263.274 391.448 263.274 390.368ZM270.301 392H269.485V386.888H268.321V386.192H269.485V384.356H270.301V386.192H271.465V386.888H270.301V392ZM274.921 392.144C273.217 392.144 272.077 390.92 272.077 389.096C272.077 387.284 273.205 386.036 274.861 386.036C276.433 386.036 277.501 387.152 277.501 388.796V389.204H272.881C272.941 390.62 273.685 391.436 274.933 391.436C275.881 391.436 276.493 391.028 276.709 390.26H277.501C277.189 391.484 276.289 392.144 274.921 392.144ZM274.861 386.744C273.769 386.744 273.049 387.464 272.905 388.604H276.673C276.673 387.488 275.953 386.744 274.861 386.744ZM282.981 392H282.153V386.192H282.873L282.969 387.02C283.257 386.408 283.905 386.036 284.721 386.036C285.633 386.036 286.317 386.516 286.593 387.272C286.857 386.516 287.565 386.036 288.501 386.036C289.761 386.036 290.589 386.852 290.589 388.196V392H289.785V388.364C289.785 387.368 289.233 386.78 288.345 386.78C287.373 386.78 286.797 387.512 286.797 388.412V392H285.981V388.352C285.981 387.368 285.417 386.792 284.541 386.792C283.569 386.792 282.981 387.512 282.981 388.4V392ZM294.691 392.144C292.987 392.144 291.847 390.92 291.847 389.096C291.847 387.284 292.975 386.036 294.631 386.036C296.203 386.036 297.271 387.152 297.271 388.796V389.204H292.651C292.711 390.62 293.455 391.436 294.703 391.436C295.651 391.436 296.263 391.028 296.479 390.26H297.271C296.959 391.484 296.059 392.144 294.691 392.144ZM294.631 386.744C293.539 386.744 292.819 387.464 292.675 388.604H296.443C296.443 387.488 295.723 386.744 294.631 386.744ZM298.102 390.368H298.894C298.894 391.04 299.398 391.46 300.214 391.46C301.114 391.46 301.642 391.076 301.642 390.452C301.642 389.972 301.402 389.696 300.718 389.528L299.722 389.276C298.714 389.024 298.222 388.496 298.222 387.704C298.222 386.684 299.074 386.036 300.322 386.036C301.546 386.036 302.338 386.708 302.374 387.788H301.57C301.546 387.116 301.078 386.72 300.298 386.72C299.482 386.72 299.026 387.068 299.026 387.692C299.026 388.136 299.338 388.448 299.974 388.604L300.97 388.856C301.978 389.108 302.434 389.576 302.434 390.416C302.434 391.46 301.546 392.144 300.226 392.144C298.918 392.144 298.102 391.448 298.102 390.368Z" fill="#2C3358"/>
<path d="M249 387C249 390.314 246.314 393 243 393C239.686 393 237 390.314 237 387C237 383.686 239.686 381 243 381C246.314 381 249 383.686 249 387Z" fill="#3A58EC"/>
<path d="M366.896 392H366.044V383.408H366.896L370.028 390.98L373.16 383.408H374.024V392H373.172V387.92C373.172 386.42 373.196 385.76 373.244 385.172L370.448 392H369.62L366.824 385.208C366.872 385.532 366.896 386.48 366.896 387.788V392ZM378.366 392.144C376.662 392.144 375.522 390.92 375.522 389.096C375.522 387.284 376.65 386.036 378.306 386.036C379.878 386.036 380.946 387.152 380.946 388.796V389.204H376.326C376.386 390.62 377.13 391.436 378.378 391.436C379.326 391.436 379.938 391.028 380.154 390.26H380.946C380.634 391.484 379.734 392.144 378.366 392.144ZM378.306 386.744C377.214 386.744 376.494 387.464 376.35 388.604H380.118C380.118 387.488 379.398 386.744 378.306 386.744ZM381.778 390.368H382.57C382.57 391.04 383.074 391.46 383.89 391.46C384.79 391.46 385.318 391.076 385.318 390.452C385.318 389.972 385.078 389.696 384.394 389.528L383.398 389.276C382.39 389.024 381.898 388.496 381.898 387.704C381.898 386.684 382.75 386.036 383.998 386.036C385.222 386.036 386.014 386.708 386.05 387.788H385.246C385.222 387.116 384.754 386.72 383.974 386.72C383.158 386.72 382.702 387.068 382.702 387.692C382.702 388.136 383.014 388.448 383.65 388.604L384.646 388.856C385.654 389.108 386.11 389.576 386.11 390.416C386.11 391.46 385.222 392.144 383.902 392.144C382.594 392.144 381.778 391.448 381.778 390.368ZM390.802 394.532V386.192H391.521L391.606 387.368C392.014 386.468 392.83 386.036 393.802 386.036C395.482 386.036 396.49 387.32 396.49 389.072C396.49 390.824 395.518 392.144 393.802 392.144C392.818 392.144 392.038 391.724 391.63 390.884V394.532H390.802ZM391.642 389.096C391.642 390.428 392.386 391.4 393.658 391.4C394.918 391.4 395.65 390.428 395.65 389.096C395.65 387.752 394.918 386.792 393.658 386.792C392.386 386.792 391.642 387.752 391.642 389.096ZM399.477 392.144C398.241 392.144 397.509 391.448 397.509 390.428C397.509 389.36 398.325 388.688 399.681 388.58L401.601 388.424V388.232C401.601 387.092 400.917 386.732 400.065 386.732C399.057 386.732 398.457 387.188 398.457 387.968H397.701C397.701 386.792 398.661 386.036 400.089 386.036C401.433 386.036 402.417 386.708 402.417 388.244V392H401.721L401.613 390.98C401.253 391.712 400.461 392.144 399.477 392.144ZM399.669 391.472C400.893 391.472 401.601 390.62 401.601 389.36V389.048L399.885 389.18C398.793 389.276 398.349 389.756 398.349 390.404C398.349 391.112 398.877 391.472 399.669 391.472ZM403.587 390.368H404.379C404.379 391.04 404.883 391.46 405.699 391.46C406.599 391.46 407.127 391.076 407.127 390.452C407.127 389.972 406.887 389.696 406.203 389.528L405.207 389.276C404.199 389.024 403.707 388.496 403.707 387.704C403.707 386.684 404.559 386.036 405.807 386.036C407.031 386.036 407.823 386.708 407.859 387.788H407.055C407.031 387.116 406.563 386.72 405.783 386.72C404.967 386.72 404.511 387.068 404.511 387.692C404.511 388.136 404.823 388.448 405.459 388.604L406.455 388.856C407.463 389.108 407.919 389.576 407.919 390.416C407.919 391.46 407.031 392.144 405.711 392.144C404.403 392.144 403.587 391.448 403.587 390.368ZM410.95 392.144C409.714 392.144 408.982 391.448 408.982 390.428C408.982 389.36 409.798 388.688 411.154 388.58L413.074 388.424V388.232C413.074 387.092 412.39 386.732 411.538 386.732C410.53 386.732 409.93 387.188 409.93 387.968H409.174C409.174 386.792 410.134 386.036 411.562 386.036C412.906 386.036 413.89 386.708 413.89 388.244V392H413.194L413.086 390.98C412.726 391.712 411.934 392.144 410.95 392.144ZM411.142 391.472C412.366 391.472 413.074 390.62 413.074 389.36V389.048L411.358 389.18C410.266 389.276 409.822 389.756 409.822 390.404C409.822 391.112 410.35 391.472 411.142 391.472ZM417.832 392.144C416.14 392.144 415.144 390.848 415.144 389.108C415.144 387.356 416.14 386.036 417.868 386.036C418.828 386.036 419.596 386.456 420.004 387.296V383.252H420.832V392H420.112L420.028 390.812C419.62 391.712 418.804 392.144 417.832 392.144ZM417.976 391.388C419.248 391.388 419.992 390.428 419.992 389.084C419.992 387.752 419.248 386.78 417.976 386.78C416.716 386.78 415.984 387.752 415.984 389.084C415.984 390.428 416.716 391.388 417.976 391.388ZM422.151 389.096C422.151 387.32 423.399 386.036 425.103 386.036C426.807 386.036 428.055 387.32 428.055 389.096C428.055 390.86 426.807 392.144 425.103 392.144C423.399 392.144 422.151 390.86 422.151 389.096ZM422.991 389.084C422.991 390.452 423.855 391.4 425.103 391.4C426.339 391.4 427.215 390.452 427.215 389.084C427.215 387.74 426.339 386.78 425.103 386.78C423.855 386.78 422.991 387.74 422.991 389.084Z" fill="#2C3358"/>
<path d="M358 387C358 390.314 355.314 393 352 393C348.686 393 346 390.314 346 387C346 383.686 348.686 381 352 381C355.314 381 358 383.686 358 387Z" fill="#FD5256"/>
<path fill-rule="evenodd" clip-rule="evenodd" d="M608 121.144L96 121.144L96 120.644L608 120.644L608 121.144Z" fill="#B7B8C1"/>
<path d="M59.9785 126.144V125.313L63.0993 121.897C63.4655 121.497 63.7671 121.149 64.0041 120.854C64.2411 120.555 64.4165 120.275 64.5304 120.013C64.6473 119.749 64.7058 119.472 64.7058 119.182C64.7058 118.85 64.6258 118.562 64.4657 118.319C64.3088 118.076 64.0933 117.888 63.8194 117.756C63.5455 117.624 63.2377 117.557 62.8961 117.557C62.533 117.557 62.216 117.633 61.9451 117.784C61.6774 117.931 61.4696 118.139 61.3219 118.407C61.1773 118.675 61.1049 118.988 61.1049 119.349H60.0154C60.0154 118.795 60.1432 118.308 60.3986 117.89C60.6541 117.471 61.0018 117.145 61.4419 116.911C61.8851 116.677 62.3822 116.56 62.9331 116.56C63.487 116.56 63.9779 116.677 64.4057 116.911C64.8335 117.145 65.169 117.46 65.4121 117.857C65.6552 118.254 65.7768 118.696 65.7768 119.182C65.7768 119.53 65.7137 119.87 65.5875 120.203C65.4644 120.532 65.249 120.9 64.9412 121.306C64.6365 121.709 64.2134 122.202 63.6717 122.783L61.5481 125.054V125.128H65.943V126.144H59.9785Z" fill="#3E4259"/>
<path d="M70.6742 126.273C70.1325 126.273 69.6447 126.166 69.2107 125.95C68.7768 125.735 68.429 125.439 68.1674 125.064C67.9058 124.688 67.7627 124.26 67.7381 123.78H68.846C68.8891 124.208 69.083 124.562 69.4277 124.842C69.7755 125.119 70.191 125.258 70.6742 125.258C71.0619 125.258 71.4066 125.167 71.7082 124.985C72.0129 124.804 72.2515 124.554 72.4238 124.237C72.5992 123.917 72.6869 123.556 72.6869 123.153C72.6869 122.74 72.5961 122.372 72.4146 122.049C72.2361 121.723 71.9899 121.466 71.6759 121.278C71.362 121.09 71.0035 120.995 70.6003 120.992C70.311 120.989 70.014 121.034 69.7093 121.126C69.4046 121.215 69.1538 121.331 68.9568 121.472L67.8858 121.343L68.4582 116.689H73.3702V117.705H69.4185L69.0861 120.493H69.1415C69.3354 120.34 69.5785 120.212 69.8709 120.11C70.1633 120.009 70.468 119.958 70.785 119.958C71.3635 119.958 71.8791 120.096 72.3315 120.373C72.787 120.647 73.144 121.023 73.4025 121.5C73.6641 121.977 73.7949 122.522 73.7949 123.134C73.7949 123.737 73.6595 124.276 73.3886 124.75C73.1209 125.221 72.7516 125.593 72.2807 125.867C71.8098 126.138 71.2743 126.273 70.6742 126.273Z" fill="#3E4259"/>
<path d="M76.5329 123.559L76.5144 122.211H76.736L79.8383 119.053H81.1863L77.8809 122.395H77.7886L76.5329 123.559ZM75.5173 126.144V116.689H76.6067V126.144H75.5173ZM80.0229 126.144L77.253 122.635L78.0286 121.878L81.4079 126.144H80.0229Z" fill="#3E4259"/>
<path fill-rule="evenodd" clip-rule="evenodd" d="M608 179.144L96 179.144L96 178.644L608 178.644L608 179.144Z" fill="#B7B8C1"/>
<path d="M59.9785 184.144V183.313L63.0993 179.897C63.4655 179.497 63.7671 179.149 64.0041 178.854C64.2411 178.555 64.4165 178.275 64.5304 178.013C64.6473 177.749 64.7058 177.472 64.7058 177.182C64.7058 176.85 64.6258 176.562 64.4657 176.319C64.3088 176.076 64.0933 175.888 63.8194 175.756C63.5455 175.624 63.2377 175.557 62.8961 175.557C62.533 175.557 62.216 175.633 61.9451 175.784C61.6774 175.931 61.4696 176.139 61.3219 176.407C61.1773 176.675 61.1049 176.988 61.1049 177.349H60.0154C60.0154 176.795 60.1432 176.308 60.3986 175.89C60.6541 175.471 61.0018 175.145 61.4419 174.911C61.8851 174.677 62.3822 174.56 62.9331 174.56C63.487 174.56 63.9779 174.677 64.4057 174.911C64.8335 175.145 65.169 175.46 65.4121 175.857C65.6552 176.254 65.7768 176.696 65.7768 177.182C65.7768 177.53 65.7137 177.87 65.5875 178.203C65.4644 178.532 65.249 178.9 64.9412 179.306C64.6365 179.709 64.2134 180.202 63.6717 180.783L61.5481 183.054V183.128H65.943V184.144H59.9785Z" fill="#3E4259"/>
<path d="M70.8034 184.273C70.1079 184.273 69.5154 184.084 69.0261 183.705C68.5367 183.324 68.1628 182.771 67.9043 182.048C67.6457 181.322 67.5165 180.445 67.5165 179.417C67.5165 178.395 67.6457 177.522 67.9043 176.799C68.1659 176.073 68.5413 175.519 69.0307 175.137C69.5231 174.753 70.114 174.56 70.8034 174.56C71.4928 174.56 72.0822 174.753 72.5715 175.137C73.064 175.519 73.4394 176.073 73.6979 176.799C73.9595 177.522 74.0903 178.395 74.0903 179.417C74.0903 180.445 73.9611 181.322 73.7026 182.048C73.444 182.771 73.0701 183.324 72.5808 183.705C72.0914 184.084 71.499 184.273 70.8034 184.273ZM70.8034 183.258C71.4928 183.258 72.0283 182.925 72.41 182.26C72.7916 181.596 72.9824 180.648 72.9824 179.417C72.9824 178.598 72.8947 177.901 72.7193 177.325C72.5469 176.75 72.2976 176.311 71.9714 176.01C71.6482 175.708 71.2589 175.557 70.8034 175.557C70.1202 175.557 69.5862 175.894 69.2015 176.568C68.8168 177.239 68.6244 178.189 68.6244 179.417C68.6244 180.235 68.7106 180.931 68.883 181.503C69.0553 182.076 69.3031 182.511 69.6262 182.81C69.9524 183.108 70.3448 183.258 70.8034 183.258Z" fill="#3E4259"/>
<path d="M76.7487 181.559L76.7302 180.211H76.9518L80.0541 177.053H81.4021L78.0967 180.395H78.0044L76.7487 181.559ZM75.7331 184.144V174.689H76.8226V184.144H75.7331ZM80.2388 184.144L77.4689 180.635L78.2444 179.878L81.6237 184.144H80.2388Z" fill="#3E4259"/>
<path fill-rule="evenodd" clip-rule="evenodd" d="M608 237.144L96 237.144L96 236.644L608 236.644L608 237.144Z" fill="#B7B8C1"/>
<path d="M63.3025 232.689V242.144H62.1576V233.89H62.1022L59.7939 235.422V234.259L62.1576 232.689H63.3025Z" fill="#3E4259"/>
<path d="M68.8461 242.273C68.3045 242.273 67.8166 242.166 67.3827 241.95C66.9487 241.735 66.601 241.439 66.3394 241.064C66.0778 240.688 65.9347 240.26 65.91 239.78H67.018C67.0611 240.208 67.255 240.562 67.5997 240.842C67.9474 241.119 68.3629 241.258 68.8461 241.258C69.2339 241.258 69.5786 241.167 69.8802 240.985C70.1849 240.804 70.4234 240.554 70.5958 240.237C70.7712 239.917 70.8589 239.556 70.8589 239.153C70.8589 238.74 70.7681 238.372 70.5865 238.049C70.408 237.723 70.1618 237.466 69.8479 237.278C69.534 237.09 69.1754 236.995 68.7723 236.992C68.483 236.989 68.186 237.034 67.8813 237.126C67.5766 237.215 67.3258 237.331 67.1288 237.472L66.0578 237.343L66.6302 232.689H71.5421V233.705H67.5904L67.2581 236.493H67.3134C67.5073 236.34 67.7505 236.212 68.0429 236.11C68.3352 236.009 68.6399 235.958 68.9569 235.958C69.5355 235.958 70.051 236.096 70.5034 236.373C70.9589 236.647 71.3159 237.023 71.5745 237.5C71.8361 237.977 71.9669 238.522 71.9669 239.134C71.9669 239.737 71.8314 240.276 71.5606 240.75C71.2929 241.221 70.9235 241.593 70.4527 241.867C69.9818 242.138 69.4463 242.273 68.8461 242.273Z" fill="#3E4259"/>
<path d="M74.7048 239.559L74.6864 238.211H74.908L78.0102 235.053H79.3583L76.0529 238.395H75.9605L74.7048 239.559ZM73.6892 242.144V232.689H74.7787V242.144H73.6892ZM78.1949 242.144L75.425 238.635L76.2006 237.878L79.5798 242.144H78.1949Z" fill="#3E4259"/>
<path fill-rule="evenodd" clip-rule="evenodd" d="M608 295.144L96 295.144L96 294.644L608 294.644L608 295.144Z" fill="#B7B8C1"/>
<path d="M62.9331 300.273C62.3915 300.273 61.9037 300.166 61.4697 299.95C61.0358 299.735 60.688 299.439 60.4264 299.064C60.1648 298.688 60.0217 298.26 59.9971 297.78H61.105C61.1481 298.208 61.342 298.562 61.6867 298.842C62.0345 299.119 62.45 299.258 62.9331 299.258C63.3209 299.258 63.6656 299.167 63.9672 298.985C64.2719 298.804 64.5104 298.554 64.6828 298.237C64.8582 297.917 64.9459 297.556 64.9459 297.153C64.9459 296.74 64.8551 296.372 64.6736 296.049C64.4951 295.723 64.2488 295.466 63.9349 295.278C63.621 295.09 63.2625 294.995 62.8593 294.992C62.57 294.989 62.273 295.034 61.9683 295.126C61.6636 295.215 61.4128 295.331 61.2158 295.472L60.1448 295.343L60.7172 290.689H65.6292V291.705H61.6775L61.3451 294.493H61.4005C61.5944 294.34 61.8375 294.212 62.1299 294.11C62.4223 294.009 62.7269 293.958 63.0439 293.958C63.6225 293.958 64.1381 294.096 64.5905 294.373C65.046 294.647 65.403 295.023 65.6615 295.5C65.9231 295.977 66.0539 296.522 66.0539 297.134C66.0539 297.737 65.9185 298.276 65.6476 298.75C65.3799 299.221 65.0106 299.593 64.5397 299.867C64.0688 300.138 63.5333 300.273 62.9331 300.273Z" fill="#3E4259"/>
<path d="M68.7919 297.559L68.7734 296.211H68.995L72.0973 293.053H73.4453L70.1399 296.395H70.0476L68.7919 297.559ZM67.7762 300.144V290.689H68.8657V300.144H67.7762ZM72.2819 300.144L69.512 296.635L70.2876 295.878L73.6669 300.144H72.2819Z" fill="#3E4259"/>
<path fill-rule="evenodd" clip-rule="evenodd" d="M608 348.144L96 348.144L96 347.644L608 347.644L608 348.144Z" fill="#B7B8C1"/>
<path d="M63.0623 353.273C62.3668 353.273 61.7743 353.084 61.285 352.705C60.7956 352.324 60.4217 351.771 60.1632 351.048C59.9047 350.322 59.7754 349.445 59.7754 348.417C59.7754 347.395 59.9047 346.522 60.1632 345.799C60.4248 345.073 60.8002 344.519 61.2896 344.137C61.782 343.753 62.3729 343.56 63.0623 343.56C63.7517 343.56 64.3411 343.753 64.8304 344.137C65.3229 344.519 65.6983 345.073 65.9569 345.799C66.2185 346.522 66.3493 347.395 66.3493 348.417C66.3493 349.445 66.22 350.322 65.9615 351.048C65.7029 351.771 65.329 352.324 64.8397 352.705C64.3503 353.084 63.7579 353.273 63.0623 353.273ZM63.0623 352.258C63.7517 352.258 64.2872 351.925 64.6689 351.26C65.0505 350.596 65.2413 349.648 65.2413 348.417C65.2413 347.598 65.1536 346.901 64.9782 346.325C64.8058 345.75 64.5565 345.311 64.2303 345.01C63.9071 344.708 63.5178 344.557 63.0623 344.557C62.3791 344.557 61.8451 344.894 61.4604 345.568C61.0757 346.239 60.8833 347.189 60.8833 348.417C60.8833 349.235 60.9695 349.931 61.1419 350.503C61.3142 351.076 61.562 351.511 61.8851 351.81C62.2114 352.108 62.6038 352.258 63.0623 352.258Z" fill="#3E4259"/>
<path d="M69.0076 350.559L68.9891 349.211H69.2107L72.313 346.053H73.661L70.3556 349.395H70.2633L69.0076 350.559ZM67.992 353.144V343.689H69.0815V353.144H67.992ZM72.4977 353.144L69.7278 349.635L70.5033 348.878L73.8826 353.144H72.4977Z" fill="#3E4259"/>
<path d="M162.287 210.373C123.916 221.058 97.3364 293.873 97.3364 293.873V351.688H609V197.373C609 197.373 597.197 255.83 569.749 271.373C525.364 296.506 510.974 189.197 461.342 197.373C437.141 201.359 430.218 227.864 405.736 228.373C370.319 229.109 370.603 167.473 335.178 167.373C288.805 167.242 312.091 259.979 266.956 271.373C221.655 282.809 207.332 197.829 162.287 210.373Z" fill="url(#paint0_linear_201_206)"/>
<path fill-rule="evenodd" clip-rule="evenodd" d="M291.943 251.155C286.905 261.764 279.512 270.266 267.446 273.312C255.401 276.353 245.409 272.933 236.643 266.516C228.068 260.237 220.525 250.983 213.204 242.001L212.975 241.721C205.495 232.544 198.235 223.684 190.108 217.845C182.089 212.083 173.365 209.364 162.824 212.299C153.72 214.834 145.164 221.107 137.403 229.303C129.657 237.482 122.825 247.446 117.149 257.14C111.477 266.826 106.989 276.191 103.918 283.137C102.384 286.608 101.205 289.471 100.411 291.463C100.015 292.459 99.7141 293.237 99.5135 293.764C99.4132 294.027 99.3379 294.228 99.288 294.362C99.2631 294.429 99.2445 294.479 99.2324 294.512L99.219 294.548L99.2159 294.557L99.2153 294.558C99.2152 294.558 99.2152 294.558 99.2051 294.555L99.2153 294.558C98.8365 295.596 97.6883 296.13 96.6507 295.751C95.6131 295.373 95.079 294.225 95.4577 293.187L97.3365 293.873C95.4577 293.187 95.458 293.186 95.4583 293.185L95.4637 293.171L95.4794 293.128C95.4931 293.091 95.5133 293.036 95.5398 292.965C95.5929 292.823 95.6715 292.613 95.7752 292.341C95.9827 291.796 96.2907 290.999 96.6956 289.983C97.5053 287.951 98.703 285.042 100.26 281.52C103.372 274.479 107.927 264.972 113.697 255.119C119.461 245.274 126.469 235.031 134.499 226.552C142.513 218.09 151.669 211.253 161.751 208.446C173.732 205.11 183.691 208.309 192.442 214.596C201.084 220.805 208.682 230.124 216.076 239.194L216.1 239.224C223.573 248.392 230.846 257.314 239.006 263.288C247.075 269.196 255.862 272.111 266.467 269.434C276.968 266.783 283.59 259.42 288.329 249.44C292.908 239.798 295.601 227.987 298.307 216.122C298.422 215.617 298.538 215.111 298.653 214.606C301.445 202.381 304.347 190.134 309.564 180.975C312.194 176.358 315.462 172.429 319.689 169.663C323.935 166.884 329.033 165.355 335.184 165.373C344.722 165.4 351.836 169.605 357.615 175.67C363.255 181.589 367.727 189.394 372.04 196.92L372.195 197.192C376.618 204.909 380.887 212.311 386.187 217.773C391.41 223.157 397.527 226.543 405.695 226.373C417.111 226.136 424.464 219.903 432.291 212.705C432.68 212.347 433.07 211.987 433.462 211.625C440.851 204.803 448.87 197.4 461.017 195.399C474.27 193.216 485.075 198.809 494.35 207.566C503.057 215.786 510.653 227.018 517.897 237.73C518.322 238.358 518.746 238.985 519.169 239.61C526.893 251.014 534.223 261.513 542.28 267.675C546.266 270.723 550.325 272.623 554.599 273.085C558.852 273.546 563.515 272.604 568.764 269.632C575.234 265.969 580.905 259.695 585.783 252.166C590.649 244.655 594.64 236.028 597.801 227.825C600.96 219.63 603.273 211.908 604.795 206.231C605.556 203.395 606.119 201.074 606.491 199.465C606.677 198.66 606.815 198.034 606.906 197.611C606.951 197.4 606.985 197.239 607.008 197.132L607.032 197.013L607.039 196.978L607.04 196.977C607.258 195.894 608.313 195.194 609.396 195.412C610.479 195.631 611.179 196.686 610.961 197.769L609 197.373C610.961 197.769 610.96 197.769 610.96 197.77L610.96 197.773L610.951 197.817L610.923 197.949C610.899 198.065 610.863 198.234 610.816 198.455C610.721 198.896 610.578 199.541 610.388 200.365C610.007 202.014 609.433 204.381 608.659 207.268C607.111 213.038 604.757 220.902 601.534 229.264C598.314 237.618 594.207 246.519 589.14 254.341C584.085 262.143 577.989 269.006 570.735 273.113C564.887 276.424 559.391 277.627 554.168 277.062C548.965 276.499 544.231 274.202 539.85 270.852C531.175 264.218 523.483 253.113 515.857 241.853C515.461 241.268 515.065 240.683 514.669 240.098C507.343 229.267 499.978 218.38 491.604 210.475C482.835 202.196 473.23 197.441 461.667 199.346C450.732 201.147 443.528 207.788 435.983 214.742C435.656 215.044 435.328 215.346 434.998 215.649C427.193 222.827 418.843 230.101 405.778 230.372C396.237 230.57 389.108 226.528 383.316 220.559C377.601 214.668 373.086 206.792 368.725 199.181L368.713 199.161C364.294 191.448 360.023 183.996 354.719 178.429C349.481 172.932 343.347 169.396 335.173 169.373C329.73 169.357 325.412 170.698 321.879 173.01C318.327 175.335 315.453 178.718 313.04 182.955C308.17 191.503 305.377 203.129 302.553 215.496C302.424 216.058 302.296 216.621 302.167 217.186C299.498 228.898 296.716 241.103 291.943 251.155Z" fill="#3A58EC"/>
<path fill-rule="evenodd" clip-rule="evenodd" d="M335.514 117.858L335.514 114.794L336.514 114.794L336.514 117.858L335.514 117.858ZM335.514 130.115L335.514 123.987L336.514 123.987L336.514 130.115L335.514 130.115ZM335.514 142.372L335.514 136.244L336.514 136.244L336.514 142.372L335.514 142.372ZM335.514 154.629L335.514 148.501L336.514 148.501L336.514 154.629L335.514 154.629ZM335.514 166.886L335.514 160.758L336.514 160.758L336.514 166.886L335.514 166.886ZM335.514 179.143L335.514 173.014L336.514 173.014L336.514 179.143L335.514 179.143ZM335.514 191.4L335.514 185.271L336.514 185.271L336.514 191.4L335.514 191.4ZM335.514 203.657L335.514 197.528L336.514 197.528L336.514 203.657L335.514 203.657ZM335.514 215.914L335.514 209.785L336.514 209.785L336.514 215.914L335.514 215.914ZM335.514 228.171L335.514 222.042L336.514 222.042L336.514 228.171L335.514 228.171ZM335.514 240.428L335.514 234.299L336.514 234.299L336.514 240.428L335.514 240.428ZM335.514 252.685L335.514 246.556L336.514 246.556L336.514 252.685L335.514 252.685ZM335.514 264.942L335.514 258.813L336.514 258.813L336.514 264.942L335.514 264.942ZM335.514 277.199L335.514 271.07L336.514 271.07L336.514 277.199L335.514 277.199ZM335.514 289.456L335.514 283.327L336.514 283.327L336.514 289.456L335.514 289.456ZM335.514 301.713L335.514 295.584L336.514 295.584L336.514 301.713L335.514 301.713ZM335.514 313.97L335.514 307.841L336.514 307.841L336.514 313.97L335.514 313.97ZM335.514 326.226L335.514 320.098L336.514 320.098L336.514 326.226L335.514 326.226ZM335.514 338.483L335.514 332.355L336.514 332.355L336.514 338.483L335.514 338.483ZM335.514 347.676L335.514 344.612L336.514 344.612L336.514 347.676L335.514 347.676Z" fill="#9D9EA9"/>
<rect x="297" y="121.144" width="81" height="34" rx="12" fill="#0E132F"/>
<path d="M312.084 144.308V143.276C310.5 143.18 309.456 142.28 309.384 140.876H310.584C310.608 141.644 311.172 142.148 312.084 142.244V139.256L311.652 139.16C310.236 138.836 309.504 138.044 309.504 136.808C309.504 135.44 310.524 134.468 312.084 134.336V133.292H312.852V134.324C314.304 134.456 315.228 135.344 315.312 136.736H314.148C314.1 135.968 313.632 135.476 312.852 135.368V138.344L313.32 138.452C314.76 138.776 315.456 139.532 315.456 140.732C315.456 142.16 314.436 143.12 312.852 143.264V144.308H312.084ZM311.892 138.116L312.084 138.164V135.368C311.196 135.488 310.656 136.004 310.656 136.772C310.656 137.468 311.052 137.912 311.892 138.116ZM313.08 139.496L312.852 139.448V142.22C313.752 142.1 314.304 141.584 314.304 140.828C314.304 140.132 313.908 139.688 313.08 139.496ZM318.17 135.524H316.346V134.468H319.298V143.144H318.17V135.524ZM321.953 143.288C321.485 143.288 321.089 142.904 321.089 142.448C321.089 141.98 321.485 141.596 321.953 141.596C322.409 141.596 322.805 141.98 322.805 142.448C322.805 142.904 322.409 143.288 321.953 143.288ZM326.859 143.288C325.083 143.288 323.931 142.16 323.931 140.432H325.095C325.095 141.548 325.779 142.232 326.883 142.232C328.059 142.232 328.815 141.452 328.815 140.276C328.815 139.16 328.107 138.332 326.895 138.332C326.163 138.332 325.491 138.68 325.095 139.172L324.099 138.92L325.155 134.468H329.499V135.548H326.007L325.431 137.852C325.887 137.504 326.463 137.324 327.111 137.324C328.875 137.324 330.015 138.56 330.015 140.228C330.015 142.028 328.731 143.288 326.859 143.288ZM331.033 138.812C331.033 136.124 332.425 134.3 334.609 134.3C336.781 134.3 338.173 136.124 338.173 138.812C338.173 141.512 336.841 143.3 334.609 143.3C332.365 143.3 331.033 141.512 331.033 138.812ZM332.197 138.812C332.197 140.948 333.085 142.244 334.609 142.244C336.133 142.244 337.009 140.948 337.009 138.812C337.009 136.652 336.133 135.356 334.609 135.356C333.085 135.356 332.197 136.652 332.197 138.812ZM344.406 140.396L342.378 143.144H341.01L343.182 140.264C342.882 140.384 342.57 140.444 342.27 140.444C340.47 140.444 339.258 139.148 339.258 137.42C339.258 135.62 340.626 134.312 342.414 134.312C344.214 134.312 345.606 135.668 345.606 137.432C345.606 138.452 345.294 139.184 344.406 140.396ZM344.406 137.42C344.406 136.232 343.59 135.368 342.414 135.368C341.262 135.368 340.446 136.232 340.446 137.42C340.446 138.608 341.262 139.448 342.414 139.448C343.59 139.448 344.406 138.608 344.406 137.42ZM348.117 142.676C348.117 143.54 347.469 144.26 346.617 144.368V143.864C347.109 143.78 347.457 143.456 347.457 143.084C347.373 143.132 347.277 143.156 347.133 143.156C346.737 143.156 346.401 142.868 346.401 142.424C346.401 141.944 346.725 141.596 347.205 141.596C347.709 141.596 348.117 142.016 348.117 142.676ZM349.022 138.812C349.022 136.124 350.414 134.3 352.598 134.3C354.77 134.3 356.162 136.124 356.162 138.812C356.162 141.512 354.83 143.3 352.598 143.3C350.354 143.3 349.022 141.512 349.022 138.812ZM350.186 138.812C350.186 140.948 351.074 142.244 352.598 142.244C354.122 142.244 354.998 140.948 354.998 138.812C354.998 136.652 354.122 135.356 352.598 135.356C351.074 135.356 350.186 136.652 350.186 138.812ZM357.342 138.812C357.342 136.124 358.734 134.3 360.918 134.3C363.09 134.3 364.482 136.124 364.482 138.812C364.482 141.512 363.15 143.3 360.918 143.3C358.674 143.3 357.342 141.512 357.342 138.812ZM358.506 138.812C358.506 140.948 359.394 142.244 360.918 142.244C362.442 142.244 363.318 140.948 363.318 138.812C363.318 136.652 362.442 135.356 360.918 135.356C359.394 135.356 358.506 136.652 358.506 138.812Z" fill="white"/>
<path d="M340 165.562C340 167.771 338.209 169.562 336 169.562C333.791 169.562 332 167.771 332 165.562C332 163.353 333.791 161.562 336 161.562C338.209 161.562 340 163.353 340 165.562Z" fill="#0E132F"/>
<path fill-rule="evenodd" clip-rule="evenodd" d="M344 165.562C344 169.981 340.418 173.562 336 173.562C331.582 173.562 328 169.981 328 165.562C328 161.144 331.582 157.562 336 157.562C340.418 157.562 344 161.144 344 165.562ZM336 169.562C338.209 169.562 340 167.771 340 165.562C340 163.353 338.209 161.562 336 161.562C333.791 161.562 332 163.353 332 165.562C332 167.771 333.791 169.562 336 169.562Z" fill="white"/>
</g>
</g>
<defs>
<filter id="filter0_d_201_206" x="0" y="0" width="686" height="473" filterUnits="userSpaceOnUse" color-interpolation-filters="sRGB">
<feFlood flood-opacity="0" result="BackgroundImageFix"/>
<feColorMatrix in="SourceAlpha" type="matrix" values="0 0 0 0 0 0 0 0 0 0 0 0 0 0 0 0 0 0 127 0" result="hardAlpha"/>
<feMorphology radius="20" operator="dilate" in="SourceAlpha" result="effect1_dropShadow_201_206"/>
<feOffset dx="10" dy="10"/>
<feGaussianBlur stdDeviation="12.5"/>
<feComposite in2="hardAlpha" operator="out"/>
<feColorMatrix type="matrix" values="0 0 0 0 0 0 0 0 0 0 0 0 0 0 0 0 0 0 0.1 0"/>
<feBlend mode="normal" in2="BackgroundImageFix" result="effect1_dropShadow_201_206"/>
<feBlend mode="normal" in="SourceGraphic" in2="effect1_dropShadow_201_206" result="shape"/>
</filter>
<linearGradient id="paint0_linear_201_206" x1="353.168" y1="167.373" x2="353.168" y2="351.688" gradientUnits="userSpaceOnUse">
<stop stop-color="#3A58EC" stop-opacity="0.12"/>
<stop offset="1" stop-color="#3A58EC" stop-opacity="0.01"/>
</linearGradient>
<clipPath id="clip0_201_206">
<rect x="35" y="35" width="596" height="383" rx="12" fill="white"/>
</clipPath>
</defs>
</svg>
