<svg width="107" height="28" viewBox="0 0 107 28" fill="none" xmlns="http://www.w3.org/2000/svg">
<g clip-path="url(#clip0_87_119)">
<path opacity="0.5" d="M49 0H14C6.26801 0 0 6.26801 0 14C0 21.732 6.26801 28 14 28H49C56.732 28 63 21.732 63 14C63 6.26801 56.732 0 49 0Z" fill="#126FFF"/>
<path d="M93 0H85C77.268 0 71 6.26801 71 14C71 21.732 77.268 28 85 28H93C100.732 28 107 21.732 107 14C107 6.26801 100.732 0 93 0Z" fill="#3957ED"/>
</g>
<defs>
<clipPath id="clip0_87_119">
<rect width="107" height="28" fill="white"/>
</clipPath>
</defs>
</svg>
