<svg width="96" height="55" viewBox="0 0 96 55" fill="none" xmlns="http://www.w3.org/2000/svg">
<path d="M6.65599 37.7588V46.6441H3.45599V37.7588H0.170654V34.9108H10.0373V37.7588H6.65599ZM17.5893 43.0921H12.3413C12.3413 43.8921 12.96 44.5108 13.6747 44.5108C13.76 44.5108 13.76 44.5108 13.856 44.5108C14.656 44.5108 15.456 44.3294 16.1707 43.8921L17.3227 45.8441C16.256 46.4628 15.008 46.8254 13.7707 46.8254C11.104 46.8254 9.68532 44.9588 9.68532 42.2068C9.68532 39.1881 11.3707 37.5881 13.6853 37.5881C16 37.5881 17.6 39.1881 17.6 42.4734C17.5893 42.7401 17.5893 42.9108 17.5893 43.0921ZM13.5893 39.8921C12.8747 39.8921 12.5227 40.3401 12.4373 41.2254H14.9227C14.752 40.3401 14.4853 39.8921 13.5893 39.8921ZM23.2 46.8254C20.6187 46.8254 19.1147 45.2254 19.1147 42.2068C19.1147 39.5401 20.448 37.6734 23.296 37.6734C24.7147 37.5881 26.048 38.3881 26.6773 39.6254L24.6293 41.2254C24.1813 40.4254 23.9147 40.0734 23.296 40.0734C22.6773 40.0734 22.144 40.8734 22.144 42.2068C22.144 43.5401 22.592 44.3401 23.392 44.3401C23.9253 44.3401 24.3733 43.9881 24.9067 43.1881L26.8587 44.7028C25.6853 46.2068 24.8 46.8254 23.2 46.8254ZM33.504 46.6441V41.6628C33.504 40.5108 33.152 40.2441 32.5227 40.2441C31.8933 40.2441 31.456 40.5108 31.456 41.6628V46.6441H28.4373V35.6254L31.456 34.3774V38.3774C32.0747 37.8441 32.8747 37.5774 33.6747 37.5774C35.6267 37.5774 36.5227 38.9108 36.5227 41.2254V46.6441H33.504Z" fill="#0A9600"/>
<path d="M43.8187 46.8254C40.352 46.8254 38.4853 44.2441 38.4853 40.7774C38.4853 37.0441 40.704 34.7294 43.8187 34.7294C46.6667 34.7294 47.8187 35.9774 48.6187 38.1961L45.6853 39.3588C45.2373 38.2921 44.8853 37.5774 43.8187 37.5774C42.4853 37.5774 41.8667 38.9108 41.8667 40.7774C41.8667 42.6441 42.4 43.9774 43.8187 43.9774C44.8853 43.9774 45.2373 43.4441 45.952 42.2921L48.704 43.8068C47.8187 45.7588 45.8667 46.9108 43.8187 46.8254ZM56.0853 41.1401C55.7333 40.6921 55.2 40.4254 54.6667 40.4254C53.952 40.4254 53.5147 40.7774 53.5147 41.8441V46.6441H50.496V37.8441H53.5147V38.4628C54.4 37.5774 55.7333 37.3961 56.8 38.0148L56.0853 41.1401ZM63.296 46.6441V46.0254C62.6773 46.5588 61.8773 46.8254 61.0773 46.8254C59.1253 46.8254 58.2293 45.4921 58.2293 43.1774V37.8441H61.248V42.8254C61.248 43.9774 61.6 44.2441 62.2293 44.2441C62.848 44.2441 63.2107 43.9774 63.2107 42.8254V37.8441H66.2293V46.6441H63.296ZM73.6 46.6441V41.6628C73.6 40.5108 73.248 40.2441 72.6187 40.2441C71.9893 40.2441 71.552 40.5108 71.552 41.6628V46.6441H68.5333V37.8441H71.552V38.4628C72.1707 37.9294 72.9707 37.6628 73.7707 37.6628C75.7227 37.6628 76.6187 38.9961 76.6187 41.3108V46.6441H73.6ZM82.496 46.8254C79.9147 46.8254 78.3147 45.2254 78.3147 42.2068C78.3147 39.5401 79.7333 37.6734 82.496 37.6734C83.9147 37.6734 85.248 38.3881 85.8773 39.6254L83.8293 41.2254C83.3813 40.4254 83.1147 40.0734 82.496 40.0734C81.8773 40.0734 81.344 40.8734 81.344 42.2068C81.344 43.5401 81.792 44.3401 82.592 44.3401C83.1253 44.3401 83.5733 43.9881 84.1067 43.1881L86.0587 44.7028C85.0773 46.2068 84.096 46.8254 82.496 46.8254ZM92.8107 46.6441V41.6628C92.8107 40.5108 92.4587 40.2441 91.8293 40.2441C91.2107 40.2441 90.7627 40.5108 90.7627 41.6628V46.6441H87.744V35.6254L90.7627 34.3774V38.3774C91.3813 37.8441 92.1813 37.5774 92.9813 37.5774C94.9333 37.5774 95.8293 38.9108 95.8293 41.2254V46.6441H92.8107Z" fill="black"/>
<path d="M25.3333 7.34766V14.3663H32.352V28.4997H39.3707V14.377H46.4V7.35832H25.3333V7.34766ZM53.5147 21.3957V14.377H46.496V28.5103H67.6587V21.4917L53.5147 21.3957ZM53.5147 7.34766H67.648V14.3663H53.5147V7.34766Z" fill="#0A9600"/>
</svg>
