<svg width="100" height="28" viewBox="0 0 100 28" fill="none" xmlns="http://www.w3.org/2000/svg">
<g clip-path="url(#clip0_87_112)">
<path d="M14 28C21.732 28 28 21.732 28 14C28 6.26801 21.732 0 14 0C6.26801 0 0 6.26801 0 14C0 21.732 6.26801 28 14 28Z" fill="#3957ED"/>
<path opacity="0.5" d="M50 28C57.732 28 64 21.732 64 14C64 6.26801 57.732 0 50 0C42.268 0 36 6.26801 36 14C36 21.732 42.268 28 50 28Z" fill="#126FFF"/>
<path d="M86 28C93.732 28 100 21.732 100 14C100 6.26801 93.732 0 86 0C78.268 0 72 6.26801 72 14C72 21.732 78.268 28 86 28Z" fill="#3957ED"/>
</g>
<defs>
<clipPath id="clip0_87_112">
<rect width="100" height="28" fill="white"/>
</clipPath>
</defs>
</svg>
