<svg xmlns="http://www.w3.org/2000/svg" width="328.722" height="106.905" viewBox="0 0 328.722 106.905">
    <g id="Grupo_2" data-name="Grupo 2" transform="translate(-231.639 -252.55)">
        <path id="Trazado_1" data-name="Trazado 1" d="M424.274,336.187v1.035h0l22.537,22.233V336.187Z" fill="#2c2c2c"/>
        <path id="Trazado_2" data-name="Trazado 2" d="M239.758,306.961a2.456,2.456,0,0,1-.329,1.409,1.519,1.519,0,0,1-1.317.47h-5.047a1.292,1.292,0,0,1-1.151-.417,2.292,2.292,0,0,1-.275-1.253v-4.833q0-1.564,1.426-1.565h5.267a1.276,1.276,0,0,1,1.426,1.461Zm-.439,48.605a1.746,1.746,0,0,1-.329,1.252,2.208,2.208,0,0,1-1.427.313H233.5a1.786,1.786,0,0,1-1.1-.26,1.213,1.213,0,0,1-.329-.993V319.067a1.363,1.363,0,0,1,.275-.992,1.342,1.342,0,0,1,.932-.26h4.827a1.348,1.348,0,0,1,.933.26,1.373,1.373,0,0,1,.274.992Z" fill="#2c2c2c"/>
        <path id="Trazado_3" data-name="Trazado 3" d="M304.93,318.545q-7.791,5.533-20.956,5.531H264.663q-.985,0-.987.94v30.89q0,1.252-1.317,1.253h-5.705q-1.207,0-1.207-1.148V280.974a1.362,1.362,0,0,1,.275-.991,1.336,1.336,0,0,1,.932-.26h26.223q13.713,0,21.779,5.478t8.064,16.751Q312.72,313.014,304.93,318.545Zm-6.309-29.013q-5.541-3.651-16.073-3.652H264.993q-1.317,0-1.317,1.148v29.535q0,1.251.987,1.251h18.653q9.873,0,15.36-3.913t5.486-12.263Q304.162,293.185,298.621,289.532Z" fill="#2c2c2c"/>
        <path id="Trazado_4" data-name="Trazado 4" d="M323.691,355.906V302.995q0-1.147,1.1-1.148h4.717c.659,0,.988.349.988,1.043v6.889c0,.349.11.557.329.626s.475-.035.768-.313a35.109,35.109,0,0,1,8.668-7.045,17.657,17.657,0,0,1,8.448-2.244,12.419,12.419,0,0,1,3.017.262q.932.261.933.991v4.8c0,.488-.294.731-.878.731q-2.963-.314-4.279-.313a16.677,16.677,0,0,0-7.241,1.931,21.237,21.237,0,0,0-6.639,4.956,9.185,9.185,0,0,0-2.687,6.054v35.691q0,1.252-1.427,1.253h-4.5Q323.691,357.159,323.691,355.906Z" fill="#2c2c2c"/>
        <path id="Trazado_5" data-name="Trazado 5" d="M368.293,354.6a24.735,24.735,0,0,1-9.6-10.019,31.053,31.053,0,0,1-3.4-14.767,32.132,32.132,0,0,1,3.456-15.08,25.035,25.035,0,0,1,9.71-10.28A27.757,27.757,0,0,1,382.72,300.8a27.46,27.46,0,0,1,14.208,3.653,24.859,24.859,0,0,1,9.6,10.227,32.016,32.016,0,0,1,3.4,14.924,31.69,31.69,0,0,1-3.4,14.872,24.579,24.579,0,0,1-9.6,10.123,30.263,30.263,0,0,1-28.635,0Zm28.964-8.141q5.214-6.207,5.214-16.854T397.15,312.6q-5.328-6.363-14.43-6.366-9.213,0-14.592,6.366t-5.376,17.011q0,10.646,5.376,16.854t14.7,6.211Q392.044,352.672,397.257,346.461Z" fill="#2c2c2c"/>
        <g id="Grupo_1" data-name="Grupo 1">
            <path id="Trazado_6" data-name="Trazado 6" d="M550,252.55H434.634a10.39,10.39,0,0,0-10.359,10.36v74.307H550a10.39,10.39,0,0,0,10.36-10.359V262.91A10.391,10.391,0,0,0,550,252.55Zm-60.652,49.761q0,10.416-5.552,15.084t-16.2,4.669q-11.553,0-16.65-5.207t-5.1-15.838V269.341a1.374,1.374,0,0,1,.3-.97.992.992,0,0,1,.756-.323h9.062c.7,0,1.057.384,1.057,1.15v33.4q0,6.033,2.869,8.871t8.534,2.837q11.7,0,11.7-11.924V269.27q0-1.221,1.059-1.222h7.173q.981,0,.982,1.15Zm46.856-6.177q-5.551,4.167-14.763,4.166H509.586q-.756,0-.755.719V319.91q0,1.437-1.662,1.436h-8.155q-1.361,0-1.36-1.293V269.27c0-.814.379-1.222,1.133-1.222h21.372q9.588,0,15.593,4.1t6,12.139Q541.755,291.97,536.205,296.134Z" fill="#2d98da"/>
            <path id="Trazado_7" data-name="Trazado 7" d="M527.408,277.781a13.313,13.313,0,0,0-7.854-2.047h-9.44c-.857,0-1.283.384-1.283,1.15v14.509a1.519,1.519,0,0,0,.226.934.9.9,0,0,0,.755.287h10.2a11.76,11.76,0,0,0,7.513-2.19,7.64,7.64,0,0,0,2.757-6.358Q530.277,279.828,527.408,277.781Z" fill="#2d98da"/>
        </g>
    </g>
</svg>