<svg width="395" height="300" viewBox="0 0 395 300" fill="none" xmlns="http://www.w3.org/2000/svg">
<g clip-path="url(#clip0_1652_7286)">
<g clip-path="url(#clip1_1652_7286)">
<path fill-rule="evenodd" clip-rule="evenodd" d="M126.431 178.737L131.363 167.276C136.69 171.26 143.788 173.33 150.79 173.33C155.96 173.33 159.232 171.339 159.232 168.319C159.153 159.878 128.264 166.486 128.027 145.319C127.948 134.57 137.496 126.286 151.028 126.286C159.074 126.286 167.104 128.278 172.842 132.815L168.226 144.513C162.978 141.162 156.45 138.775 150.237 138.775C146.017 138.775 143.234 140.766 143.234 143.311C143.313 151.595 174.439 147.058 174.755 167.276C174.755 178.262 165.444 185.992 152.071 185.992C142.27 185.977 133.275 183.669 126.431 178.737ZM315.824 163.134C313.358 167.434 308.742 170.374 303.399 170.374C295.511 170.374 289.156 164.004 289.156 156.132C289.156 148.259 295.526 141.889 303.399 141.889C308.726 141.889 313.358 144.829 315.824 149.129L329.434 141.573C324.344 132.499 314.543 126.286 303.399 126.286C286.911 126.286 273.538 139.66 273.538 156.147C273.538 172.635 286.911 186.008 303.399 186.008C314.622 186.008 324.344 179.875 329.434 170.722L315.824 163.134ZM181.6 101.516H198.641V184.87H181.6V101.516ZM336.121 101.516V184.87H353.162V159.862L373.38 184.87H395.194L369.475 155.167L393.282 127.456H372.415L353.146 150.457V101.516H336.121Z" fill="black"/>
<path d="M249.273 163.295C246.807 167.358 241.717 170.377 235.978 170.377C228.09 170.377 221.736 164.007 221.736 156.134C221.736 148.262 228.106 141.892 235.978 141.892C241.717 141.892 246.807 145.069 249.273 149.211V163.295ZM249.273 127.475V134.241C246.491 129.546 239.567 126.273 232.311 126.273C217.341 126.273 205.564 139.489 205.564 156.055C205.564 172.622 217.341 185.995 232.311 185.995C239.551 185.995 246.475 182.739 249.273 178.028V184.794H266.314V127.475H249.273Z" fill="black"/>
<path fill-rule="evenodd" clip-rule="evenodd" d="M21.1033 163.215C21.1033 169.033 16.4084 173.727 10.5912 173.727C4.77389 173.727 0.0789795 169.017 0.0789795 163.215C0.0789795 157.414 4.77389 152.703 10.5912 152.703H21.1033V163.215ZM26.3515 163.215C26.3515 157.398 31.0464 152.703 36.8637 152.703C42.6809 152.703 47.3759 157.398 47.3759 163.215V189.488C47.3759 195.305 42.6809 200 36.8637 200C31.0464 200 26.3515 195.305 26.3515 189.488V163.215Z" fill="#E01E5A"/>
<path fill-rule="evenodd" clip-rule="evenodd" d="M36.8637 121.024C31.0465 121.024 26.3516 116.329 26.3516 110.512C26.3516 104.695 31.0465 100 36.8637 100C42.681 100 47.3759 104.695 47.3759 110.512V121.024H36.8637ZM36.8637 126.352C42.681 126.352 47.3759 131.046 47.3759 136.864C47.3759 142.681 42.681 147.376 36.8637 147.376H10.5122C4.69491 147.376 0 142.665 0 136.864C0 131.062 4.69491 126.352 10.5122 126.352H36.8637Z" fill="#36C5F0"/>
<path fill-rule="evenodd" clip-rule="evenodd" d="M78.9757 136.864C78.9757 131.046 83.6706 126.352 89.4878 126.352C95.3051 126.352 100 131.046 100 136.864C100 142.681 95.3051 147.376 89.4878 147.376H78.9757V136.864ZM73.7275 136.864C73.7275 142.681 69.0326 147.376 63.2153 147.376C57.398 147.376 52.7031 142.681 52.7031 136.864V110.512C52.7031 104.695 57.398 100 63.2153 100C69.0326 100 73.7275 104.695 73.7275 110.512V136.864Z" fill="#2EB67D"/>
<path fill-rule="evenodd" clip-rule="evenodd" d="M63.2153 178.976C69.0326 178.976 73.7275 183.671 73.7275 189.488C73.7275 195.305 69.0326 200 63.2153 200C57.398 200 52.7031 195.305 52.7031 189.488V178.976H63.2153ZM63.2153 173.727C57.398 173.727 52.7031 169.033 52.7031 163.215C52.7031 157.398 57.398 152.703 63.2153 152.703H89.5669C95.3841 152.703 100.079 157.398 100.079 163.215C100.079 169.033 95.3841 173.727 89.5669 173.727H63.2153Z" fill="#ECB22E"/>
</g>
</g>
<defs>
<clipPath id="clip0_1652_7286">
<rect width="395" height="300" fill="white"/>
</clipPath>
<clipPath id="clip1_1652_7286">
<rect width="395.194" height="100" fill="white" transform="translate(0 100)"/>
</clipPath>
</defs>
</svg>
