<svg width="535" height="300" viewBox="0 0 535 300" fill="none" xmlns="http://www.w3.org/2000/svg">
<path d="M36.2429 165.948C36.2429 171.694 37.5042 176.111 39.1511 178.78C41.3102 182.276 44.5323 183.76 47.8151 183.76C52.0507 183.76 55.9227 182.707 63.3915 172.367C69.3731 164.079 76.4232 152.448 81.1656 145.153L89.1961 132.795C94.7757 124.214 101.231 114.674 108.639 108.211C114.681 102.934 121.203 100 127.768 100C138.784 100 149.282 106.391 157.313 118.38C166.103 131.51 170.372 148.048 170.372 165.115C170.372 175.262 168.373 182.718 164.974 188.607C161.692 194.304 155.291 199.994 144.523 199.994V183.754C153.744 183.754 156.04 175.273 156.04 165.567C156.04 151.737 152.818 136.385 145.724 125.416C140.69 117.635 134.163 112.882 126.981 112.882C119.214 112.882 112.968 118.744 105.946 129.199C102.211 134.752 98.3779 141.524 94.0762 149.162L89.3393 157.566C79.8216 174.462 77.4092 178.306 72.6558 184.659C64.3168 195.776 57.1951 199.994 47.8206 199.994C36.7 199.994 29.6664 195.175 25.3096 187.907C21.746 181.99 20 174.22 20 165.363L36.2429 165.948Z" fill="#0081FB"/>
<path d="M32.8058 119.527C40.2526 108.035 50.9985 100 63.3253 100C70.4636 100 77.5578 102.118 84.966 108.173C93.0736 114.795 101.71 125.698 112.489 143.675L116.356 150.127C125.686 165.689 130.99 173.69 134.097 177.468C138.09 182.315 140.888 183.76 144.523 183.76C153.743 183.76 156.04 175.278 156.04 165.573L170.366 165.121C170.366 175.267 168.367 182.723 164.969 188.613C161.686 194.309 155.286 200 144.518 200C137.826 200 131.894 198.544 125.339 192.351C120.299 187.598 114.406 179.155 109.873 171.562L96.3894 149.007C89.6257 137.686 83.4182 129.249 79.8215 125.427C75.955 121.319 70.9923 116.356 63.0609 116.356C56.6442 116.356 51.1968 120.861 46.6363 127.76L32.8058 119.527Z" fill="url(#paint0_linear_1652_7094)"/>
<path d="M63.061 116.351C56.6443 116.351 51.1969 120.856 46.6364 127.754C40.1866 137.499 36.2429 152.007 36.2429 165.948C36.2429 171.694 37.5042 176.111 39.1511 178.78L25.3041 187.912C21.746 181.99 20 174.22 20 165.363C20 149.267 24.4119 132.486 32.8059 119.527C40.2527 108.035 50.9986 100 63.3254 100L63.061 116.351Z" fill="url(#paint1_linear_1652_7094)"/>
<path d="M201.939 103.164H220.726L252.672 161.022L284.624 103.164H303.004V198.24H287.675V125.371L259.656 175.829H245.275L217.262 125.371V198.234H201.933V103.164H201.939ZM351.027 138.611C340.033 138.611 333.418 146.894 331.832 157.151H369.137C368.366 146.585 362.28 138.611 351.027 138.611ZM316.636 162.991C316.636 141.413 330.565 125.707 351.292 125.707C371.682 125.707 383.854 141.214 383.854 164.143V168.356H331.832C333.677 179.512 341.074 187.029 352.993 187.029C362.506 187.029 368.449 184.122 374.089 178.806L382.23 188.788C374.557 195.852 364.803 199.922 352.448 199.922C330.009 199.933 316.636 183.549 316.636 162.991ZM402.438 139.973H388.332V127.411H402.438V106.633H417.227V127.411H438.658V139.973H417.227V171.82C417.227 182.694 420.697 186.554 429.234 186.554C433.128 186.554 435.365 186.218 438.664 185.672V198.102C434.555 199.265 430.633 199.8 426.387 199.8C410.425 199.8 402.444 191.065 402.444 173.59L402.438 139.973ZM500.925 152.193C497.957 144.688 491.331 139.157 481.593 139.157C468.941 139.157 460.839 148.146 460.839 162.787C460.839 177.064 468.297 186.488 480.987 186.488C490.962 186.488 498.083 180.676 500.925 173.446V152.193ZM515.714 198.234H501.201V188.319C497.142 194.159 489.761 199.933 477.803 199.933C458.569 199.933 445.719 183.814 445.719 162.787C445.719 141.562 458.883 125.707 478.618 125.707C488.378 125.707 496.029 129.612 501.201 136.51V127.411H515.714V198.234Z" fill="#192830"/>
<defs>
<linearGradient id="paint0_linear_1652_7094" x1="52.5958" y1="147.403" x2="156.131" y2="152.626" gradientUnits="userSpaceOnUse">
<stop stop-color="#0064E1"/>
<stop offset="0.4" stop-color="#0064E1"/>
<stop offset="0.83" stop-color="#0073EE"/>
<stop offset="1" stop-color="#0082FB"/>
</linearGradient>
<linearGradient id="paint1_linear_1652_7094" x1="41.6616" y1="172.773" x2="41.6616" y2="134.556" gradientUnits="userSpaceOnUse">
<stop stop-color="#0082FB"/>
<stop offset="1" stop-color="#0064E0"/>
</linearGradient>
</defs>
</svg>
