<svg width="461" height="300" viewBox="0 0 461 300" fill="none" xmlns="http://www.w3.org/2000/svg">
<g clip-path="url(#clip0_1652_7253)">
<path d="M182.555 156.549L174.679 135.317C174.357 134.449 173.129 134.449 172.807 135.317L164.932 156.55C164.876 156.701 164.857 156.864 164.878 157.023C164.898 157.183 164.957 157.335 165.049 157.467C165.141 157.599 165.263 157.707 165.406 157.782C165.549 157.856 165.707 157.895 165.868 157.895H181.619C181.78 157.895 181.938 157.856 182.081 157.782C182.224 157.707 182.346 157.599 182.438 157.467C182.53 157.335 182.589 157.182 182.609 157.023C182.629 156.863 182.61 156.701 182.554 156.55M186.194 168.483H161.294C161.09 168.483 160.892 168.546 160.724 168.662C160.557 168.778 160.429 168.943 160.359 169.134L155.457 182.345C155.386 182.536 155.258 182.7 155.091 182.817C154.924 182.933 154.725 182.996 154.521 182.996H143.729C143.566 182.996 143.405 182.955 143.261 182.879C143.117 182.802 142.994 182.692 142.902 182.557C142.811 182.422 142.754 182.266 142.737 182.104C142.719 181.942 142.742 181.778 142.803 181.626L167.649 119.729C167.724 119.544 167.852 119.386 168.017 119.274C168.182 119.163 168.377 119.103 168.576 119.104H178.91C179.317 119.104 179.684 119.351 179.836 119.729L204.682 181.625C204.743 181.777 204.766 181.941 204.749 182.104C204.732 182.266 204.675 182.422 204.583 182.557C204.492 182.692 204.369 182.803 204.225 182.88C204.08 182.956 203.919 182.996 203.756 182.996H192.966C192.762 182.996 192.563 182.934 192.396 182.817C192.229 182.701 192.101 182.536 192.03 182.345L187.128 169.134C187.057 168.943 186.929 168.778 186.762 168.662C186.595 168.546 186.396 168.483 186.192 168.483M209.739 140.826H218.969C219.234 140.826 219.488 140.931 219.675 141.119C219.862 141.306 219.967 141.56 219.967 141.824V181.997C219.967 182.262 219.862 182.516 219.675 182.703C219.488 182.89 219.234 182.996 218.969 182.996H209.739C209.474 182.996 209.22 182.89 209.033 182.703C208.846 182.516 208.741 182.262 208.741 181.997V141.824C208.741 141.559 208.846 141.305 209.033 141.118C209.22 140.931 209.474 140.826 209.739 140.826ZM253.631 150.598C253.631 150.863 253.526 151.117 253.339 151.304C253.152 151.491 252.898 151.597 252.633 151.597H252.354C247.79 151.597 244.442 152.692 242.313 154.882C240.182 157.073 239.119 160.694 239.119 165.744V181.997C239.119 182.262 239.014 182.516 238.827 182.703C238.639 182.89 238.386 182.996 238.121 182.996H228.981C228.716 182.996 228.462 182.89 228.275 182.703C228.088 182.516 227.983 182.262 227.983 181.997V141.824C227.983 141.559 228.088 141.305 228.275 141.118C228.462 140.931 228.716 140.826 228.981 140.826H238.029C238.294 140.826 238.548 140.931 238.735 141.118C238.922 141.305 239.027 141.559 239.027 141.824V149.77H239.21C240.305 146.484 242.039 143.96 244.414 142.194C246.786 140.43 249.707 139.547 253.175 139.547H253.631V150.598ZM278.87 150.227C278.605 150.227 278.352 150.332 278.164 150.519C277.977 150.707 277.872 150.961 277.872 151.225V167.935C277.872 169.639 278.205 170.856 278.876 171.586C279.544 172.316 280.701 172.681 282.344 172.681H283.263C283.527 172.681 283.781 172.786 283.968 172.973C284.155 173.161 284.261 173.415 284.261 173.679V182.088C284.261 182.353 284.155 182.607 283.968 182.794C283.781 182.981 283.527 183.086 283.263 183.086H279.331C275.254 183.086 272.121 182.037 269.93 179.937C267.739 177.838 266.644 174.721 266.644 170.582V151.225C266.644 150.961 266.539 150.707 266.352 150.519C266.165 150.332 265.911 150.227 265.646 150.227H259.884C259.62 150.227 259.366 150.122 259.178 149.935C258.991 149.748 258.886 149.494 258.886 149.229V141.824C258.886 141.559 258.991 141.305 259.178 141.118C259.366 140.931 259.62 140.826 259.884 140.826H265.647C265.911 140.826 266.165 140.72 266.352 140.533C266.54 140.346 266.645 140.092 266.645 139.828V124.938C266.645 124.673 266.75 124.419 266.937 124.232C267.124 124.045 267.378 123.94 267.643 123.94H276.873C277.138 123.94 277.392 124.045 277.579 124.232C277.766 124.419 277.871 124.673 277.871 124.938V139.828C277.871 140.092 277.977 140.346 278.164 140.533C278.351 140.72 278.605 140.826 278.87 140.826H285.544C285.809 140.826 286.063 140.931 286.25 141.118C286.437 141.305 286.542 141.559 286.542 141.824V149.23C286.542 149.494 286.437 149.748 286.25 149.935C286.063 150.123 285.809 150.228 285.544 150.228L278.87 150.227ZM321.137 170.491C323.237 168.3 324.286 165.44 324.286 161.91C324.286 158.382 323.237 155.521 321.137 153.331C319.038 151.14 316.284 150.045 312.876 150.045C309.468 150.045 306.716 151.14 304.616 153.331C302.517 155.521 301.467 158.382 301.467 161.91C301.467 165.44 302.517 168.3 304.616 170.491C306.716 172.681 309.468 173.776 312.876 173.776C316.284 173.776 319.038 172.681 321.137 170.491ZM299.824 181.717C296.721 179.953 294.271 177.382 292.477 174.005C290.681 170.628 289.784 166.597 289.784 161.91C289.784 157.226 290.681 153.193 292.477 149.817C294.271 146.44 296.721 143.87 299.824 142.104C302.928 140.339 306.335 139.457 310.047 139.457C313.333 139.457 316.147 140.096 318.491 141.373C320.832 142.651 322.703 144.447 324.104 146.759H324.286V141.824C324.286 141.559 324.391 141.305 324.578 141.118C324.765 140.931 325.019 140.826 325.284 140.826H334.423C334.688 140.826 334.942 140.931 335.129 141.118C335.316 141.305 335.421 141.559 335.421 141.824V181.997C335.421 182.261 335.316 182.515 335.129 182.703C334.942 182.89 334.688 182.995 334.423 182.995H325.284C325.019 182.995 324.765 182.89 324.578 182.703C324.391 182.515 324.286 182.261 324.286 181.997V177.062H324.104C322.703 179.376 320.832 181.17 318.49 182.447C316.147 183.725 313.333 184.364 310.047 184.364C306.335 184.364 302.928 183.481 299.824 181.717ZM373.431 170.491C375.531 168.3 376.58 165.44 376.58 161.91C376.58 158.382 375.531 155.521 373.431 153.331C371.333 151.14 368.578 150.045 365.171 150.045C361.763 150.045 359.01 151.14 356.911 153.331C354.812 155.521 353.761 158.382 353.761 161.91C353.761 165.44 354.812 168.3 356.911 170.491C359.01 172.681 361.763 173.776 365.171 173.776C368.578 173.776 371.333 172.681 373.431 170.491ZM359.558 182.447C357.215 181.17 355.343 179.376 353.944 177.062H353.761V181.997C353.761 182.261 353.656 182.515 353.469 182.703C353.282 182.89 353.028 182.995 352.763 182.995H343.533C343.268 182.995 343.014 182.89 342.827 182.703C342.64 182.515 342.535 182.261 342.535 181.997V120.1C342.535 119.835 342.64 119.581 342.827 119.394C343.014 119.207 343.268 119.102 343.533 119.102H352.763C353.028 119.102 353.282 119.207 353.469 119.394C353.656 119.581 353.761 119.835 353.761 120.1V146.758H353.944C355.343 144.446 357.215 142.651 359.558 141.373C361.9 140.095 364.714 139.456 368.001 139.456C371.712 139.456 375.12 140.339 378.223 142.103C381.327 143.869 383.776 146.439 385.571 149.815C387.365 153.194 388.264 157.226 388.264 161.911C388.264 166.597 387.365 170.628 385.572 174.005C383.776 177.382 381.328 179.954 378.224 181.717C375.121 183.482 371.713 184.365 368.002 184.365C364.715 184.365 361.9 183.726 359.558 182.448M403.816 182.996H394.586C394.321 182.996 394.067 182.89 393.88 182.703C393.693 182.516 393.588 182.262 393.588 181.997V120.102C393.588 119.837 393.693 119.583 393.88 119.396C394.067 119.209 394.321 119.104 394.586 119.104H403.816C404.081 119.104 404.335 119.209 404.522 119.396C404.709 119.583 404.814 119.837 404.814 120.102V181.997C404.814 182.262 404.709 182.516 404.522 182.703C404.335 182.89 404.081 182.996 403.816 182.996ZM425.59 150.593C424.059 151.787 423.026 153.51 422.491 155.765C422.344 156.386 422.829 156.982 423.468 156.982H441.034C441.644 156.982 442.123 156.437 442.024 155.835C441.673 153.703 440.759 152.002 439.281 150.73C437.547 149.24 435.279 148.494 432.48 148.494C429.681 148.494 427.383 149.194 425.59 150.593ZM448.089 145.344C451.679 149.27 453.474 154.823 453.474 162.002V163.194C453.474 163.459 453.369 163.713 453.182 163.9C452.994 164.087 452.741 164.193 452.476 164.193H423.129C422.983 164.193 422.838 164.225 422.706 164.287C422.573 164.349 422.456 164.439 422.362 164.551C422.268 164.663 422.199 164.794 422.161 164.935C422.123 165.076 422.116 165.224 422.141 165.368C422.61 168.035 423.79 170.153 425.681 171.723C427.84 173.52 430.564 174.416 433.85 174.416C438.092 174.416 442.018 172.76 445.629 169.449C446.07 169.044 446.769 169.13 447.111 169.622L451.599 176.063C451.739 176.263 451.802 176.508 451.773 176.751C451.745 176.994 451.629 177.219 451.446 177.382C449.243 179.31 446.795 180.937 444.164 182.22C441.242 183.649 437.804 184.365 433.85 184.365C429.287 184.365 425.299 183.436 421.893 181.581C418.484 179.726 415.837 177.109 413.952 173.731C412.065 170.354 411.122 166.445 411.122 162.002C411.122 157.561 412.035 153.637 413.86 150.228C415.686 146.821 418.241 144.174 421.528 142.287C424.814 140.402 428.647 139.458 433.029 139.458C439.476 139.458 444.498 141.421 448.089 145.344ZM221.173 125.975C221.173 129.739 218.121 132.792 214.355 132.792C210.589 132.792 207.537 129.739 207.537 125.974C207.537 122.208 210.59 119.156 214.355 119.156C218.121 119.156 221.173 122.209 221.173 125.975Z" fill="#333333"/>
<path d="M53.5669 101.103L9.67689 119.264C7.23619 120.274 7.26148 123.741 9.71748 124.715L53.7904 142.192C57.6628 143.728 61.9752 143.728 65.8475 142.192L109.921 124.714C112.377 123.741 112.403 120.274 109.961 119.264L66.0724 101.102C62.0683 99.4452 57.5703 99.4452 53.5662 101.102" fill="#FCB400"/>
<path d="M63.7295 151.74V195.401C63.7295 197.477 65.8235 198.9 67.7538 198.135L116.865 179.072C117.412 178.855 117.882 178.478 118.213 177.991C118.544 177.504 118.721 176.928 118.721 176.339V132.678C118.721 130.601 116.627 129.179 114.697 129.944L65.586 149.007C65.0383 149.224 64.5686 149.601 64.2376 150.088C63.9066 150.575 63.7296 151.15 63.7295 151.74Z" fill="#18BFFF"/>
<path d="M52.2613 153.988L37.6863 161.025L36.2065 161.74L5.43957 176.482C3.48994 177.423 1 176.002 1 173.835V132.856C1 132.072 1.4019 131.395 1.94088 130.886C2.16199 130.666 2.41284 130.478 2.68613 130.327C3.42074 129.886 4.46941 129.768 5.36105 130.121L52.0164 148.607C54.3879 149.548 54.5743 152.87 52.2613 153.988Z" fill="#F82B60"/>
<path d="M52.2614 153.988L37.6864 161.025L1.94092 130.885C2.16207 130.665 2.41292 130.478 2.68617 130.327C3.42077 129.886 4.46945 129.768 5.36109 130.121L52.0165 148.607C54.388 149.548 54.5743 152.87 52.2614 153.988Z" fill="black" fill-opacity="0.25"/>
</g>
<defs>
<clipPath id="clip0_1652_7253">
<rect width="459.559" height="100" fill="white" transform="translate(1 100)"/>
</clipPath>
</defs>
</svg>
