<svg width="395" height="300" viewBox="0 0 395 300" fill="none" xmlns="http://www.w3.org/2000/svg">
<g clip-path="url(#clip0_1652_6753)">
<path d="M70.428 194.33C70.4268 195.833 69.8325 197.274 68.7756 198.336C67.7187 199.399 66.2855 199.997 64.7908 199.998H4.64166C3.14695 199.998 1.71333 199.401 0.655577 198.34C-0.40218 197.278 -0.997618 195.837 -0.999998 194.335V105.821C-1.00059 105.076 -0.855067 104.338 -0.571757 103.649C-0.288446 102.961 0.127092 102.335 0.651086 101.808C1.17508 101.282 1.79725 100.864 2.48199 100.579C3.16673 100.294 3.90062 100.148 4.64166 100.148H43.2439L70.428 128.021V194.33Z" fill="#23A566"/>
<path d="M46.2356 127.3L70.4282 150.549V127.865H48.998C48.0624 127.876 47.1401 127.642 46.3209 127.188L46.2356 127.3Z" fill="#1C8F5A"/>
<path d="M70.4282 127.981H48.9397C47.4449 127.98 46.0118 127.383 44.9549 126.32C43.898 125.257 43.3037 123.816 43.3025 122.314V100L70.4282 127.981Z" fill="#8ED1B1"/>
<path fill-rule="evenodd" clip-rule="evenodd" d="M53.2291 181.606H16.0598V149.203H53.2291V181.606ZM36.9555 153.877V159.549H48.661V153.886L36.9555 153.877ZM36.9555 163.122V168.541H48.661V163.094L36.9555 163.122ZM36.9555 171.995V177.013H48.661V171.968L36.9555 171.995ZM32.3604 176.986V171.968H20.6594V176.986H32.3604ZM32.3604 168.482V163.094H20.6594V168.509L32.3604 168.482ZM32.3604 159.608V153.877H20.6594V159.549L32.3604 159.608Z" fill="white"/>
<path d="M153.661 151.303C153.661 146.81 150.275 143.738 146.344 143.738C142.414 143.738 139.025 146.81 139.025 151.303C139.025 155.751 142.414 158.868 146.344 158.868C150.275 158.868 153.661 155.745 153.661 151.303ZM159.359 151.303C159.359 158.491 153.516 163.79 146.342 163.79C139.171 163.79 133.327 158.491 133.327 151.303C133.327 144.064 139.171 138.817 146.344 138.817C153.516 138.817 159.359 144.064 159.359 151.303ZM181.737 151.303C181.737 146.81 178.351 143.738 174.421 143.738C170.49 143.738 167.104 146.81 167.104 151.303C167.104 155.751 170.49 158.868 174.421 158.868C178.351 158.868 181.737 155.745 181.737 151.303ZM187.435 151.303C187.435 158.491 181.592 163.79 174.421 163.79C167.25 163.79 161.403 158.491 161.403 151.303C161.403 144.069 167.25 138.817 174.421 138.817C181.592 138.817 187.435 144.064 187.435 151.303ZM209.339 151.346C209.339 146.95 206.29 143.735 202.414 143.735C198.48 143.735 195.189 146.95 195.189 151.346C195.189 155.7 198.48 158.868 202.411 158.868C206.29 158.868 209.339 155.697 209.339 151.346ZM214.346 139.57V161.988C214.346 171.209 208.694 174.977 202.014 174.977C199.586 175.017 197.201 174.34 195.155 173.031C193.11 171.722 191.496 169.839 190.515 167.618L195.474 165.631C196.359 167.664 198.523 170.062 202.011 170.062C206.285 170.062 208.934 167.521 208.934 162.742V160.944H208.734C207.461 162.459 205.003 163.784 201.903 163.784C195.417 163.784 189.473 158.346 189.473 151.349C189.473 144.298 195.417 138.817 201.903 138.817C204.997 138.817 207.455 140.139 208.737 141.609H208.937V139.576H214.346V139.57ZM223.267 126.425H217.709V163.022H223.265L223.267 126.425ZM231.309 150.915L242.905 146.282C242.268 144.72 240.347 143.636 238.092 143.636C235.194 143.636 231.164 146.096 231.309 150.915ZM244.923 155.405L249.345 158.243C248.128 159.974 246.508 161.383 244.624 162.348C242.741 163.312 240.65 163.803 238.534 163.778C231.164 163.778 225.66 158.297 225.66 151.292C225.66 143.867 231.212 138.805 237.898 138.805C244.629 138.805 247.924 143.961 249.003 146.747L249.591 148.166L232.246 155.08C233.573 157.586 235.64 158.863 238.534 158.863C241.438 158.863 243.447 157.489 244.923 155.405ZM112.291 148.049V142.751H130.841C131.02 143.673 131.115 144.766 131.115 145.948C131.115 149.922 129.987 154.837 126.347 158.337C122.807 161.886 118.286 163.778 112.296 163.778C101.192 163.778 91.8567 155.071 91.8567 144.389C91.8567 133.707 101.192 125 112.296 125C118.44 125 122.813 127.318 126.102 130.341L122.219 134.081C119.861 131.951 116.667 130.298 112.291 130.298C104.183 130.298 97.843 136.584 97.843 144.389C97.843 152.194 104.183 158.48 112.291 158.48C117.549 158.48 120.544 156.447 122.462 154.6C124.021 153.102 125.043 150.964 125.448 148.043L112.291 148.049ZM282.939 155.334C282.939 158.226 281.877 160.55 279.756 162.302C277.601 164.027 274.989 164.889 271.912 164.889C269.171 164.889 266.759 164.09 264.666 162.488C262.574 160.889 261.127 158.703 260.327 155.934L264.39 154.275C264.666 155.257 265.049 156.151 265.543 156.95C266.034 157.749 266.605 158.443 267.25 159.028C267.926 159.582 268.666 160.027 269.465 160.364C270.264 160.672 271.109 160.827 272.003 160.827C273.941 160.827 275.526 160.336 276.756 159.351C277.986 158.334 278.603 156.996 278.603 155.334C278.603 153.95 278.095 152.765 277.079 151.783C276.125 150.829 274.341 149.904 271.726 149.014C269.08 148.06 267.435 147.415 266.787 147.073C263.282 145.291 261.526 142.659 261.526 139.182C261.526 136.753 262.497 134.677 264.435 132.953C266.405 131.232 268.82 130.37 271.68 130.37C274.204 130.37 276.388 131.015 278.232 132.308C280.079 133.57 281.309 135.154 281.926 137.061L277.958 138.723C277.584 137.486 276.802 136.412 275.74 135.677C274.664 134.846 273.342 134.429 271.772 134.429C270.11 134.429 268.712 134.892 267.575 135.814C266.433 136.676 265.863 137.798 265.863 139.182C265.863 140.324 266.311 141.306 267.204 142.137C268.189 142.965 270.327 143.952 273.619 145.091C276.97 146.228 279.357 147.629 280.77 149.288C282.217 150.921 282.939 152.936 282.939 155.334ZM287.313 131.106H291.558V141.537L291.372 144.677H291.558C292.203 143.567 293.188 142.645 294.512 141.908C295.795 141.188 297.24 140.806 298.712 140.798C301.478 140.798 303.602 141.597 305.078 143.196C306.585 144.766 307.339 147.013 307.339 149.933V164.149H303.094V150.767C303.094 146.704 301.295 144.675 297.695 144.675C295.971 144.675 294.512 145.397 293.311 146.844C292.148 148.242 291.526 150.011 291.558 151.829V164.149H287.313V131.106ZM322.477 164.889C319.154 164.889 316.417 163.747 314.261 161.472C312.109 159.197 311.033 156.319 311.033 152.842C311.033 149.396 312.077 146.536 314.17 144.261C316.262 141.951 318.937 140.798 322.2 140.798C325.552 140.798 328.215 141.891 330.182 144.075C332.183 146.228 333.182 149.259 333.182 153.165L333.137 153.627H315.369C315.432 155.842 316.168 157.626 317.584 158.98C319 160.333 320.693 161.012 322.66 161.012C325.369 161.012 327.49 159.659 329.029 156.95L332.814 158.797C331.844 160.655 330.373 162.206 328.569 163.273C326.782 164.349 324.752 164.889 322.477 164.889ZM315.691 150.121H328.66C328.616 149.378 328.421 148.651 328.088 147.985C327.755 147.319 327.29 146.727 326.722 146.245C325.583 145.197 324.044 144.675 322.106 144.675C320.507 144.675 319.123 145.166 317.952 146.151C316.816 147.135 316.063 148.463 315.691 150.121ZM347.444 164.889C344.121 164.889 341.381 163.747 339.229 161.472C337.076 159.197 335.997 156.319 335.997 152.842C335.997 149.396 337.045 146.536 339.137 144.261C341.23 141.951 343.905 140.798 347.167 140.798C350.519 140.798 353.179 141.891 355.149 144.075C357.15 146.228 358.15 149.259 358.15 153.165L358.104 153.627H340.336C340.399 155.842 341.135 157.626 342.551 158.98C343.967 160.333 345.657 161.012 347.627 161.012C350.336 161.012 352.457 159.659 353.996 156.95L357.781 158.797C356.811 160.656 355.339 162.207 353.533 163.273C351.749 164.349 349.72 164.889 347.444 164.889ZM340.659 150.121H353.628C353.583 149.378 353.388 148.651 353.055 147.985C352.722 147.319 352.257 146.727 351.689 146.245C350.55 145.197 349.012 144.675 347.073 144.675C345.475 144.675 344.09 145.166 342.92 146.151C341.783 147.135 341.027 148.463 340.659 150.121ZM370.308 164.518C368.464 164.518 366.925 163.947 365.695 162.811C364.493 161.672 363.879 160.087 363.848 158.058V145.411H359.879V141.537H363.848V134.615H368.092V141.537H373.631V145.414H368.092V156.673C368.092 158.18 368.387 159.214 368.972 159.765C369.554 160.287 370.216 160.55 370.956 160.55C371.293 160.55 371.615 160.521 371.923 160.458C372.263 160.364 372.569 160.258 372.846 160.136L374.184 163.918C373.077 164.318 371.786 164.518 370.308 164.518ZM395.426 157.872C395.426 159.842 394.564 161.503 392.843 162.856C391.119 164.209 388.949 164.889 386.334 164.889C384.059 164.889 382.058 164.304 380.336 163.133C378.65 161.982 377.361 160.338 376.645 158.426L380.428 156.813C380.981 158.166 381.781 159.228 382.828 159.996C383.905 160.735 385.072 161.103 386.334 161.103C387.69 161.103 388.812 160.812 389.703 160.227C390.628 159.642 391.087 158.951 391.087 158.149C391.087 156.704 389.98 155.642 387.764 154.966L383.89 153.995C379.488 152.89 377.29 150.767 377.29 147.629C377.29 145.568 378.121 143.921 379.782 142.691C381.475 141.429 383.628 140.798 386.243 140.798C388.241 140.798 390.042 141.275 391.641 142.228C393.274 143.182 394.41 144.461 395.058 146.059L391.273 147.629C390.837 146.671 390.088 145.889 389.149 145.414C388.167 144.853 387.051 144.566 385.92 144.583C384.813 144.583 383.813 144.86 382.92 145.411C382.058 145.968 381.627 146.644 381.627 147.444C381.627 148.737 382.843 149.659 385.275 150.213L388.689 151.089C393.18 152.197 395.426 154.458 395.426 157.872Z" fill="#787879"/>
</g>
<defs>
<clipPath id="clip0_1652_6753">
<rect width="395" height="300" fill="white"/>
</clipPath>
</defs>
</svg>
