<svg width="347" height="300" viewBox="0 0 347 300" fill="none" xmlns="http://www.w3.org/2000/svg">
<g clip-path="url(#clip0_1652_7271)">
<mask id="mask0_1652_7271" style="mask-type:luminance" maskUnits="userSpaceOnUse" x="5" y="80" width="337" height="140">
<path d="M5.04468 80.5078H341.302V219.987H5.04468V80.5078Z" fill="white"/>
</mask>
<g mask="url(#mask0_1652_7271)">
<path fill-rule="evenodd" clip-rule="evenodd" d="M40.143 143.249C32.8962 140.569 28.9248 138.484 28.9248 135.208C28.9248 132.428 31.2083 130.84 35.2788 130.84C42.7243 130.84 50.3679 133.719 55.6297 136.299L58.6079 117.934C54.4384 115.949 45.9006 112.673 34.0875 112.673C25.7485 112.673 18.7988 114.856 13.8356 118.927C8.67289 123.195 5.99249 129.351 5.99249 136.796C5.99249 150.297 14.2325 156.055 27.6344 160.92C36.2713 163.997 39.1505 166.181 39.1505 169.556C39.1505 172.833 36.3703 174.718 31.3073 174.718C25.0531 174.718 14.7291 171.641 7.97822 167.671L5 186.234C10.7576 189.511 21.4792 192.886 32.5984 192.886C41.4333 192.886 48.7798 190.801 53.7437 186.83C59.3026 182.462 62.1818 176.01 62.1818 167.671C62.1818 153.871 53.7437 148.113 40.143 143.249ZM110.665 132.428L113.643 114.162H97.9204V91.9873L76.781 95.4659L73.7283 114.162L66.2932 115.368L63.51 132.428H73.6978V168.266C73.6978 177.598 76.0803 184.051 80.9445 188.021C85.015 191.297 90.8717 192.886 99.1116 192.886C105.465 192.886 109.337 191.794 112.017 191.099V171.74C110.528 172.138 107.153 172.833 104.869 172.833C100.005 172.833 97.9204 170.351 97.9204 164.692V132.428H110.665ZM157.882 113.095C150.933 113.095 145.373 116.743 143.189 123.295L141.7 114.162H120.158V191.396H144.777V141.263C147.855 137.491 152.223 136.127 158.179 136.127C159.47 136.127 160.86 136.127 162.548 136.425V113.69C160.86 113.294 159.371 113.095 157.882 113.095ZM180.914 106.517C188.061 106.517 193.819 100.661 193.819 93.5129C193.819 86.2654 188.061 80.5078 180.914 80.5078C173.666 80.5078 167.908 86.2654 167.908 93.5129C167.908 100.661 173.666 106.517 180.914 106.517ZM168.504 114.162H193.223V191.396H168.504V114.162ZM263.273 121.111C258.905 115.452 252.849 112.673 245.106 112.673C237.958 112.673 231.704 115.651 225.847 121.905L224.556 114.162H202.914V219.987L227.535 215.918V191.099C231.306 192.29 235.178 192.886 238.653 192.886C244.808 192.886 253.743 191.297 260.692 183.753C267.343 176.505 270.719 165.288 270.719 150.496C270.719 137.392 268.236 127.465 263.273 121.111ZM242.822 168.762C240.837 172.535 237.76 174.52 234.186 174.52C231.704 174.52 229.52 174.024 227.535 173.031V136.299C231.704 131.932 235.476 131.435 236.866 131.435C243.12 131.435 246.198 138.186 246.198 151.389C246.198 158.934 245.106 164.791 242.822 168.762ZM341.302 152.084C341.302 139.774 338.622 130.045 333.36 123.195C327.999 116.246 319.958 112.673 309.733 112.673C288.786 112.673 275.782 128.159 275.782 152.977C275.782 166.876 279.256 177.3 286.106 183.951C292.261 189.907 301.097 192.886 312.513 192.886C323.036 192.886 332.765 190.404 338.92 186.334L336.239 169.457C330.183 172.733 323.135 174.52 315.193 174.52C310.428 174.52 307.152 173.527 304.769 171.442C302.188 169.259 300.699 165.685 300.203 160.622H341.005C341.104 159.431 341.302 153.871 341.302 152.084ZM300.004 145.532C300.699 134.513 303.677 129.351 309.336 129.351C314.895 129.351 317.775 134.612 318.171 145.532H300.004Z" fill="#1A1918"/>
</g>
</g>
<defs>
<clipPath id="clip0_1652_7271">
<rect width="336.538" height="140" fill="white" transform="translate(5 80)"/>
</clipPath>
</defs>
</svg>
