<svg width="327" height="300" viewBox="0 0 327 300" fill="none" xmlns="http://www.w3.org/2000/svg">
<g clip-path="url(#clip0_1652_7361)">
<path d="M308.309 121.297V189.884L298.817 199.15V132.031L308.309 121.297Z" fill="#E79225"/>
<path d="M246.105 121.353L236.275 132.031L236.783 132.709L298.422 132.483L298.987 132.031L308.309 121.297L246.105 121.353Z" fill="#FFF16D"/>
<path d="M236.275 132.031H298.987V199.206H236.275V132.031Z" fill="url(#paint0_linear_1652_7361)"/>
<path d="M289.439 156.216C288.196 153.109 286.331 150.284 283.902 147.855C281.586 145.482 278.987 143.674 276.049 142.488C273.167 141.301 270.06 140.68 266.67 140.68C263.28 140.68 260.117 141.301 257.235 142.488C254.297 143.674 251.699 145.482 249.382 147.855C246.953 150.284 245.145 153.109 243.902 156.216C242.659 159.324 242.094 162.714 242.094 166.442C242.094 170.058 242.715 173.448 243.958 176.612C245.201 179.776 247.009 182.601 249.439 185.086C251.699 187.403 254.297 189.154 257.179 190.341C260.06 191.527 263.28 192.149 266.727 192.149C270.06 192.149 273.167 191.527 276.049 190.341C278.93 189.154 281.586 187.403 283.902 185.086C286.331 182.601 288.196 179.776 289.439 176.668C290.682 173.561 291.303 170.115 291.303 166.499C291.303 162.714 290.682 159.324 289.439 156.216ZM276.501 178.363C274.071 181.245 270.851 182.714 266.67 182.714C262.489 182.714 259.213 181.245 256.783 178.363C254.354 175.482 253.167 171.471 253.167 166.386C253.167 161.188 254.41 157.177 256.783 154.239C259.213 151.301 262.433 149.889 266.67 149.889C270.851 149.889 274.071 151.358 276.501 154.239C278.874 157.177 280.117 161.188 280.117 166.386C280.117 171.471 278.93 175.482 276.501 178.363Z" fill="white"/>
<path d="M230.117 115.703V116.042L238.139 177.681L233.45 190.675L232.828 190.223L224.58 131.127L224.749 130.336L229.891 116.042L230.117 115.703Z" fill="#009ADA"/>
<path d="M168.365 124.291L230.117 115.703L224.919 130.505L224.184 131.296L166.444 139.771L166.727 129.206L168.365 124.291Z" fill="#91C9ED"/>
<path d="M224.919 130.508L233.45 190.677L172.602 199.208L164.41 141.073L167.97 138.304L224.919 130.508Z" fill="url(#paint1_linear_1652_7361)"/>
<path d="M214.58 142.031C214.297 140.167 213.676 138.754 212.659 137.794C211.812 137.06 210.795 136.664 209.608 136.664C209.326 136.664 208.987 136.664 208.648 136.721C207.066 136.947 205.879 137.681 205.145 138.867C204.58 139.715 204.354 140.788 204.354 142.031C204.354 142.483 204.41 142.992 204.467 143.5L206.67 159.15L189.156 161.749L186.953 146.099C186.67 144.291 186.049 142.879 185.032 141.918C184.184 141.127 183.167 140.732 182.038 140.732C181.755 140.732 181.473 140.732 181.19 140.788C179.552 141.014 178.309 141.749 177.518 142.935C176.953 143.783 176.727 144.856 176.727 146.099C176.727 146.551 176.783 147.06 176.84 147.625L182.828 188.359C183.111 190.223 183.732 191.636 184.862 192.596C185.71 193.331 186.727 193.67 187.97 193.67C188.309 193.67 188.648 193.67 188.987 193.613C190.512 193.387 191.642 192.653 192.376 191.466C192.885 190.619 193.111 189.602 193.111 188.415C193.111 187.963 193.054 187.455 192.998 186.947L190.569 170.845L208.083 168.246L210.512 184.348C210.795 186.212 211.416 187.625 212.489 188.528C213.337 189.263 214.354 189.658 215.54 189.658C215.823 189.658 216.162 189.658 216.501 189.602C218.083 189.376 219.269 188.641 220.004 187.455C220.512 186.608 220.795 185.591 220.795 184.348C220.795 183.896 220.738 183.387 220.682 182.879L214.58 142.031Z" fill="white"/>
<path d="M110.569 100L88.5912 152.203L91.5855 175.141L91.755 175.085L116.444 119.548L116.331 118.362L111.021 100.734L110.569 100Z" fill="#66BF6B"/>
<path d="M110.569 100L116.275 119.153L116.388 119.548L170.738 143.898L170.908 143.785L166.275 125.48L110.569 100Z" fill="#98D0A0"/>
<path d="M116.275 119.156L170.908 143.789L146.218 199.778L91.5856 175.145L116.275 119.156Z" fill="url(#paint2_linear_1652_7361)"/>
<path d="M154.354 148.307C153.167 145.143 151.529 142.431 149.382 140.171C147.235 137.911 144.636 136.103 141.586 134.804C138.535 133.504 135.484 132.883 132.376 132.883H132.207C129.043 132.883 125.936 133.617 122.885 134.973C119.665 136.386 116.896 138.307 114.523 140.849C112.151 143.335 110.23 146.386 108.761 149.888C107.292 153.335 106.501 156.838 106.331 160.284V161.47C106.331 164.521 106.84 167.516 107.913 170.453C109.043 173.561 110.682 176.216 112.828 178.476C114.975 180.736 117.631 182.544 120.795 183.843C123.789 185.143 126.84 185.764 129.947 185.764H130.004C133.111 185.764 136.218 185.086 139.269 183.787C142.489 182.374 145.314 180.397 147.687 177.855C150.06 175.369 152.038 172.374 153.506 168.872C154.975 165.369 155.766 161.922 155.936 158.476V157.459C155.992 154.352 155.484 151.301 154.354 148.307ZM143.45 164.578C141.416 169.436 138.648 172.77 135.314 174.578C133.506 175.538 131.642 176.047 129.778 176.047C128.139 176.047 126.388 175.651 124.636 174.917C120.795 173.278 118.422 170.679 117.405 166.951C117.066 165.708 116.896 164.408 116.896 163.052C116.896 160.34 117.574 157.346 118.93 154.126C121.021 149.154 123.789 145.764 127.122 143.9C128.93 142.883 130.795 142.431 132.659 142.431C134.354 142.431 136.049 142.826 137.857 143.561C141.642 145.199 144.015 147.798 145.032 151.527C145.371 152.713 145.54 154.013 145.54 155.369C145.54 158.194 144.862 161.244 143.45 164.578Z" fill="white"/>
<path d="M84.2409 108.867L93.1674 168.641L89.0996 189.658L88.5347 188.924L79.8341 131.184V130.054L83.6759 109.884L84.2409 108.867Z" fill="#760D16"/>
<path d="M19.0432 139.771L23.2804 118.641L84.2409 108.867L80.1166 130.393V131.805L19.7776 140.336L19.0432 139.771Z" fill="#EF463E"/>
<path d="M80.1166 130.391L89.0996 189.656L28.7607 199.091L19.0432 139.769L80.1166 130.391Z" fill="url(#paint3_linear_1652_7361)"/>
<path d="M73.6194 180.22C73.1674 179.655 72.4895 179.26 71.6985 178.977C70.9076 178.695 69.9471 178.582 68.7607 178.582C67.6872 178.582 66.4443 178.695 65.0884 178.921L49.1561 181.633C49.3256 180.39 49.9471 178.808 51.0206 176.83C52.207 174.627 54.0149 171.972 56.3313 168.921C57.1222 167.847 57.7437 167.056 58.1957 166.491C58.4782 166.096 58.9302 165.587 59.4951 164.853C63.1674 160.051 65.3708 156.152 66.2748 153.102C66.7833 151.35 67.0657 149.599 67.1787 147.847C67.2352 147.339 67.2352 146.887 67.2352 146.435C67.2352 145.192 67.1222 143.949 66.8963 142.706C66.7268 141.576 66.4443 140.672 66.0488 139.938C65.6533 139.203 65.2013 138.638 64.6364 138.299C64.0149 137.904 63.0545 137.734 61.868 137.734C60.9076 137.734 59.7211 137.847 58.3087 138.073L39.8906 141.237C37.6872 141.633 35.9923 142.254 34.9754 143.271C34.1279 144.062 33.7324 145.079 33.7324 146.209C33.7324 146.491 33.7324 146.83 33.7889 147.169C34.0714 148.751 34.8624 149.881 36.1618 150.446C36.9528 150.785 37.8567 150.955 38.9867 150.955C39.7211 150.955 40.5686 150.898 41.4725 150.729L56.8398 148.017C56.8398 148.299 56.8963 148.582 56.8963 148.808C56.8963 149.768 56.7268 150.729 56.3878 151.633C55.9358 152.932 54.8059 154.74 52.9415 157.056C52.433 157.678 51.642 158.695 50.5686 159.994C46.3878 165.023 43.4499 169.316 41.642 172.876C40.3426 175.361 39.4951 177.734 38.9867 180.164C38.7042 181.576 38.5347 182.876 38.5347 184.175C38.5347 185.079 38.5912 185.983 38.7607 186.83C38.9867 188.073 39.2691 189.09 39.6646 189.881C40.0601 190.672 40.6251 191.294 41.2465 191.633C41.868 191.972 42.7155 192.085 43.9584 192.085C45.4838 192.085 47.5742 191.859 50.2296 191.407L66.9528 188.525C69.8906 188.017 71.981 187.282 73.1674 186.322C74.1279 185.531 74.6364 184.458 74.6364 183.215C74.6364 182.876 74.5799 182.537 74.5234 182.198C74.4104 181.463 74.1279 180.785 73.6194 180.22Z" fill="white"/>
</g>
<defs>
<linearGradient id="paint0_linear_1652_7361" x1="3371.62" y1="228.159" x2="3371.62" y2="6646.74" gradientUnits="userSpaceOnUse">
<stop offset="0.00562" stop-color="#FFE513"/>
<stop offset="1" stop-color="#FDB924"/>
</linearGradient>
<linearGradient id="paint1_linear_1652_7361" x1="475.917" y1="1057.55" x2="6745.1" y2="6142.01" gradientUnits="userSpaceOnUse">
<stop offset="0.00562" stop-color="#008CD2"/>
<stop offset="1" stop-color="#00649D"/>
</linearGradient>
<linearGradient id="paint2_linear_1652_7361" x1="4057.85" y1="2358.74" x2="4057.85" y2="7982.09" gradientUnits="userSpaceOnUse">
<stop stop-color="#26A146"/>
<stop offset="1" stop-color="#008A52"/>
</linearGradient>
<linearGradient id="paint3_linear_1652_7361" x1="3082.89" y1="694.285" x2="4014.2" y2="6538.91" gradientUnits="userSpaceOnUse">
<stop stop-color="#D92231"/>
<stop offset="1" stop-color="#BA2234"/>
</linearGradient>
<clipPath id="clip0_1652_7361">
<rect width="289.352" height="100" fill="white" transform="translate(19 100)"/>
</clipPath>
</defs>
</svg>
