<svg width="533" height="300" viewBox="0 0 533 300" fill="none" xmlns="http://www.w3.org/2000/svg">
<g clip-path="url(#clip0_1652_7176)">
<g clip-path="url(#clip1_1652_7176)">
<path d="M491.89 126.562H503.686L524.6 161.687H525.363L524.6 155.462V126.562H533.333V173.417H521.54L500.626 138.293H499.86L500.626 144.518V173.417H491.89V126.562Z" fill="black"/>
<path d="M458.1 125C472.89 125 483.54 135.944 483.54 149.967C483.54 163.991 472.89 174.934 458.1 174.934C443.307 174.934 432.66 163.991 432.66 149.967C432.66 135.944 443.244 125 458.1 125ZM458.1 166.35C467.6 166.35 474.42 159.338 474.42 149.967C474.42 140.596 467.6 133.585 458.1 133.585C448.6 133.585 441.777 140.596 441.777 149.967C441.777 159.338 448.6 166.35 458.1 166.35Z" fill="black"/>
<path d="M415.51 126.562H424.244V173.417H415.51V126.562Z" fill="black"/>
<path d="M368.01 126.562H409.45V135.147H393.13V173.417H384.394V135.147H368.01V126.562Z" fill="black"/>
<path d="M335.683 126.562H356.343L369.156 173.417H360.423L357.363 162.08H334.536L331.477 173.417H322.742L335.683 126.562ZM355.13 153.561L350.22 135.213H341.87L336.96 153.561H355.13Z" fill="black"/>
<path d="M282.574 126.562H324.017V135.147H307.695V173.417H298.96V135.147H282.574V126.562Z" fill="black"/>
<path d="M248.718 159.404C249.101 160.78 249.802 162.09 250.758 163.139C252.48 165.039 255.349 166.809 260.513 166.809C268.1 166.809 271.161 163.663 271.161 160.583C271.161 155.603 263.765 154.423 256.369 152.785C248.909 151.147 241.577 147.936 241.577 139.089C241.577 131.684 248.017 125 260.194 125C268.738 125 273.647 128.539 276.453 132.012C278.11 134.109 279.258 136.468 279.959 139.024H270.842C270.459 138.041 269.886 136.992 268.929 136.14C267.399 134.633 264.721 133.191 260.194 133.191C253.309 133.191 250.695 135.55 250.695 138.63C250.695 142.169 254.903 143.807 260.067 144.856C268.802 146.625 280.342 148.853 280.342 160.059C280.342 167.857 273.584 174.869 260.577 174.869C250.95 174.869 245.53 171.068 242.661 167.071C241.003 164.777 239.856 162.156 239.346 159.273H248.718V159.404Z" fill="black"/>
<path d="M222.77 149.967C222.77 135.485 211.357 125 195.545 125H175.207V175H195.545C211.294 174.934 222.77 164.45 222.77 149.967ZM189.68 162.287V137.647H195.163C202.75 137.647 207.532 142.366 207.532 149.967C207.532 157.569 202.814 162.287 195.163 162.287H189.68Z" fill="black"/>
<path d="M159.203 157.307C160.733 156.586 162.135 155.472 163.411 154.096C166.28 151.081 167.682 147.346 167.682 142.955C167.682 132.339 159.585 125 148.045 125H121.904V175H136.377V160.583H145.24L153.146 175H167.746L158.31 157.765L159.203 157.307ZM146.642 148.591H136.441V137.254H146.642C150.213 137.254 152.891 139.679 152.891 142.89C152.891 146.166 150.213 148.591 146.642 148.591Z" fill="black"/>
<path d="M48.7427 172.556L97.5237 191.064V174.469L48.7427 155.961L0 174.469V191.064L48.7427 172.556Z" fill="black"/>
<path d="M48.7427 172.555L0 191.063L18.0925 200.005L48.7427 188.369L79.4313 200.005L97.5237 191.063L48.7427 172.555Z" fill="#19C1CE"/>
<path d="M48.7427 127.438L0 108.93V125.525L48.7427 144.033L97.5237 125.525V108.93L48.7427 127.438Z" fill="black"/>
<path d="M48.7427 127.45L97.5237 108.942L79.4313 100L48.7427 111.636L18.0925 100L0 108.942L48.7427 127.45Z" fill="#19C1CE"/>
</g>
</g>
<defs>
<clipPath id="clip0_1652_7176">
<rect width="533" height="300" fill="white"/>
</clipPath>
<clipPath id="clip1_1652_7176">
<rect width="533.333" height="100" fill="white" transform="translate(0 100)"/>
</clipPath>
</defs>
</svg>
