<svg width="395" height="300" viewBox="0 0 395 300" fill="none" xmlns="http://www.w3.org/2000/svg">
<path fill-rule="evenodd" clip-rule="evenodd" d="M182.061 161.829C179.465 162.428 178.121 161.629 178.121 159.909C178.121 157.552 180.558 156.609 184.039 156.609C185.57 156.609 187.015 156.741 187.015 156.741C187.015 157.75 184.822 161.192 182.061 161.829ZM184.704 138.234C176.391 138.234 170.424 141.291 170.424 141.291V150.277C170.424 150.277 177.012 146.489 182.358 146.489C186.622 146.489 187.147 148.79 186.954 150.699C186.954 150.699 185.722 150.373 181.969 150.373C173.121 150.373 168.657 154.394 168.657 160.841C168.657 166.956 173.675 169.512 177.904 169.512C184.072 169.512 186.786 165.365 187.618 163.399C188.197 162.034 188.303 161.114 188.821 161.114C189.416 161.114 189.216 161.774 189.186 163.132C189.137 165.511 189.25 167.309 189.627 168.824H197.808V154.109C197.808 144.921 194.557 138.234 184.704 138.234Z" fill="#100F0D"/>
<path fill-rule="evenodd" clip-rule="evenodd" d="M238.549 153.888C238.549 151.2 241.048 148.752 245.634 148.752C250.631 148.752 254.652 151.159 255.553 151.706V141.304C255.553 141.304 252.378 138.246 244.572 138.246C236.344 138.246 229.492 143.06 229.492 153.424C229.492 163.786 235.711 169.532 244.55 169.532C251.455 169.532 255.571 165.738 255.571 165.738V155.859C254.269 156.587 250.641 159.106 245.684 159.106C240.437 159.106 238.55 156.691 238.55 153.889L238.549 153.888ZM129.205 138.927C129.206 138.934 129.727 141.169 129.04 144.092C128.69 145.579 128.047 146.844 128.824 146.844C129.359 146.844 129.36 146.399 130.057 144.806C131.076 142.477 133.224 138.238 138.243 138.238C143.014 138.238 145.261 141.137 146.006 143.851C146.573 145.914 146.077 146.844 146.768 146.844C147.259 146.844 147.429 145.774 148.034 144.42C149.119 141.996 151.48 138.238 156.256 138.238C163.461 138.238 166.212 143.441 166.212 151.247V168.835H155.508V152.62C155.508 149.917 155.071 147.295 152.607 147.295C150.324 147.295 149.259 151.341 149.259 153.954V168.841H138.358V152.621C138.358 149.162 137.87 147.296 135.439 147.296C133.335 147.296 132.107 151.019 132.107 153.955V168.836H121.249V138.927H129.204H129.205ZM201.371 138.968C201.376 138.97 203.223 140.036 206.81 140.036C210.403 140.036 212.228 138.968 212.228 138.968V168.842H201.371V138.968ZM291.003 138.968C291.007 138.97 292.855 140.036 296.443 140.036C300.035 140.036 301.861 138.968 301.861 138.968V168.842H291.003V138.968ZM226.599 129.873V168.842H215.741V129.873H226.599ZM268.456 129.873C268.457 129.876 268.906 130.996 268.906 134.327C268.906 139.246 267.836 143.249 267.331 144.775C267.063 145.582 266.585 146.829 267.271 146.851C267.666 146.864 267.904 146.268 268.389 145.235C268.871 144.2 271.262 138.245 277.546 138.245C286.203 138.245 287.476 145.334 287.476 153.01V168.841H276.619V152.36C276.619 148.98 275.91 147.301 273.644 147.301C270.909 147.301 269.942 151.537 269.942 153.961V168.841H259.084V129.871H268.458L268.456 129.873ZM313.484 138.927C313.485 138.934 314.006 141.169 313.319 144.092C312.969 145.579 312.326 146.844 313.103 146.844C313.638 146.844 313.639 146.399 314.336 144.806C315.354 142.477 317.503 138.238 322.522 138.238C327.511 138.238 329.489 141.15 330.285 143.851C330.818 145.661 330.356 146.844 331.047 146.844C331.538 146.844 331.708 145.774 332.313 144.42C333.396 141.996 335.759 138.238 340.535 138.238C347.74 138.238 350.492 143.441 350.492 151.247V168.835H339.787V152.62C339.787 149.917 339.35 147.295 336.886 147.295C334.603 147.295 333.537 151.341 333.537 153.954V168.841H322.636V152.621C322.636 149.162 322.151 147.296 319.718 147.296C317.614 147.296 316.386 151.019 316.386 153.955V168.836H305.528V138.927H313.483H313.484ZM206.767 129.57C203.098 129.57 200.121 131.513 200.121 133.908C200.121 136.304 203.097 138.246 206.767 138.246C210.438 138.246 213.413 136.304 213.413 133.908C213.413 131.513 210.439 129.57 206.767 129.57ZM296.4 129.57C292.73 129.57 289.753 131.513 289.753 133.908C289.753 136.304 292.728 138.246 296.4 138.246C300.07 138.246 303.046 136.304 303.046 133.908C303.046 131.513 300.071 129.57 296.4 129.57Z" fill="#100F0D"/>
<path fill-rule="evenodd" clip-rule="evenodd" d="M368.986 162.396C366.497 162.396 364.666 159.24 364.666 154.841C364.666 150.569 366.546 147.288 368.9 147.288C371.919 147.288 373.208 150.058 373.208 154.841C373.208 159.818 372.02 162.396 368.986 162.396ZM371.965 138.227C366.386 138.227 363.827 142.41 362.716 144.793C361.981 146.368 362.02 146.831 361.483 146.831C360.708 146.831 361.352 145.567 361.7 144.08C362.389 141.152 361.866 138.915 361.866 138.915H353.915V177.074H364.768V164.976C366.051 167.155 368.43 169.483 372.098 169.483C379.948 169.483 383.898 162.842 383.898 153.87C383.898 143.701 379.17 138.227 371.967 138.227" fill="#100F0D"/>
<path fill-rule="evenodd" clip-rule="evenodd" d="M82.8752 147.254C83.6052 147.167 84.3041 147.163 84.9475 147.254C85.3197 146.401 85.383 144.93 85.0486 143.329C84.5519 140.949 83.8786 139.509 82.4875 139.734C81.0964 139.958 81.0452 141.683 81.543 144.062C81.823 145.401 82.3208 146.545 82.8752 147.254Z" fill="#231F20"/>
<path fill-rule="evenodd" clip-rule="evenodd" d="M70.9364 149.138C71.9308 149.575 72.543 149.865 72.7819 149.612C72.9363 149.454 72.8897 149.153 72.6519 148.765C72.1608 147.964 71.1508 147.151 70.0786 146.694C67.8875 145.751 65.2731 146.064 63.2564 147.513C62.5908 148.001 61.9597 148.676 62.0497 149.086C62.0786 149.218 62.1786 149.318 62.412 149.352C62.9608 149.414 64.8786 148.445 67.0886 148.309C68.6475 148.214 69.9397 148.702 70.9352 149.138" fill="#231F20"/>
<path fill-rule="evenodd" clip-rule="evenodd" d="M68.9352 150.276C67.6386 150.481 66.9241 150.908 66.4652 151.305C66.0741 151.647 65.8319 152.026 65.8341 152.292C65.8352 152.418 65.8897 152.492 65.933 152.528C65.9919 152.581 66.0619 152.609 66.1463 152.609C66.4386 152.609 67.0952 152.346 67.0952 152.346C68.8986 151.701 70.0885 151.779 71.2674 151.913C71.9185 151.986 72.2274 152.026 72.3696 151.803C72.4119 151.738 72.463 151.599 72.333 151.388C72.0297 150.896 70.7208 150.064 68.9363 150.276" fill="#231F20"/>
<path fill-rule="evenodd" clip-rule="evenodd" d="M78.844 154.469C79.724 154.901 80.6929 154.731 81.0085 154.09C81.324 153.449 80.8663 152.578 79.9863 152.145C79.1063 151.713 78.1374 151.883 77.8218 152.524C77.5063 153.166 77.964 154.036 78.844 154.469Z" fill="#231F20"/>
<path fill-rule="evenodd" clip-rule="evenodd" d="M84.5006 149.531C83.7861 149.519 83.1928 150.304 83.1761 151.285C83.1595 152.266 83.7261 153.069 84.4406 153.081C85.155 153.094 85.7484 152.309 85.765 151.328C85.7817 150.348 85.215 149.544 84.5006 149.531Z" fill="#231F20"/>
<path fill-rule="evenodd" clip-rule="evenodd" d="M36.4865 167.205C36.3087 166.981 36.0165 167.049 35.7331 167.116C35.5354 167.162 35.312 167.213 35.0665 167.21C34.5409 167.2 34.0954 166.976 33.8454 166.591C33.5198 166.091 33.5387 165.346 33.8976 164.492L34.0654 164.11C34.6387 162.823 35.5976 160.671 34.5209 158.62C33.7098 157.076 32.3876 156.115 30.7976 155.912C29.2709 155.719 27.6998 156.285 26.6976 157.39C25.1165 159.135 24.8687 161.509 25.1743 162.348C25.2865 162.655 25.4621 162.74 25.5887 162.758C25.8576 162.793 26.2554 162.598 26.5043 161.928L26.5754 161.71C26.6865 161.356 26.8932 160.696 27.2321 160.167C27.6409 159.529 28.2765 159.09 29.0232 158.929C29.7832 158.766 30.5609 158.911 31.212 159.338C32.3198 160.062 32.7465 161.42 32.2732 162.715C32.0287 163.385 31.6309 164.666 31.7187 165.718C31.8965 167.848 33.2065 168.703 34.3831 168.795C35.5276 168.838 36.3276 168.195 36.5298 167.726C36.6487 167.448 36.5487 167.279 36.4831 167.207" fill="#231F20"/>
<path fill-rule="evenodd" clip-rule="evenodd" d="M47.3664 128.082C51.0998 123.769 55.6942 120.019 59.8108 117.914C59.953 117.84 60.1041 117.995 60.0275 118.135C59.7008 118.727 59.0708 119.995 58.8719 120.956C58.8408 121.106 59.0042 121.218 59.1308 121.132C61.6919 119.387 66.1463 117.516 70.0541 117.276C70.2219 117.266 70.303 117.48 70.1696 117.584C69.5752 118.039 68.9252 118.67 68.4508 119.308C68.3697 119.417 68.4463 119.572 68.5819 119.574C71.3252 119.594 75.1929 120.554 77.714 121.968C77.884 122.064 77.7629 122.394 77.5718 122.35C73.7574 121.476 67.5141 120.812 61.0275 122.395C55.2375 123.807 50.8175 125.988 47.5942 128.332C47.4309 128.451 47.2353 128.236 47.3675 128.084L47.3664 128.082ZM65.9574 169.873L65.9585 169.876L65.9608 169.88L65.9574 169.873ZM81.3507 171.69C81.4618 171.643 81.5374 171.518 81.5251 171.392C81.5096 171.238 81.3718 171.126 81.2174 171.141C81.2174 171.141 73.2518 172.32 65.7263 169.566C66.5463 166.901 68.7252 167.863 72.0196 168.129C77.9574 168.483 83.2796 167.616 87.2129 166.487C90.6207 165.509 95.0973 163.58 98.5739 160.836C99.7461 163.411 100.161 166.247 100.161 166.247C100.161 166.247 101.068 166.084 101.827 166.551C102.544 166.992 103.069 167.909 102.711 170.28C101.979 174.709 100.097 178.304 96.9328 181.612C95.0062 183.685 92.6684 185.488 89.9929 186.799C88.5718 187.545 87.0595 188.191 85.4607 188.712C73.5318 192.609 61.3208 188.325 57.3853 179.128C57.0708 178.437 56.8053 177.712 56.5964 176.956C54.9197 170.894 56.343 163.622 60.7941 159.045V159.042C61.0686 158.751 61.3486 158.408 61.3486 157.976C61.3486 157.615 61.1186 157.233 60.9197 156.962C59.3619 154.703 53.9675 150.855 55.0508 143.406C55.8286 138.055 60.5086 134.286 64.8719 134.509L65.9775 134.572C67.8686 134.685 69.5174 134.927 71.0741 134.992C73.6796 135.106 76.0218 134.727 78.7974 132.415C79.7329 131.635 80.484 130.958 81.754 130.744C81.8874 130.72 82.2196 130.601 82.8829 130.632C83.5607 130.669 84.2051 130.855 84.784 131.24C87.0084 132.72 87.324 136.306 87.4396 138.928C87.5051 140.425 87.6862 144.047 87.7484 145.087C87.8895 147.465 88.5151 147.799 89.7795 148.216C90.4907 148.45 91.1506 148.625 92.124 148.898C95.0684 149.725 96.8139 150.563 97.915 151.641C98.5717 152.315 98.8773 153.03 98.9717 153.712C99.3184 156.246 97.005 159.374 90.8795 162.218C84.184 165.326 76.0607 166.112 70.4485 165.487L68.4819 165.264C63.993 164.66 61.4319 170.461 64.1263 174.437C65.863 176.999 70.593 178.666 75.3252 178.667C86.1751 178.668 94.5151 174.034 97.6173 170.033L97.865 169.68C98.0184 169.45 97.8917 169.323 97.7017 169.453C95.1673 171.188 83.9096 178.073 71.8674 176.001C71.8674 176.001 70.4041 175.76 69.0685 175.241C68.0074 174.828 65.7852 173.806 65.5152 171.527C75.233 174.532 81.3518 171.691 81.3518 171.691L81.3507 171.69ZM27.9743 148.596C24.5943 149.252 21.6155 151.168 19.7944 153.815C18.7055 152.907 16.6777 151.149 16.3188 150.463C13.4111 144.941 19.4921 134.206 23.741 128.142C34.2409 113.159 50.6853 101.818 58.2975 103.876C59.5353 104.226 63.6341 108.978 63.6341 108.978C63.6341 108.978 56.0242 113.2 48.9675 119.086C39.4587 126.407 32.2776 137.048 27.9743 148.596ZM33.6532 173.934C33.1421 174.022 32.6198 174.057 32.0932 174.043C27.0077 173.907 21.5155 169.329 20.9699 163.9C20.3666 157.899 23.4332 153.281 28.8621 152.186C29.511 152.055 30.2954 151.979 31.141 152.023C34.1832 152.19 38.6654 154.526 39.6887 161.152C40.5954 167.021 39.1554 172.996 33.6532 173.933V173.934ZM102.537 163.308C102.494 163.153 102.209 162.117 101.819 160.867C101.429 159.616 101.026 158.737 101.026 158.737C102.591 156.396 102.618 154.301 102.409 153.116C102.187 151.646 101.575 150.393 100.342 149.098C99.1084 147.803 96.5851 146.477 93.0395 145.481L91.1795 144.965C91.1706 144.888 91.0817 140.579 91.0017 138.729C90.9429 137.391 90.8284 135.304 90.1806 133.248C89.4084 130.465 88.064 128.029 86.3851 126.471C91.0184 121.669 93.9106 116.378 93.9029 111.84C93.8895 103.113 83.1707 100.471 69.9608 105.941L67.1619 107.129C67.1497 107.117 62.1019 102.165 62.0264 102.098C46.9653 88.9615 -0.12332 141.302 14.931 154.015L18.221 156.802C17.3677 159.013 17.0321 161.547 17.3066 164.27C17.6577 167.769 19.4621 171.122 22.3877 173.713C25.1643 176.173 28.8154 177.731 32.3576 177.728C38.2165 191.229 51.6031 199.511 67.2985 199.978C84.1351 200.478 98.2684 192.578 104.191 178.387C104.578 177.391 106.222 172.903 106.222 168.941C106.222 164.96 103.971 163.31 102.537 163.31" fill="#231F20"/>
</svg>
