<svg width="435" height="300" viewBox="0 0 435 300" fill="none" xmlns="http://www.w3.org/2000/svg">
<g clip-path="url(#clip0_1652_6791)">
<mask id="mask0_1652_6791" style="mask-type:luminance" maskUnits="userSpaceOnUse" x="21" y="-46" width="393" height="393">
<path d="M414 -46H21V347H414V-46Z" fill="white"/>
</mask>
<g mask="url(#mask0_1652_6791)">
<path d="M29.1796 195.445H48.2689V149.092L21 128.641V187.266C21 191.783 24.6628 195.445 29.1796 195.445Z" fill="#4285F4"/>
</g>
<mask id="mask1_1652_6791" style="mask-type:luminance" maskUnits="userSpaceOnUse" x="21" y="-46" width="393" height="393">
<path d="M414 -46H21V347H414V-46Z" fill="white"/>
</mask>
<g mask="url(#mask1_1652_6791)">
<path d="M113.716 195.445H132.805C137.322 195.445 140.984 191.783 140.984 187.266V128.641L113.716 149.092V195.445Z" fill="#34A853"/>
</g>
<mask id="mask2_1652_6791" style="mask-type:luminance" maskUnits="userSpaceOnUse" x="21" y="-46" width="393" height="393">
<path d="M414 -46H21V347H414V-46Z" fill="white"/>
</mask>
<g mask="url(#mask2_1652_6791)">
<path d="M113.716 113.878V149.327L140.984 128.875V117.971C140.984 107.863 129.446 102.088 121.35 108.156L113.716 113.878Z" fill="#FBBC04"/>
</g>
<mask id="mask3_1652_6791" style="mask-type:luminance" maskUnits="userSpaceOnUse" x="21" y="-46" width="393" height="393">
<path d="M414 -46H21V347H414V-46Z" fill="white"/>
</mask>
<g mask="url(#mask3_1652_6791)">
<path d="M48.2725 149.154V113.711L80.9963 138.25L113.715 113.711V149.154L80.9963 173.698L48.2725 149.154Z" fill="#EA4335"/>
</g>
<mask id="mask4_1652_6791" style="mask-type:luminance" maskUnits="userSpaceOnUse" x="21" y="-46" width="393" height="393">
<path d="M414 -46H21V347H414V-46Z" fill="white"/>
</mask>
<g mask="url(#mask4_1652_6791)">
<path d="M21 117.971V128.875L48.2689 149.327V113.878L40.6342 108.156C32.5437 102.088 21 107.863 21 117.971Z" fill="#C5221F"/>
</g>
<mask id="mask5_1652_6791" style="mask-type:luminance" maskUnits="userSpaceOnUse" x="21" y="-46" width="393" height="393">
<path d="M414 -46H21V347H414V-46Z" fill="white"/>
</mask>
<g mask="url(#mask5_1652_6791)">
<path fill-rule="evenodd" clip-rule="evenodd" d="M414 184.25C411.679 184.25 409.358 184.203 407.041 184.282C406.067 184.313 405.894 183.967 405.894 183.082C405.92 168.185 405.91 153.287 405.91 138.39C405.91 133.045 405.931 127.7 405.894 122.35C405.889 121.465 406.067 121.119 407.041 121.15C409.358 121.229 411.679 121.182 414 121.182V184.25Z" fill="#787879"/>
</g>
<mask id="mask6_1652_6791" style="mask-type:luminance" maskUnits="userSpaceOnUse" x="21" y="-46" width="393" height="393">
<path d="M414 -46H21V347H414V-46Z" fill="white"/>
</mask>
<g mask="url(#mask6_1652_6791)">
<path fill-rule="evenodd" clip-rule="evenodd" d="M242.647 150.264C247.369 150.264 252.095 150.27 256.816 150.259C257.45 150.259 257.959 150.259 258.048 151.098C258.933 159.45 257.676 167.305 252.3 174.038C246.923 180.772 239.844 184.434 231.245 185.241C224.721 185.849 218.391 185.189 212.554 182.097C202.446 176.742 196.184 168.51 194.785 156.987C193.559 146.874 195.927 137.757 202.965 130.138C210.521 121.958 219.937 118.662 230.941 119.736C237.984 120.423 244.314 122.828 249.491 127.827C250.617 128.917 250.607 128.932 249.507 130.033C248.118 131.427 246.708 132.799 245.341 134.214C244.911 134.654 244.681 134.644 244.23 134.199C237.245 127.25 228.788 125.731 219.717 128.466C210.652 131.196 205.118 137.673 203.321 146.989C201.843 154.635 202.944 161.929 207.854 168.243C213.612 175.652 221.368 178.429 230.574 177.502C235.448 177.009 239.797 175.264 243.465 171.974C247.363 168.473 249.339 163.998 250.093 158.889C250.245 157.878 249.774 157.826 248.983 157.831C242.134 157.852 235.285 157.826 228.437 157.862C227.54 157.868 227.184 157.674 227.231 156.704C227.31 154.938 227.294 153.162 227.237 151.391C227.21 150.526 227.457 150.243 228.358 150.254C233.121 150.291 237.884 150.264 242.647 150.264Z" fill="#787879"/>
</g>
<mask id="mask7_1652_6791" style="mask-type:luminance" maskUnits="userSpaceOnUse" x="21" y="-46" width="393" height="393">
<path d="M414 -46H21V347H414V-46Z" fill="white"/>
</mask>
<g mask="url(#mask7_1652_6791)">
<path fill-rule="evenodd" clip-rule="evenodd" d="M274.833 146.983C278.302 142.293 282.892 139.594 288.75 139.704C294.619 139.814 299.178 142.372 301.903 147.879C303.029 146.333 304.166 144.897 305.565 143.676C310.564 139.317 318.996 138.316 324.833 141.491C329.161 143.839 331.168 147.769 332.017 152.427C332.326 154.135 332.42 155.87 332.426 157.599C332.452 166.098 332.426 174.603 332.457 183.102C332.462 184.019 332.237 184.328 331.289 184.292C329.402 184.218 327.511 184.213 325.624 184.292C324.587 184.333 324.23 184.092 324.241 182.961C324.293 174.97 324.267 166.979 324.272 158.993C324.272 157.138 324.199 155.299 323.774 153.486C322.842 149.524 320.384 147.439 316.307 147.177C309.946 146.773 304.994 150.881 303.92 157.431C303.721 158.642 303.668 159.852 303.668 161.073C303.674 168.435 303.658 175.792 303.689 183.154C303.695 184.003 303.527 184.328 302.6 184.292C300.593 184.218 298.586 184.213 296.579 184.292C295.641 184.328 295.489 183.972 295.494 183.144C295.52 175.153 295.515 167.162 295.51 159.176C295.51 157.211 295.468 155.246 294.975 153.318C293.995 149.472 291.585 147.444 287.613 147.182C281.021 146.747 275.902 151.159 275.084 157.955C274.937 159.171 274.875 160.381 274.88 161.602C274.89 168.65 274.89 175.693 274.88 182.741C274.875 184.517 275.131 184.255 273.292 184.271C271.479 184.286 269.671 184.239 267.863 184.292C267.067 184.318 266.784 184.129 266.789 183.27C266.815 169.536 266.815 155.796 266.795 142.057C266.795 141.276 267.025 141.041 267.795 141.062C269.724 141.109 271.652 141.109 273.58 141.062C274.34 141.041 274.639 141.24 274.602 142.041C274.544 143.299 274.571 144.562 274.597 145.82C274.597 146.176 274.44 146.585 274.833 146.983Z" fill="#79797A"/>
</g>
<mask id="mask8_1652_6791" style="mask-type:luminance" maskUnits="userSpaceOnUse" x="21" y="-46" width="393" height="393">
<path d="M414 -46H21V347H414V-46Z" fill="white"/>
</mask>
<g mask="url(#mask8_1652_6791)">
<path fill-rule="evenodd" clip-rule="evenodd" d="M369.569 178.347C368.992 178.426 368.867 178.745 368.689 178.986C364.764 184.3 359.498 186.338 353 185.484C348.048 184.834 344.008 182.623 341.241 178.457C336.421 171.189 339.355 161.579 347.556 158.184C354.509 155.307 361.588 155.506 368.552 158.393C369.333 158.718 369.553 158.792 369.595 157.785C369.862 151.11 364.072 147.195 359.225 146.933C354.656 146.687 350.904 148.275 348.122 151.953C347.676 152.54 347.377 152.53 346.806 152.152C344.999 150.968 343.185 149.784 341.31 148.71C340.434 148.207 340.607 147.835 341.105 147.211C343.83 143.748 347.315 141.421 351.596 140.415C356.961 139.157 362.317 139.246 367.436 141.473C373.331 144.041 376.554 148.689 377.135 155.04C377.654 160.725 377.266 166.442 377.335 172.148C377.377 175.806 377.319 179.469 377.361 183.126C377.371 183.964 377.214 184.316 376.276 184.279C374.353 184.2 372.419 184.226 370.491 184.268C369.773 184.284 369.527 184.09 369.553 183.346C369.606 181.717 369.569 180.076 369.569 178.347ZM359.54 162.758C355.971 162.753 352.895 163.398 350.286 165.494C347.933 167.38 346.838 169.811 347.666 172.788C348.499 175.78 350.82 177.336 353.65 178.085C360.567 179.914 368.348 174.601 369.427 167.5C369.637 166.133 369.291 165.431 368.107 164.791C365.319 163.282 362.327 162.858 359.54 162.758Z" fill="#79797A"/>
</g>
<mask id="mask9_1652_6791" style="mask-type:luminance" maskUnits="userSpaceOnUse" x="21" y="-46" width="393" height="393">
<path d="M414 -46H21V347H414V-46Z" fill="white"/>
</mask>
<g mask="url(#mask9_1652_6791)">
<path fill-rule="evenodd" clip-rule="evenodd" d="M395.32 162.387C395.32 169.116 395.278 175.844 395.357 182.572C395.373 183.83 394.985 184.071 393.848 184.018C391.925 183.929 389.991 183.961 388.068 184.008C387.324 184.023 387.146 183.761 387.146 183.059C387.162 169.289 387.162 155.518 387.141 141.747C387.141 140.945 387.418 140.757 388.168 140.772C390.211 140.82 392.26 140.83 394.304 140.767C395.163 140.741 395.341 141.05 395.336 141.847C395.31 148.695 395.32 155.539 395.32 162.387Z" fill="#7A7A7B"/>
</g>
<mask id="mask10_1652_6791" style="mask-type:luminance" maskUnits="userSpaceOnUse" x="21" y="104" width="393" height="92">
<path d="M414 104.953H21V195.711H414V104.953Z" fill="white"/>
</mask>
<g mask="url(#mask10_1652_6791)">
<path fill-rule="evenodd" clip-rule="evenodd" d="M391.297 119.899C394.582 119.914 397.218 122.545 397.223 125.82C397.234 129.158 394.614 131.767 391.223 131.793C387.996 131.819 385.302 129.131 385.276 125.867C385.255 122.571 387.959 119.883 391.297 119.899Z" fill="#79797A"/>
</g>
</g>
<defs>
<clipPath id="clip0_1652_6791">
<rect width="435" height="300" fill="white"/>
</clipPath>
</defs>
</svg>
