<svg width="459" height="300" viewBox="0 0 459 300" fill="none" xmlns="http://www.w3.org/2000/svg">
<path d="M9.13239 169.502C8.76513 170.463 9.26615 170.664 9.38289 170.83C10.4847 171.632 11.604 172.208 12.731 172.851C18.7085 176.023 24.3528 176.949 30.2553 176.949C42.2772 176.949 49.7408 170.554 49.7408 160.26V160.06C49.7408 150.542 41.3174 147.086 33.4109 144.59L32.3843 144.256C26.4232 142.319 21.2805 140.65 21.2805 136.726V136.517C21.2805 133.161 24.2859 130.689 28.9447 130.689C34.1208 130.689 40.2655 132.409 44.2226 134.597C44.2226 134.597 45.383 135.348 45.8089 134.221C46.0424 133.62 48.0465 128.227 48.2553 127.642C48.4806 127.007 48.0799 126.54 47.671 126.289C43.1543 123.543 36.9092 121.664 30.4477 121.664L29.2456 121.672C18.2421 121.672 10.5615 128.318 10.5615 137.844V138.044C10.5615 148.087 19.0353 151.343 26.9752 153.614L28.2524 154.007C34.0381 155.785 39.0224 157.313 39.0224 161.387V161.588C39.0224 165.311 35.7834 168.083 30.5568 168.083C28.5281 168.083 22.0578 168.041 15.07 163.624C14.2264 163.131 13.7342 162.773 13.083 162.38C12.741 162.163 11.8809 161.787 11.5054 162.923L9.13239 169.502ZM185.131 169.502C184.764 170.463 185.265 170.664 185.381 170.83C186.483 171.632 187.602 172.208 188.729 172.851C194.706 176.023 200.351 176.949 206.253 176.949C218.275 176.949 225.739 170.554 225.739 160.26V160.06C225.739 150.542 217.315 147.086 209.409 144.59L208.382 144.256C202.421 142.319 197.278 140.65 197.278 136.726V136.517C197.278 133.161 200.283 130.689 204.942 130.689C210.118 130.689 216.263 132.409 220.22 134.597C220.22 134.597 221.381 135.348 221.806 134.221C222.04 133.62 224.044 128.227 224.253 127.642C224.478 127.007 224.077 126.54 223.668 126.289C219.151 123.543 212.906 121.664 206.445 121.664L205.242 121.672C194.239 121.672 186.558 128.318 186.558 137.844V138.044C186.558 148.087 195.032 151.343 202.972 153.614L204.249 154.007C210.035 155.785 215.028 157.313 215.028 161.387V161.588C215.028 165.311 211.78 168.083 206.553 168.083C204.525 168.083 198.055 168.041 191.067 163.624C190.224 163.131 189.723 162.789 189.089 162.38C188.871 162.238 187.853 161.846 187.502 162.923L185.131 169.502ZM305.28 149.339C305.28 155.158 304.195 159.741 302.058 162.981C299.945 166.187 296.748 167.748 292.29 167.748C287.824 167.748 284.643 166.195 282.564 162.981C280.46 159.75 279.392 155.158 279.392 149.339C279.392 143.528 280.46 138.953 282.564 135.747C284.643 132.575 287.824 131.03 292.29 131.03C296.749 131.03 299.946 132.575 302.067 135.747C304.196 138.953 305.28 143.528 305.28 149.339ZM315.316 138.552C314.33 135.221 312.794 132.282 310.749 129.836C308.704 127.382 306.116 125.412 303.043 123.976C299.979 122.548 296.356 121.822 292.29 121.822C288.216 121.822 284.593 122.548 281.529 123.976C278.456 125.412 275.868 127.382 273.815 129.836C271.778 132.291 270.241 135.23 269.248 138.552C268.271 141.866 267.778 145.49 267.778 149.339C267.778 153.188 268.271 156.819 269.248 160.125C270.241 163.448 271.769 166.387 273.823 168.841C275.869 171.296 278.465 173.258 281.529 174.652C284.601 176.046 288.216 176.755 292.291 176.755C296.357 176.755 299.972 176.046 303.043 174.652C306.108 173.258 308.704 171.295 310.75 168.841C312.795 166.395 314.331 163.456 315.316 160.125C316.302 156.811 316.794 153.179 316.794 149.339C316.794 145.499 316.301 141.866 315.316 138.552ZM397.723 166.194C397.389 165.217 396.446 165.584 396.446 165.584C394.985 166.144 393.431 166.661 391.779 166.92C390.1 167.178 388.255 167.312 386.277 167.312C381.418 167.312 377.561 165.868 374.798 163.013C372.026 160.158 370.473 155.541 370.489 149.296C370.506 143.611 371.875 139.336 374.338 136.08C376.785 132.841 380.508 131.179 385.476 131.179C389.617 131.179 392.773 131.655 396.078 132.699C396.078 132.699 396.871 133.041 397.247 132.006C398.123 129.568 398.774 127.823 399.709 125.143C399.977 124.383 399.326 124.058 399.092 123.966C397.789 123.456 394.717 122.63 392.396 122.279C390.225 121.946 387.687 121.77 384.866 121.77C380.649 121.77 376.892 122.488 373.678 123.924C370.472 125.352 367.751 127.322 365.597 129.777C363.443 132.232 361.807 135.17 360.713 138.493C359.628 141.807 359.077 145.447 359.077 149.296C359.077 157.62 361.323 164.348 365.756 169.274C370.197 174.217 376.868 176.73 385.568 176.73C390.711 176.73 395.987 175.687 399.777 174.192C399.777 174.192 400.504 173.841 400.186 172.998L397.723 166.194ZM415.281 143.764C415.757 140.534 416.651 137.845 418.028 135.75C420.107 132.569 423.279 130.824 427.738 130.824C432.197 130.824 435.143 132.577 437.255 135.75C438.658 137.845 439.268 140.651 439.51 143.764H415.281ZM449.068 136.659C448.217 133.445 446.105 130.197 444.719 128.711C442.531 126.357 440.395 124.712 438.274 123.794C435.502 122.608 432.179 121.824 428.539 121.824C424.298 121.824 420.449 122.534 417.327 124.003C414.197 125.472 411.567 127.476 409.504 129.972C407.442 132.46 405.889 135.424 404.904 138.788C403.911 142.136 403.409 145.785 403.409 149.633C403.409 153.549 403.928 157.197 404.954 160.478C405.99 163.784 407.642 166.698 409.88 169.11C412.109 171.54 414.981 173.444 418.421 174.77C421.835 176.09 425.985 176.774 430.752 176.765C440.562 176.732 445.729 174.545 447.858 173.367C448.234 173.159 448.593 172.792 448.142 171.74L445.921 165.52C445.588 164.593 444.644 164.935 444.644 164.935C442.214 165.837 438.758 167.457 430.701 167.44C425.434 167.432 421.526 165.879 419.079 163.449C416.567 160.962 415.339 157.305 415.122 152.145L449.093 152.179C449.093 152.179 449.986 152.162 450.079 151.294C450.112 150.928 451.248 144.315 449.068 136.659ZM143.224 143.764C143.708 140.534 144.593 137.845 145.971 135.75C148.049 132.569 151.222 130.824 155.68 130.824C160.138 130.824 163.086 132.577 165.206 135.75C166.6 137.845 167.209 140.651 167.452 143.764H143.224ZM177.003 136.659C176.151 133.445 174.047 130.197 172.662 128.711C170.474 126.357 168.337 124.712 166.217 123.794C163.445 122.608 160.122 121.824 156.482 121.824C152.249 121.824 148.392 122.534 145.27 124.003C142.139 125.472 139.509 127.476 137.447 129.972C135.385 132.46 133.832 135.424 132.847 138.788C131.862 142.136 131.353 145.785 131.353 149.633C131.353 153.549 131.87 157.197 132.898 160.478C133.933 163.784 135.586 166.698 137.823 169.11C140.053 171.54 142.924 173.444 146.364 174.77C149.779 176.09 153.928 176.774 158.695 176.765C168.505 176.732 173.673 174.545 175.802 173.367C176.178 173.159 176.536 172.792 176.086 171.74L173.873 165.52C173.531 164.593 172.588 164.935 172.588 164.935C170.158 165.837 166.71 167.457 158.637 167.44C153.378 167.432 149.47 165.879 147.024 163.449C144.511 160.962 143.284 157.305 143.066 152.145L177.037 152.179C177.037 152.179 177.93 152.162 178.022 151.294C178.054 150.928 179.19 144.315 177.003 136.659ZM69.7965 166.008C68.4689 164.947 68.2853 164.68 67.8347 163.995C67.1665 162.952 66.8245 161.466 66.8245 159.579C66.8245 156.59 67.8095 154.445 69.8552 153C69.8305 153.009 72.7774 150.454 79.7065 150.546C84.5734 150.612 88.923 151.331 88.923 151.331V166.776H88.9312C88.9312 166.776 84.6151 167.702 79.7563 167.994C72.8436 168.412 69.7713 166 69.7965 166.008ZM83.3127 142.139C81.9352 142.038 80.1482 141.98 78.011 141.98C75.0976 141.98 72.284 142.347 69.6457 143.057C66.9911 143.766 64.6033 144.877 62.5494 146.346C60.4986 147.809 58.8131 149.726 57.6238 151.948C56.4217 154.185 55.8122 156.824 55.8122 159.779C55.8122 162.785 56.3296 165.398 57.3651 167.535C58.4005 169.681 59.8948 171.467 61.7979 172.845C63.6846 174.223 66.0143 175.232 68.7188 175.842C71.3823 176.452 74.4042 176.76 77.7106 176.76C81.1919 176.76 84.6649 176.477 88.0295 175.9C91.3605 175.332 95.4514 174.506 96.5866 174.247C97.3826 174.056 98.1758 173.852 98.9661 173.638C99.8097 173.43 99.7428 172.527 99.7428 172.527L99.7258 141.462C99.7258 134.649 97.906 129.598 94.3244 126.468C90.7592 123.345 85.508 121.767 78.7208 121.767C76.1741 121.767 72.0751 122.118 69.6205 122.61C69.6205 122.61 62.1986 124.047 59.1427 126.434C59.1427 126.434 58.475 126.852 58.8423 127.787L61.247 134.249C61.5474 135.084 62.3576 134.8 62.3576 134.8C62.3576 134.8 62.6163 134.7 62.9173 134.524C69.4545 130.968 77.7194 131.077 77.7194 131.077C81.3931 131.077 84.215 131.811 86.1181 133.272C87.9714 134.691 88.9147 136.836 88.9147 141.361V142.798C85.9926 142.38 83.3127 142.139 83.3127 142.139ZM357.302 124.635C357.56 123.866 357.018 123.499 356.792 123.416C356.217 123.191 353.328 122.581 351.099 122.439C346.833 122.18 344.463 122.898 342.341 123.85C340.237 124.802 337.9 126.337 336.597 128.083V123.95C336.597 123.374 336.188 122.915 335.62 122.915H326.912C326.345 122.915 325.936 123.374 325.936 123.95V174.618C325.936 175.186 326.404 175.654 326.971 175.654H335.896C336.169 175.652 336.431 175.542 336.623 175.348C336.816 175.154 336.924 174.892 336.923 174.618V149.305C336.923 145.907 337.299 142.518 338.05 140.389C338.785 138.285 339.787 136.599 341.022 135.388C342.266 134.186 343.677 133.343 345.222 132.867C346.799 132.382 348.544 132.224 349.78 132.224C351.558 132.224 353.512 132.683 353.512 132.683C354.162 132.758 354.53 132.357 354.747 131.765C355.332 130.212 356.985 125.561 357.302 124.635Z" fill="black"/>
<path d="M273.529 101.152C272.444 100.818 271.459 100.593 270.173 100.351C268.87 100.117 267.318 100 265.557 100C259.411 100 254.569 101.737 251.172 105.159C247.79 108.566 245.494 113.75 244.342 120.571L243.924 122.867H236.211C236.211 122.867 235.275 122.834 235.075 123.853L233.815 130.924C233.722 131.592 234.015 132.017 234.916 132.017H242.422L234.808 174.529C234.215 177.952 233.53 180.766 232.77 182.902C232.027 185.007 231.301 186.584 230.4 187.736C229.531 188.839 228.713 189.657 227.293 190.132C226.125 190.525 224.772 190.708 223.295 190.708C222.476 190.708 221.383 190.574 220.573 190.407C219.772 190.248 219.346 190.074 218.736 189.814C218.736 189.814 217.86 189.481 217.509 190.358C217.233 191.084 215.23 196.585 214.987 197.262C214.754 197.938 215.088 198.464 215.513 198.623C216.515 198.973 217.258 199.207 218.619 199.532C220.506 199.975 222.1 200 223.594 200C226.717 200 229.572 199.558 231.935 198.706C234.306 197.846 236.376 196.352 238.213 194.332C240.192 192.144 241.435 189.857 242.622 186.726C243.798 183.637 244.809 179.796 245.61 175.322L253.266 132.017H264.453C264.453 132.017 265.396 132.051 265.589 131.024L266.857 123.961C266.941 123.285 266.657 122.868 265.747 122.868H254.885C254.944 122.626 255.436 118.801 256.68 115.204C257.215 113.676 258.216 112.432 259.06 111.58C259.895 110.745 260.855 110.153 261.908 109.81C262.984 109.459 264.212 109.293 265.556 109.293C266.575 109.293 267.584 109.41 268.344 109.568C269.396 109.794 269.805 109.911 270.081 109.994C271.192 110.328 271.341 110.003 271.559 109.469L274.155 102.339C274.422 101.569 273.763 101.244 273.529 101.152ZM121.771 174.621C121.771 175.189 121.362 175.648 120.794 175.648H111.786C111.218 175.648 110.817 175.189 110.817 174.621V102.121C110.817 101.553 111.218 101.094 111.786 101.094H120.794C121.362 101.094 121.771 101.553 121.771 102.121V174.621Z" fill="black"/>
</svg>
