<svg width="469" height="300" viewBox="0 0 469 300" fill="none" xmlns="http://www.w3.org/2000/svg">
<g clip-path="url(#clip0_1652_7237)">
<path d="M194.427 130.739C189.227 130.739 184.356 132.051 180.121 134.376L182.497 132.373C182.497 132.373 182.827 130.739 180.968 130.739H162.826L146.497 144.505V101.202C146.497 101.202 145.673 99.084 143.697 100.603C141.697 102.146 129.649 112.229 129.649 112.229V130.716H124.496L108.167 144.482V101.202C108.167 101.202 107.343 99.084 105.367 100.603C103.367 102.146 91.3191 112.483 91.3191 112.483V138.635C86.0721 133.777 78.9662 130.808 71.1776 130.808C54.9658 130.808 41.8125 143.677 41.8125 159.538C41.8125 175.4 54.9658 188.269 71.1776 188.269C78.9662 188.269 86.0484 185.299 91.3191 180.442V188.269H108.167V170.957L124.496 188.269H146.497V170.957L162.826 188.269H181.815C184.45 188.269 182.85 186.589 182.85 186.589L181.791 185.484C185.627 187.279 189.909 188.269 194.45 188.269C210.686 188.269 223.862 175.377 223.862 159.492C223.862 143.608 210.686 130.716 194.45 130.716L194.427 130.739ZM58.801 159.561C58.801 152.885 64.3306 147.452 71.1776 147.452C78.0247 147.452 83.5306 152.862 83.5306 159.561C83.5306 166.261 78.0014 171.648 71.1776 171.648C64.3539 171.648 58.801 166.238 58.801 159.561ZM116.919 155.348C118.096 154.359 129.649 144.621 129.649 144.621V170.957C129.649 170.957 118.096 158.802 116.919 157.559C115.743 156.315 115.767 156.315 116.919 155.325V155.348ZM155.249 155.348C156.402 154.359 171.132 141.95 171.132 141.95C167.297 146.808 165.014 152.908 165.014 159.515C165.014 163.222 165.72 166.744 167.014 169.99C167.014 169.99 156.308 158.733 155.179 157.535C154.049 156.338 154.073 156.315 155.226 155.348H155.249ZM194.427 171.625C187.579 171.625 182.05 166.215 182.05 159.515C182.05 152.816 187.579 147.406 194.427 147.406C201.274 147.406 206.803 152.839 206.803 159.515C206.803 166.215 201.25 171.625 194.427 171.625Z" fill="#DF1E02"/>
<path d="M44.9888 138.464C44.9888 138.464 50.0241 131.925 58.1185 128.058C58.8478 127.828 59.3418 126.607 57.2244 126.607H37.9534V101.698C37.9534 99.4882 36.5416 99.3961 33.9063 101.652C31.9062 103.264 21.2708 112.196 21.2708 112.196V126.607H10V138.464H21.2472V162.936C21.2472 180.731 31.6709 194.728 42.024 200C44.7535 197.813 54.683 189.364 54.683 189.364L50.3067 186.348C42.824 181.146 37.9298 172.604 37.9298 162.936V138.464H44.9888Z" fill="#DF1E02"/>
<path d="M435.841 138.189V181.791H441.348V158.563C441.348 156.26 441.748 154.142 442.57 152.232C443.396 150.252 444.526 148.571 445.982 147.167C447.489 145.763 449.278 144.68 451.326 143.967C453.37 143.184 455.63 142.839 458.148 142.954V137.636C454.056 137.475 450.526 138.35 447.559 140.26C444.641 142.171 442.478 144.911 441.089 148.456H440.926V138.234H435.841V138.189Z" fill="#DF1E02"/>
<path d="M422.526 156.651H393.37C393.607 154.671 394.078 152.738 394.759 150.873C395.511 148.939 396.5 147.258 397.722 145.854C398.948 144.381 400.43 143.207 402.17 142.355C403.911 141.457 405.911 140.997 408.193 140.997C410.478 140.997 412.382 141.457 414.122 142.355C415.867 143.207 417.348 144.381 418.57 145.854C419.796 147.281 420.737 148.916 421.37 150.781C422.078 152.645 422.452 154.602 422.5 156.651H422.526ZM393.37 161.163H428.007C428.126 158.101 427.841 155.086 427.137 152.139C426.43 149.123 425.278 146.499 423.652 144.22C422.078 141.894 420.007 140.03 417.467 138.603C414.9 137.175 411.819 136.484 408.219 136.484C404.619 136.484 401.582 137.175 398.97 138.533C396.407 139.845 394.311 141.595 392.689 143.805C391.063 145.969 389.841 148.433 389.019 151.218C388.263 154.004 387.889 156.835 387.889 159.736C387.889 162.867 388.263 165.837 389.019 168.668C389.841 171.454 391.063 173.917 392.689 176.081C394.311 178.176 396.407 179.857 398.97 181.1C401.582 182.297 404.667 182.896 408.219 182.896C413.911 182.896 418.311 181.537 421.396 178.821C424.548 176.104 426.689 172.237 427.841 167.241H422.337C421.467 170.648 419.889 173.365 417.63 175.414C415.37 177.463 412.219 178.475 408.193 178.475C405.582 178.475 403.348 177.946 401.467 176.864C399.607 175.782 398.052 174.424 396.83 172.789C395.607 171.155 394.711 169.29 394.122 167.264C393.607 165.169 393.348 163.143 393.348 161.21L393.37 161.163Z" fill="#DF1E02"/>
<path d="M323.158 140.997C325.769 140.997 328.052 141.526 330.028 142.608C332.005 143.69 333.628 145.094 334.899 146.867C336.24 148.617 337.205 150.643 337.864 152.922C338.569 155.132 338.899 157.411 338.899 159.736C338.899 162.061 338.546 164.363 337.864 166.643C337.228 168.853 336.24 170.833 334.899 172.605C333.628 174.355 332.005 175.782 330.028 176.864C328.052 177.946 325.769 178.475 323.158 178.475C320.546 178.475 318.263 177.946 316.287 176.864C314.311 175.782 312.663 174.378 311.346 172.605C310.075 170.855 309.087 168.853 308.381 166.643C307.746 164.363 307.416 162.084 307.416 159.736C307.416 157.388 307.746 155.132 308.381 152.922C309.087 150.643 310.052 148.64 311.346 146.867C312.687 145.117 314.334 143.69 316.287 142.608C318.263 141.526 320.546 140.997 323.158 140.997ZM323.158 136.484C319.746 136.484 316.711 137.106 314.028 138.349C311.416 139.592 309.228 141.273 307.416 143.368C305.628 145.463 304.263 147.926 303.322 150.781C302.404 153.566 301.934 156.536 301.934 159.713C301.934 162.89 302.404 165.906 303.322 168.737C304.24 171.523 305.604 173.963 307.416 176.058C309.205 178.153 311.416 179.834 314.028 181.077C316.687 182.274 319.722 182.873 323.158 182.873C326.593 182.873 329.581 182.274 332.193 181.077C334.852 179.834 337.087 178.153 338.875 176.058C340.664 173.963 342.028 171.523 342.97 168.737C343.887 165.906 344.358 162.89 344.358 159.713C344.358 156.536 343.887 153.566 342.97 150.781C342.052 147.949 340.687 145.486 338.875 143.368C337.087 141.273 334.852 139.592 332.193 138.349C329.581 137.106 326.569 136.484 323.158 136.484Z" fill="#DF1E02"/>
<path d="M234.474 121.211V181.711H239.58V173.401H239.745C241.039 176.439 243.11 178.788 245.98 180.422C248.922 182.057 252.216 182.885 255.91 182.885C259.369 182.885 262.357 182.287 264.874 181.113C267.463 179.87 269.58 178.212 271.298 176.117C272.992 173.976 274.263 171.513 275.086 168.75C275.91 165.919 276.31 162.972 276.31 159.864C276.31 156.756 275.91 153.809 275.086 151.047C274.263 148.215 273.016 145.775 271.298 143.68C269.604 141.539 267.463 139.835 264.874 138.592C262.357 137.349 259.369 136.727 255.91 136.727C254.263 136.727 252.639 136.935 250.992 137.326C249.345 137.717 247.839 138.339 246.427 139.191C245.016 139.973 243.769 140.963 242.639 142.161C241.58 143.358 240.757 144.739 240.168 146.304H240.004V121.234H234.474V121.211ZM270.78 159.841C270.78 162.097 270.498 164.353 269.91 166.609C269.392 168.819 268.498 170.799 267.274 172.549C266.098 174.298 264.569 175.749 262.71 176.877C260.827 177.959 258.569 178.488 255.933 178.488C252.992 178.488 250.522 177.959 248.451 176.877C246.451 175.749 244.827 174.298 243.533 172.549C242.31 170.799 241.392 168.819 240.804 166.609C240.286 164.353 240.004 162.097 240.004 159.841C240.004 157.585 240.262 155.352 240.804 153.142C241.392 150.886 242.286 148.883 243.533 147.133C244.827 145.383 246.451 143.979 248.451 142.897C250.498 141.769 252.992 141.193 255.933 141.193C258.569 141.193 260.827 141.769 262.71 142.897C264.592 143.979 266.098 145.383 267.274 147.133C268.498 148.883 269.392 150.886 269.91 153.142C270.498 155.352 270.78 157.585 270.78 159.841Z" fill="#DF1E02"/>
<path d="M350.499 121.211V181.803H355.911V165.182L364.664 157.976L382.192 181.826H388.97L368.782 154.247L387.678 138.04H380.452L355.888 159.242V121.211H350.476H350.499Z" fill="#DF1E02"/>
<path d="M281.322 138.189V181.791H286.686V158.563C286.686 156.26 287.086 154.142 287.886 152.232C288.686 150.252 289.792 148.571 291.204 147.167C292.686 145.763 294.427 144.68 296.404 143.967C298.404 143.184 300.616 142.839 303.063 142.954V137.636C299.087 137.475 295.651 138.35 292.733 140.26C289.886 142.171 287.792 144.911 286.427 148.456H286.263V138.234H281.322V138.189Z" fill="#DF1E02"/>
</g>
<defs>
<clipPath id="clip0_1652_7237">
<rect width="448.148" height="100" fill="white" transform="translate(10 100)"/>
</clipPath>
</defs>
</svg>
