<svg width="370" height="300" viewBox="0 0 370 300" fill="none" xmlns="http://www.w3.org/2000/svg">
<g clip-path="url(#clip0_1652_7129)">
<path d="M87.1461 168.554L87.0933 168.39L119.871 138.382V123.924H67.2852V138.382H98.6957L98.747 138.52L66.2891 168.554V183.012H120.399V168.555L87.1461 168.554ZM152.683 122.548C146.618 122.548 141.674 123.462 137.854 125.293C134.295 126.887 131.297 129.514 129.248 132.833C127.289 136.174 126.059 139.891 125.638 143.741L141.593 145.984C142.171 142.583 143.325 140.174 145.056 138.755C147.025 137.27 149.451 136.519 151.914 136.634C155.152 136.634 157.501 137.499 158.961 139.231C160.408 140.962 161.143 143.36 161.143 146.521V148.096H145.801C137.992 148.096 132.382 149.827 128.97 153.291C125.559 156.753 123.857 161.326 123.863 167.005C123.863 172.822 125.565 177.152 128.972 179.992C132.377 182.831 136.659 184.242 141.818 184.225C148.219 184.225 153.144 182.023 156.589 177.617C158.624 174.911 160.077 171.814 160.857 168.52H161.437L163.636 182.978H178.094V146.364C178.094 138.797 176.1 132.936 172.111 128.782C168.124 124.625 161.647 122.547 152.683 122.547V122.548ZM157.741 167.679C155.446 169.593 152.442 170.545 148.701 170.545C145.619 170.545 143.478 170.005 142.278 168.926C141.693 168.416 141.228 167.783 140.915 167.072C140.602 166.362 140.45 165.591 140.468 164.815C140.434 164.083 140.55 163.351 140.807 162.665C141.065 161.979 141.459 161.352 141.967 160.823C142.515 160.309 143.162 159.91 143.869 159.653C144.576 159.395 145.327 159.284 146.078 159.325H161.168V160.321C161.199 161.728 160.906 163.124 160.311 164.4C159.717 165.676 158.837 166.797 157.741 167.679ZM265.518 123.924H248.437V183.02H265.518V123.924ZM366.37 123.924C361.545 123.924 357.742 125.627 354.96 129.033C352.964 131.479 351.445 135.095 350.406 139.879H349.904L347.671 123.924H333.083V183.012H350.165V152.71C350.165 148.89 351.059 145.96 352.848 143.923C354.638 141.886 357.939 140.867 362.752 140.867H369.236V123.924H366.37ZM316.13 125.855C312.143 123.483 307.112 122.3 301.041 122.306C291.483 122.306 284.002 125.026 278.6 130.469C273.197 135.912 270.497 143.415 270.497 152.98C270.359 158.762 271.622 164.491 274.176 169.68C276.515 174.304 280.156 178.141 284.651 180.718C289.177 183.333 294.558 184.643 300.799 184.649C306.195 184.649 310.703 183.818 314.321 182.156C317.723 180.663 320.687 178.322 322.927 175.358C325.06 172.449 326.644 169.175 327.601 165.697L312.885 161.577C312.264 163.838 311.072 165.901 309.421 167.568C307.759 169.229 304.973 170.061 301.067 170.061C296.421 170.061 292.957 168.731 290.678 166.069C289.022 164.147 287.985 161.403 287.527 157.845H327.827C327.992 156.182 328.078 154.788 328.078 153.663V149.983C328.175 145.04 327.155 140.139 325.092 135.646C323.16 131.554 320.036 128.141 316.13 125.855ZM300.548 136.391C307.473 136.391 311.399 139.799 312.33 146.616H287.829C288.218 144.342 289.16 142.197 290.574 140.373C292.819 137.713 296.144 136.386 300.548 136.391ZM257.164 100.107C255.879 100.063 254.598 100.278 253.398 100.739C252.197 101.2 251.102 101.897 250.177 102.79C249.265 103.692 248.551 104.774 248.079 105.966C247.606 107.158 247.386 108.436 247.432 109.717C247.386 111.007 247.606 112.293 248.079 113.494C248.552 114.695 249.267 115.785 250.181 116.697C251.094 117.61 252.185 118.324 253.387 118.796C254.588 119.268 255.874 119.487 257.164 119.439C258.445 119.487 259.723 119.268 260.915 118.795C262.108 118.323 263.189 117.607 264.09 116.694C264.984 115.772 265.682 114.678 266.142 113.479C266.601 112.28 266.814 110.999 266.765 109.716C266.825 108.44 266.618 107.166 266.157 105.975C265.696 104.785 264.991 103.703 264.088 102.8C263.185 101.896 262.104 101.191 260.913 100.729C259.722 100.267 258.448 100.058 257.172 100.116L257.164 100.107ZM221.876 122.306C216.058 122.306 211.382 124.132 207.85 127.786C205.234 130.492 203.316 134.533 202.093 139.906H201.548L199.313 123.951H184.726V199.999H201.807V168.675H202.43C202.951 170.764 203.682 172.795 204.612 174.736C206.057 177.899 208.427 180.549 211.41 182.337C214.501 184.024 217.983 184.864 221.503 184.77C228.655 184.77 234.099 181.984 237.839 176.416C241.58 170.846 243.451 163.074 243.451 153.1C243.451 143.467 241.64 135.926 238.022 130.477C234.403 125.03 229.021 122.306 221.876 122.306ZM223.607 165.126C221.615 168.012 218.499 169.454 214.257 169.454C212.508 169.535 210.764 169.198 209.172 168.471C207.579 167.743 206.182 166.647 205.097 165.273C202.885 162.497 201.784 158.695 201.791 153.87V152.746C201.791 147.845 202.893 144.093 205.097 141.49C207.301 138.887 210.356 137.6 214.257 137.629C218.575 137.629 221.71 138.999 223.668 141.741C225.625 144.483 226.602 148.306 226.602 153.212C226.615 158.286 225.622 162.257 223.624 165.126H223.607Z" fill="#201515"/>
<path d="M59.6832 168.555H0.586914V183.031H59.6832V168.555Z" fill="#FF4F00"/>
</g>
<defs>
<clipPath id="clip0_1652_7129">
<rect width="369.822" height="100" fill="white" transform="translate(0 100)"/>
</clipPath>
</defs>
</svg>
