<svg width="397" height="300" viewBox="0 0 397 300" fill="none" xmlns="http://www.w3.org/2000/svg">
<path d="M73.0337 101.883C33.988 101.883 2.31689 122.205 2.31689 147.212C2.31689 172.219 33.988 194.521 73.0337 194.521C112.079 194.521 143.751 172.285 143.751 147.212C143.751 122.139 112.079 101.883 73.0337 101.883Z" fill="#00BCFF"/>
<path d="M49.9885 133.229C49.9227 133.295 49.2642 134.021 49.7251 134.615C50.8445 136 54.2025 136.792 57.6264 136.066C59.6676 135.604 62.2355 133.559 64.8035 131.514C67.5689 129.336 70.2686 127.159 72.9682 126.301C75.8653 125.377 77.709 125.773 78.96 126.169C80.2769 126.565 81.8572 127.489 84.4251 129.336C89.1659 132.899 108.195 149.593 111.553 152.43C114.187 151.242 126.829 146.096 142.829 142.599C141.446 134.021 136.31 125.905 128.409 119.505C117.413 124.124 103.125 126.895 89.956 120.495C89.8902 120.495 82.779 117.13 75.7995 117.262C65.3961 117.526 60.8528 122.012 56.112 126.829L49.9885 133.229Z" fill="white"/>
<path d="M110.697 154.206C110.499 154.008 88.3098 134.543 83.2397 130.782C80.3426 128.605 78.6965 128.011 76.9845 127.813C76.1286 127.681 74.8775 127.879 74.0215 128.077C71.6511 128.737 68.6223 130.782 65.9227 132.894C63.0914 135.137 60.4576 137.248 58.0214 137.776C54.8608 138.502 51.0419 137.644 49.2641 136.457C48.5398 135.995 48.0789 135.401 47.8155 134.873C47.1571 133.355 48.3423 132.168 48.5398 131.97L54.6633 125.306C55.3876 124.58 56.1119 123.854 56.8362 123.194C54.8608 123.458 53.0172 123.986 51.2394 124.448C49.0007 125.042 46.8937 125.636 44.7208 125.636C43.799 125.636 38.9924 124.844 38.0705 124.58C32.5396 123.062 26.2186 121.611 18.9757 118.18C10.2842 124.646 4.62162 132.63 2.90967 141.603C4.16071 141.933 7.45293 142.659 8.3089 142.857C27.9964 147.278 34.1199 151.764 35.2392 152.688C36.4244 151.368 38.2022 150.511 40.1117 150.511C42.2846 150.511 44.2599 151.632 45.4451 153.282C46.5645 152.358 48.1447 151.632 50.1201 151.632C51.0419 151.632 51.9637 151.83 52.9514 152.094C55.1901 152.886 56.3094 154.338 56.902 155.657C57.6263 155.327 58.5481 155.063 59.6675 155.063C60.721 155.063 61.8403 155.327 62.9597 155.789C66.5811 157.373 67.1737 160.936 66.8445 163.641C67.1079 163.641 67.3713 163.575 67.6346 163.575C71.9145 163.575 75.4701 167.072 75.4701 171.427C75.4701 172.747 75.1409 174 74.5483 175.122C75.7335 175.782 78.6965 177.299 81.3303 176.969C83.4373 176.705 84.2274 175.98 84.4908 175.584C84.6883 175.32 84.8859 174.99 84.6883 174.726L79.1574 168.524C79.1574 168.524 78.2356 167.666 78.5648 167.336C78.894 167.006 79.4208 167.468 79.8158 167.798C82.6472 170.173 86.0711 173.736 86.0711 173.736C86.1369 173.802 86.3344 174.198 87.6513 174.462C88.7707 174.66 90.6802 174.528 92.0629 173.406C92.3921 173.142 92.7213 172.747 93.0506 172.417L92.9847 172.483C94.4333 170.635 92.853 168.788 92.853 168.788L86.3344 161.464C86.3344 161.464 85.4126 160.606 85.7418 160.276C86.0052 159.946 86.5978 160.408 87.0587 160.738C89.0999 162.453 91.9971 165.357 94.8284 168.128C95.3551 168.524 97.7914 170.041 101.084 167.93C103.059 166.61 103.454 165.027 103.388 163.839C103.256 162.255 102.005 161.134 102.005 161.134L93.1164 152.226C93.1164 152.226 92.1946 151.434 92.5238 151.039C92.7872 150.709 93.3798 151.171 93.7748 151.5C96.6062 153.876 104.244 160.87 104.244 160.87C104.376 160.936 107.01 162.849 110.236 160.738C111.421 160.012 112.145 158.89 112.211 157.571C112.277 155.525 110.697 154.206 110.697 154.206Z" fill="white"/>
<path d="M67.7002 165.498C66.3175 165.498 64.8031 166.289 64.6056 166.157C64.4739 166.091 64.6714 165.564 64.8031 165.234C64.9348 164.904 66.7126 159.493 62.3669 157.58C59.0088 156.128 56.9018 157.778 56.2433 158.503C56.0458 158.701 55.98 158.701 55.98 158.437C55.9141 157.448 55.4532 154.809 52.5561 153.885C48.4079 152.631 45.7082 155.534 45.0498 156.59C44.7206 154.215 42.7452 152.367 40.309 152.367C37.6094 152.367 35.5024 154.545 35.4365 157.184C35.4365 159.889 37.6094 162 40.2432 162C41.56 162 42.7452 161.473 43.6012 160.681C43.6012 160.681 43.6671 160.747 43.6012 160.813C43.4037 162 43.0086 166.355 47.5519 168.137C49.3955 168.863 50.9099 168.335 52.2268 167.411C52.6219 167.147 52.6877 167.279 52.6219 167.609C52.4244 168.731 52.6877 171.106 56.0458 172.492C58.6137 173.547 60.1282 172.492 61.1158 171.568C61.5767 171.172 61.6426 171.238 61.7084 171.832C61.8401 175.065 64.5397 177.638 67.7661 177.638C71.1242 177.638 73.8238 174.933 73.8238 171.568C73.7579 168.269 71.0583 165.564 67.7002 165.498Z" fill="white"/>
<path d="M73.0337 100.039C33.2637 100.039 1 121.219 1 147.282C1 147.942 1 149.789 1 150.053C1 177.633 29.1814 200.001 73.0337 200.001C116.886 200.001 145.067 177.633 145.067 150.053V147.282C145.067 121.219 112.804 100.039 73.0337 100.039ZM141.775 142.003C126.104 145.5 114.45 150.581 111.487 151.835C104.639 145.83 88.8364 132.106 84.5565 128.873C82.1202 127.026 80.4741 126.036 78.9597 125.64C78.3013 125.442 77.3794 125.244 76.1942 125.244C75.0749 125.244 73.9555 125.442 72.7045 125.838C69.939 126.696 67.1736 128.939 64.5398 131.05V131.116C62.0377 133.096 59.4698 135.141 57.5603 135.603C56.7043 135.801 55.8483 135.867 54.9924 135.867C52.8195 135.867 50.8442 135.207 50.1199 134.284C49.9882 134.152 50.054 133.888 50.3833 133.492L50.4491 133.426L56.4409 126.96C61.1817 122.209 65.5933 117.788 75.865 117.524C76.0626 117.524 76.1942 117.524 76.3918 117.524C82.7787 117.524 89.1656 120.361 89.824 120.691C95.8159 123.595 101.939 125.112 108.195 125.112C114.647 125.112 121.298 123.529 128.277 120.295C135.454 126.498 140.327 133.954 141.775 142.003ZM73.0337 102.81C94.1697 102.81 113.067 108.881 125.775 118.448C119.652 121.087 113.791 122.473 108.129 122.473C102.334 122.473 96.5401 121.087 90.9434 118.316C90.68 118.184 83.6347 114.819 76.2601 114.819C76.0626 114.819 75.865 114.819 75.6675 114.819C67.0419 115.017 62.2352 118.052 58.943 120.757C55.7825 120.823 53.017 121.615 50.5808 122.275C48.4079 122.869 46.5643 123.397 44.7206 123.397C43.9964 123.397 42.6136 123.331 42.4819 123.331C40.3749 123.265 29.8398 120.691 21.4117 117.524C34.1855 108.485 52.5561 102.81 73.0337 102.81ZM19.0414 119.372C27.7986 123.001 38.4654 125.772 41.8893 125.97C42.8112 126.036 43.7988 126.168 44.8523 126.168C47.091 126.168 49.3297 125.508 51.5026 124.914C52.7537 124.584 54.2022 124.188 55.6508 123.858C55.2557 124.254 54.8607 124.65 54.4656 125.046L48.3421 131.644C47.8812 132.106 46.8277 133.426 47.4861 135.009C47.7495 135.669 48.3421 136.263 49.0664 136.791C50.5149 137.781 53.1487 138.44 55.5191 138.44C56.4409 138.44 57.2969 138.374 58.087 138.176C60.655 137.583 63.3546 135.471 66.1859 133.162C68.4246 131.38 71.651 129.071 74.1531 128.411C74.8774 128.213 75.6675 128.081 76.3918 128.081C76.5893 128.081 76.7868 128.081 76.9844 128.147C78.6305 128.345 80.2107 128.939 82.9762 131.05C87.9804 134.811 110.17 154.276 110.367 154.474C110.367 154.474 111.816 155.728 111.684 157.773C111.619 158.895 111.026 159.884 109.907 160.61C108.985 161.204 107.997 161.534 107.009 161.534C105.495 161.534 104.507 160.808 104.441 160.808C104.376 160.742 96.7377 153.748 93.9722 151.373C93.5113 150.977 93.1162 150.647 92.6553 150.647C92.3919 150.647 92.1944 150.779 92.0627 150.911C91.6018 151.439 92.1286 152.231 92.7212 152.692L101.61 161.666C101.61 161.666 102.73 162.722 102.861 164.107C102.927 165.559 102.203 166.812 100.754 167.802C99.7007 168.528 98.6472 168.858 97.5937 168.858C96.2109 168.858 95.2891 168.264 95.0916 168.066L93.8405 166.812C91.536 164.503 89.0997 162.128 87.3219 160.676C86.861 160.346 86.466 160.016 86.0051 160.016C85.8075 160.016 85.61 160.082 85.4124 160.28C85.2149 160.478 85.0832 160.874 85.5441 161.6C85.7417 161.864 86.0051 162.128 86.0051 162.128L92.4578 169.452C92.5236 169.518 93.7747 171.035 92.5895 172.553L92.3261 172.817C92.1286 173.015 91.931 173.213 91.7335 173.411C90.6142 174.334 89.1656 174.4 88.573 174.4C88.2438 174.4 87.9804 174.4 87.717 174.334C87.0586 174.202 86.6635 174.07 86.466 173.807L86.4001 173.741C86.0709 173.345 82.7787 170.046 80.0791 167.802C79.7498 167.472 79.2889 167.142 78.828 167.142C78.6305 167.142 78.433 167.208 78.2354 167.406C77.7087 168 78.4988 168.858 78.828 169.188L84.3589 175.324C84.3589 175.39 84.2931 175.522 84.1614 175.72C83.9639 175.984 83.3054 176.644 81.2643 176.908C81.0009 176.908 80.8033 176.974 80.54 176.974C78.4988 176.974 76.2601 175.984 75.1407 175.39C75.6675 174.268 75.9309 173.081 75.9309 171.893C75.9309 167.34 72.2436 163.645 67.7003 163.645C67.6345 163.645 67.5028 163.645 67.4369 163.645C67.5686 161.534 67.3053 157.641 63.2229 155.86C62.0377 155.332 60.9184 155.068 59.799 155.068C58.943 155.068 58.087 155.2 57.2969 155.53C56.4409 153.88 55.0582 152.692 53.2804 152.099C52.2927 151.769 51.3051 151.571 50.3174 151.571C48.6055 151.571 47.091 152.099 45.7083 153.022C44.3914 151.373 42.4161 150.383 40.3091 150.383C38.4654 150.383 36.6876 151.109 35.3707 152.428C33.6588 151.109 26.811 146.754 8.5721 142.597C7.71612 142.399 5.74079 141.805 4.48975 141.476C6.07001 133.096 11.2717 125.574 19.0414 119.372ZM52.8853 167.076L52.6878 166.878H52.4903C52.3586 166.878 52.1611 166.944 51.9635 167.076C51.0417 167.736 50.1199 168.066 49.2639 168.066C48.7372 168.066 48.2762 167.934 47.7495 167.802C43.5354 166.153 43.8647 162.128 44.0622 160.94C44.0622 160.676 44.0622 160.478 43.8647 160.346L43.5354 160.082L43.2721 160.346C42.4161 161.138 41.3626 161.6 40.2432 161.6C37.807 161.6 35.8317 159.62 35.8317 157.179C35.8317 154.738 37.807 152.758 40.2432 152.758C42.4161 152.758 44.3256 154.408 44.589 156.585L44.7206 157.773L45.3791 156.783C45.4449 156.651 47.2227 153.946 50.5149 153.946C51.1075 153.946 51.766 154.078 52.4244 154.276C55.0582 155.068 55.4533 157.443 55.5191 158.433C55.585 159.027 55.98 159.027 56.0459 159.027C56.2434 159.027 56.4409 158.895 56.5726 158.763C57.0335 158.235 58.1529 157.377 59.799 157.377C60.5891 157.377 61.3793 157.575 62.2352 157.905C66.3834 159.686 64.4739 164.965 64.4739 165.031C64.1447 165.889 64.0789 166.285 64.4081 166.483L64.5398 166.549H64.6715C64.869 166.549 65.0665 166.483 65.4616 166.351C66.0542 166.153 66.8443 165.889 67.7003 165.889C70.795 165.955 73.3629 168.462 73.3629 171.563C73.3629 174.664 70.795 177.238 67.7003 177.238C64.6715 177.238 62.1694 174.862 62.0377 171.827C62.0377 171.563 61.9719 170.903 61.4451 170.903C61.1817 170.903 60.9842 171.035 60.7867 171.233C60.1282 171.827 59.2722 172.487 58.0212 172.487C57.4286 172.487 56.836 172.355 56.1776 172.091C52.9512 170.771 52.8853 168.594 53.017 167.67C53.017 167.472 53.0829 167.274 52.8853 167.076ZM73.0337 191.622C34.7781 191.622 3.76546 171.761 3.76546 147.216C3.76546 146.226 3.83131 145.236 3.963 144.247C4.29222 144.313 7.32106 145.039 7.91366 145.171C26.5476 149.327 32.737 153.616 33.7905 154.474C33.4613 155.332 33.2637 156.255 33.2637 157.179C33.2637 161.072 36.4243 164.173 40.2432 164.173C40.7041 164.173 41.0992 164.107 41.5601 164.041C42.1527 166.878 43.9964 169.056 46.8277 170.178C47.6836 170.507 48.4738 170.639 49.3298 170.639C49.8565 170.639 50.3833 170.573 50.91 170.441C51.4368 171.761 52.622 173.411 55.2557 174.532C56.1776 174.928 57.0994 175.126 58.0212 175.126C58.7455 175.126 59.4698 174.994 60.1282 174.73C61.3793 177.831 64.4081 179.877 67.7662 179.877C70.0049 179.877 72.1119 178.953 73.6922 177.37C75.009 178.095 77.8404 179.481 80.6717 179.481C81.0667 179.481 81.3959 179.481 81.7252 179.415C84.5565 179.085 85.8734 177.963 86.466 177.106C86.5977 176.974 86.6635 176.776 86.7293 176.644C87.3878 176.842 88.1121 176.974 88.968 176.974C90.4825 176.974 91.9969 176.446 93.5113 175.39C94.9599 174.334 96.0134 172.817 96.1451 171.497V171.431C96.6718 171.563 97.1327 171.563 97.6595 171.563C99.2398 171.563 100.82 171.101 102.269 170.112C105.166 168.198 105.627 165.757 105.627 164.173C106.153 164.305 106.614 164.305 107.141 164.305C108.656 164.305 110.104 163.843 111.487 162.986C113.265 161.864 114.318 160.082 114.516 158.037C114.647 156.651 114.252 155.266 113.528 154.078C118.335 152.033 129.331 148.008 142.236 145.039C142.302 145.764 142.302 146.49 142.302 147.282C142.302 171.761 111.289 191.622 73.0337 191.622Z" fill="#0A0080"/>
<path d="M392.049 114.552C389.416 111.253 385.465 109.604 380.132 109.604C374.798 109.604 370.848 111.253 368.214 114.552C365.58 117.852 364.263 121.744 364.263 126.165C364.263 130.652 365.58 134.611 368.214 137.844C370.848 141.077 374.798 142.727 380.132 142.727C385.465 142.727 389.416 141.077 392.049 137.844C394.683 134.611 396 130.718 396 126.165C396 121.613 394.683 117.852 392.049 114.552ZM385.597 133.423C384.346 135.139 382.502 135.931 380.132 135.931C377.761 135.931 375.918 135.073 374.667 133.423C373.416 131.708 372.757 129.332 372.757 126.231C372.757 123.13 373.416 120.755 374.667 119.039C375.918 117.39 377.761 116.532 380.132 116.532C382.502 116.532 384.346 117.39 385.597 119.039C386.848 120.689 387.506 123.13 387.506 126.231C387.506 129.332 386.848 131.708 385.597 133.423ZM325.217 111.781C322.584 110.462 319.555 109.736 316.131 109.736C310.863 109.736 307.176 111.121 305.003 113.827C303.621 115.608 302.896 117.852 302.699 120.557H310.534C310.732 119.369 311.127 118.379 311.719 117.72C312.51 116.796 313.892 116.268 315.868 116.268C317.58 116.268 318.896 116.532 319.818 116.994C320.74 117.456 321.135 118.379 321.135 119.633C321.135 120.689 320.543 121.481 319.357 121.942C318.699 122.206 317.645 122.47 316.131 122.668L313.365 122.998C310.205 123.394 307.835 124.054 306.188 124.978C303.225 126.693 301.711 129.464 301.711 133.291C301.711 136.26 302.633 138.504 304.477 140.153C306.32 141.737 308.691 142.463 311.522 142.595C329.3 143.386 329.102 133.225 329.234 131.114V119.435C329.168 115.74 327.851 113.167 325.217 111.781ZM321.069 129.53C321.003 132.236 320.213 134.149 318.765 135.139C317.25 136.194 315.604 136.656 313.826 136.656C312.707 136.656 311.719 136.326 310.995 135.733C310.205 135.139 309.81 134.083 309.81 132.697C309.81 131.114 310.468 129.992 311.719 129.266C312.51 128.805 313.695 128.475 315.473 128.145L317.316 127.815C318.238 127.617 318.962 127.419 319.489 127.221C320.016 127.023 320.543 126.759 321.069 126.429V129.53ZM284.723 116.73C286.764 116.73 288.213 117.39 289.201 118.643C289.859 119.567 290.254 120.623 290.452 121.81H299.209C298.748 117.39 297.168 114.289 294.6 112.573C291.966 110.858 288.608 109.934 284.526 109.934C279.719 109.934 275.9 111.385 273.2 114.355C270.435 117.324 269.118 121.481 269.118 126.825C269.118 131.51 270.369 135.403 272.871 138.372C275.373 141.341 279.192 142.793 284.46 142.793C289.727 142.793 293.678 141.011 296.378 137.448C298.09 135.271 299.011 132.895 299.209 130.454H290.386C290.188 132.104 289.727 133.423 288.871 134.479C288.015 135.469 286.633 135.997 284.592 135.997C281.76 135.997 279.851 134.677 278.797 132.104C278.205 130.718 277.941 128.871 277.941 126.627C277.941 124.384 278.205 122.338 278.797 120.887C279.851 118.115 281.826 116.73 284.723 116.73ZM266.682 109.868C248.706 109.868 249.76 125.835 249.76 125.835V142.067H257.925V126.891C257.925 124.384 258.254 122.536 258.846 121.349C259.966 119.237 262.139 118.181 265.431 118.181C265.694 118.181 266.023 118.181 266.418 118.247C266.814 118.247 267.274 118.313 267.801 118.379V110.066C267.472 110.066 267.209 110 267.077 110C266.945 109.868 266.814 109.868 266.682 109.868ZM243.241 115.938C241.859 113.827 240.015 112.309 237.908 111.319C235.735 110.33 233.299 109.868 230.599 109.868C226.056 109.868 222.369 111.319 219.537 114.157C216.706 117.06 215.257 121.151 215.257 126.561C215.257 132.302 216.838 136.458 219.998 139.032C223.159 141.605 226.78 142.859 230.928 142.859C235.933 142.859 239.817 141.341 242.583 138.306C244.097 136.722 245.019 135.139 245.414 133.621H236.723C236.393 134.083 235.998 134.545 235.603 134.875C234.418 135.799 232.904 136.128 231.06 136.128C229.348 136.128 227.965 135.865 226.714 135.073C224.673 133.819 223.554 131.708 223.422 128.607H246.007C246.007 125.901 245.941 123.856 245.743 122.404C245.348 119.897 244.492 117.786 243.241 115.938ZM223.554 123.13C223.817 121.085 224.541 119.501 225.727 118.313C226.846 117.126 228.492 116.532 230.599 116.532C232.509 116.532 234.089 117.06 235.406 118.181C236.723 119.303 237.381 120.953 237.579 123.064H223.554V123.13ZM198.994 109.736C195.175 109.736 191.949 111.385 189.71 114.091C187.603 111.451 184.376 109.736 180.426 109.736C172.459 109.736 167.323 115.608 167.323 123.394V142.001H174.763V123.196C174.763 119.765 177.068 117.39 180.426 117.39C185.364 117.39 185.825 121.481 185.825 123.196V142.001H193.265V123.196C193.265 119.765 195.636 117.39 198.928 117.39C203.866 117.39 204.393 121.481 204.393 123.196V142.001H211.834V123.394C211.965 115.41 207.159 109.736 198.994 109.736ZM353.662 105.777V114.552C352.74 113.101 351.555 111.913 350.107 111.121C348.658 110.33 347.012 109.868 345.102 109.868C341.02 109.868 337.794 111.385 335.357 114.421C332.921 117.456 331.67 121.876 331.67 127.155C331.67 131.774 332.921 135.535 335.357 138.438C337.86 141.341 342.666 142.661 347.012 142.661C362.024 142.661 361.893 129.728 361.893 129.728V100.037C361.893 100.037 353.662 99.1788 353.662 105.777ZM352.082 133.489C350.897 135.205 349.119 136.063 346.88 136.063C344.642 136.063 342.864 135.205 341.744 133.489C340.625 131.774 340.032 129.266 340.032 126.363C340.032 123.724 340.559 121.481 341.679 119.699C342.798 117.918 344.51 116.994 346.88 116.994C348.461 116.994 349.777 117.456 350.963 118.445C352.872 120.095 353.86 122.998 353.86 126.825C353.926 129.53 353.267 131.774 352.082 133.489ZM184.574 154.537C177.858 154.207 174.434 155.857 172.261 157.507C169.232 159.816 167.323 163.313 167.323 168.855V197.293H171.273C172.327 197.293 173.38 196.898 174.171 196.238C175.027 195.446 175.487 194.456 175.487 193.269V182.58C176.475 184.229 177.726 185.483 179.306 186.275C180.821 187 182.599 187.33 184.574 187.33C188.327 187.33 191.422 185.813 193.792 182.843C196.163 179.742 197.414 175.717 197.414 170.769C197.414 165.754 196.294 162.257 193.529 158.892C191.422 156.187 188.064 154.669 184.574 154.537ZM187.405 177.829C186.22 179.478 184.574 180.336 182.467 180.336C180.228 180.336 178.516 179.544 177.331 177.829C176.146 176.311 175.553 174.068 175.553 171.099C175.553 167.866 176.08 165.49 177.199 163.973C178.385 162.323 180.097 161.465 182.269 161.465C184.442 161.465 186.22 162.323 187.405 163.973C188.59 165.622 189.183 167.998 189.183 171.099C189.183 173.936 188.59 176.179 187.405 177.829ZM254.698 157.441C251.933 155.329 249.101 154.207 244.229 154.339C239.291 154.471 235.669 155.857 233.43 158.892C231.192 161.927 230.072 165.886 230.072 170.769C230.072 174.926 230.928 178.357 232.574 180.93C234.286 183.503 236.262 185.285 238.632 186.209C241.003 187.132 243.373 187.33 245.743 186.802C248.114 186.275 250.023 184.889 251.472 182.646V184.625C251.34 187.132 250.682 189.046 249.628 190.299C248.575 191.553 247.389 192.345 246.073 192.609C244.756 192.873 243.505 192.741 242.188 192.147C240.871 191.553 239.949 190.695 239.291 189.574H230.665C232.904 196.304 236.92 199.273 244.097 199.735C255.686 200.593 259.439 190.695 259.439 185.417V168.723C259.571 163.313 257.727 159.75 254.698 157.441ZM251.274 173.87C250.945 175.717 250.484 177.103 249.76 177.961C248.245 180.006 245.941 180.732 242.846 180.138C239.686 179.544 238.105 176.509 238.105 171.099C238.105 168.591 238.566 166.348 239.488 164.369C240.41 162.389 242.254 161.399 244.887 161.399C246.863 161.399 248.377 162.125 249.365 163.511C250.418 164.962 251.011 166.546 251.34 168.394C251.604 170.175 251.604 172.022 251.274 173.87ZM223.093 156.649C220.459 155.329 217.43 154.603 214.006 154.603C208.739 154.603 205.052 155.989 202.879 158.694C201.496 160.476 200.772 162.719 200.574 165.424H208.41C208.607 164.237 209.002 163.247 209.595 162.587C210.385 161.663 211.768 161.136 213.743 161.136C215.455 161.136 216.772 161.399 217.694 161.861C218.615 162.323 219.011 163.247 219.011 164.501C219.011 165.556 218.418 166.348 217.233 166.81C216.574 167.074 215.521 167.338 214.006 167.536L211.241 167.866C208.08 168.262 205.644 168.921 204.064 169.845C201.101 171.561 199.586 174.332 199.586 178.159C199.586 181.128 200.508 183.371 202.352 185.021C204.196 186.604 206.566 187.33 209.397 187.462C227.109 188.254 226.912 178.093 227.109 175.981V164.303C227.109 160.542 225.793 157.968 223.093 156.649ZM218.945 174.398C218.879 177.103 218.089 179.017 216.64 180.006C215.126 181.062 213.48 181.524 211.702 181.524C210.582 181.524 209.661 181.194 208.871 180.6C208.08 180.006 207.685 178.951 207.685 177.565C207.685 175.981 208.344 174.86 209.595 174.134C210.385 173.672 211.57 173.342 213.348 173.012L215.192 172.682C216.113 172.484 216.838 172.352 217.364 172.088C217.891 171.891 218.418 171.627 218.945 171.297V174.398ZM290.386 159.222C287.752 155.923 283.801 154.273 278.468 154.273C273.135 154.273 269.184 155.923 266.55 159.222C263.916 162.521 262.6 166.414 262.6 170.835C262.6 175.256 263.916 179.28 266.55 182.514C269.184 185.747 273.135 187.33 278.468 187.33C283.801 187.33 287.752 185.681 290.386 182.514C293.02 179.28 294.336 175.388 294.336 170.835C294.336 166.282 293.02 162.521 290.386 159.222ZM283.933 178.027C282.682 179.742 280.838 180.534 278.468 180.534C276.098 180.534 274.254 179.676 273.003 178.027C271.686 176.311 271.093 173.936 271.093 170.835C271.093 167.734 271.752 165.358 273.003 163.643C274.254 161.993 276.098 161.136 278.468 161.136C280.838 161.136 282.682 161.993 283.933 163.643C285.184 165.292 285.843 167.734 285.843 170.835C285.843 174.002 285.184 176.377 283.933 178.027Z" fill="#0A0080"/>
</svg>
