<svg width="503" height="300" viewBox="0 0 503 300" fill="none" xmlns="http://www.w3.org/2000/svg">
<g clip-path="url(#clip0_1652_7031)">
<path d="M80.0403 118.594H91.9947V145.196H117.207V118.594H129.177V183.893H117.207V156.733H91.9947V183.893H80.0403V118.594ZM167.049 162.624C167.049 168.091 162.603 172.539 157.146 172.539C151.688 172.539 147.244 168.091 147.244 162.624V134.511H135.907V162.624C135.907 174.353 145.436 183.893 157.146 183.893C168.854 183.893 178.382 174.353 178.382 162.624V134.511H167.049V162.624ZM210.031 134.84C204.407 134.84 200.482 136.474 196.691 140.202V118.594H185.317V158.639C185.317 173.628 196.137 183.893 208.293 183.893C221.807 183.893 233.648 173.445 233.648 159.367C233.648 145.468 222.729 134.84 210.031 134.84ZM210.313 173.354C202.606 173.354 196.713 166.907 196.713 159.367C196.713 151.826 202.606 145.377 210.313 145.377C216.844 145.377 222.741 151.826 222.741 159.367C222.741 166.907 216.844 173.354 210.313 173.354ZM252.751 137.71C252.751 131.983 256.56 130.168 260.731 130.168C264.088 130.168 268.531 132.711 271.431 135.8L278.866 127.08C275.15 122.085 267.624 118.632 261.457 118.632C249.121 118.632 240.233 125.809 240.233 137.71C240.233 159.783 267.351 152.786 267.351 165.143C267.351 168.954 263.634 172.319 259.374 172.319C252.66 172.319 250.482 169.048 247.4 165.596L239.145 174.133C244.409 180.583 250.936 183.855 258.737 183.855C270.436 183.855 279.868 176.588 279.868 165.231C279.868 140.706 252.751 148.337 252.751 137.71ZM309.811 134.2C297.656 134.2 286.835 144.459 286.835 159.452V199.6H298.208V177.89C301.999 181.614 305.923 183.251 311.549 183.251C324.246 183.251 335.166 172.625 335.166 158.725C335.166 144.646 323.322 134.2 309.811 134.2ZM311.832 172.716C304.126 172.716 298.231 166.26 298.231 158.725C298.231 151.184 304.126 144.735 311.832 144.735C318.361 144.735 324.258 151.184 324.258 158.725C324.258 166.26 318.361 172.716 311.832 172.716ZM418.886 173.354C412.177 173.354 410.273 170.449 410.273 165.996V146.285H420.7V136.294H410.273V123.121L398.758 128.298V168.449C398.758 178.715 405.83 183.893 415.529 183.893C416.98 183.893 418.978 183.799 420.068 183.53L422.879 173.176C421.61 173.264 420.159 173.354 418.886 173.354Z" fill="#45535E"/>
<path d="M388.892 146.867C386.711 143.109 383.644 140.097 379.81 137.829C376.944 136.159 373.973 135.098 370.625 134.643V122.704C373.973 121.28 376.051 118.129 376.051 114.452C376.051 109.44 372.039 105.379 367.039 105.379C362.036 105.379 357.953 109.44 357.953 114.452C357.953 118.129 359.911 121.28 363.259 122.704V134.648C360.58 135.036 357.803 135.872 355.266 137.157C350.085 133.216 333.096 120.287 323.158 112.735C323.394 111.884 323.575 111.007 323.575 110.081C323.575 104.53 319.087 100.031 313.543 100.031C307.999 100.031 303.513 104.53 303.513 110.081C303.513 115.631 308.004 120.132 313.548 120.132C315.439 120.132 317.188 119.578 318.698 118.667L320.795 120.261L349.614 141.058C348.09 142.459 346.671 144.053 345.536 145.841C343.236 149.486 341.83 153.497 341.83 157.872V158.785C341.83 161.857 342.413 164.756 343.405 167.48C344.279 169.858 345.557 172.021 347.139 173.976L337.575 183.579C336.189 183.062 334.683 182.956 333.239 183.274C331.794 183.591 330.471 184.318 329.428 185.368C328.706 186.088 328.133 186.944 327.744 187.887C327.354 188.83 327.156 189.841 327.159 190.862C327.16 192.936 327.967 194.886 329.432 196.353C330.15 197.077 331.005 197.651 331.946 198.041C332.887 198.432 333.896 198.632 334.915 198.629C335.934 198.632 336.944 198.432 337.885 198.041C338.827 197.65 339.681 197.077 340.4 196.353C341.122 195.633 341.694 194.777 342.084 193.835C342.473 192.892 342.673 191.882 342.67 190.862C342.67 190.059 342.546 189.275 342.313 188.531L352.199 178.628C353.555 179.565 355.018 180.355 356.592 181.036C359.696 182.38 363.122 183.199 366.871 183.199H367.558C371.703 183.199 375.613 182.223 379.289 180.229C383.162 178.121 386.194 175.238 388.484 171.558C390.786 167.867 392.054 163.79 392.054 159.304V159.08C392.054 154.668 391.034 150.597 388.892 146.867ZM376.813 167.641C374.129 170.627 371.045 172.467 367.558 172.467H366.984C364.992 172.467 363.044 171.916 361.137 170.913C358.987 169.809 357.353 168.234 356.016 166.24C354.634 164.283 353.884 162.146 353.884 159.881V159.192C353.884 156.965 354.311 154.853 355.386 152.858C356.536 150.678 358.089 148.982 360.154 147.634C362.182 146.295 364.347 145.639 366.759 145.639H366.984C369.171 145.639 371.241 146.071 373.195 147.072C375.186 148.14 376.813 149.598 378.073 151.517C379.298 153.437 380.027 155.508 380.261 157.763C380.298 158.232 380.317 158.712 380.317 159.171C380.317 162.232 379.149 165.067 376.813 167.641Z" fill="#F8761F"/>
</g>
<defs>
<clipPath id="clip0_1652_7031">
<rect width="342.857" height="100" fill="white" transform="translate(80 100)"/>
</clipPath>
</defs>
</svg>
