<svg width="899" height="369" viewBox="0 0 899 369" fill="none" xmlns="http://www.w3.org/2000/svg">
<path fill-rule="evenodd" clip-rule="evenodd" d="M322.9 125.6V224.5H347.2H371.5V186.5C371.5 161.4 371.5 147.7 371.5 146.2C372.3 142.4 373 138.6 375.3 135.5C378.3 130.2 383.7 127.9 389.8 128.7C398.2 129.5 403.5 134 405 143.9C405 145.4 405 160.6 405 185V223.8H429.3H453.6V178.2C453.6 139.4 453.6 131.8 452.8 128C451.3 114.3 446.7 103.7 438.3 96.0002C431.5 89.2002 423.1 85.3002 413.2 83.8002C409.4 83.0002 398.7 83.8002 395.7 84.6002C386.6 86.9002 379.7 89.9002 373.6 96.8002L369.8 99.8002V63.3002V26.8002H345.5H321.2V125.7H322.9V125.6ZM840.3 28.2002C838.8 31.2002 789.3 150.7 789.3 150.7C789.3 150.7 802.2 150.7 818.2 150.7H847.1L873 89.1002C887.5 54.9002 898.9 26.7002 898.9 26.7002C898.9 26.7002 886 26.7002 870 26.7002H841L840.3 28.2002ZM216.4 84.5002C205.7 86.0002 197.4 89.1002 189 94.4002C172.3 105.1 161.6 123.3 158.6 144.6C157.1 154.5 157.8 166.7 160.1 175.8C166.2 199.4 182.2 217.6 202.7 224.5C210.3 226.8 213.4 227.5 222.5 227.5C229.3 227.5 231.6 227.5 233.9 226.7C243.8 224.4 250.6 220.6 256.7 214.5L259.7 211.5V217.6V223.7H283.3H307V155.2V86.7002H283.4H259.8V92.8002V98.9002L257.5 96.6002C252.2 90.5002 244.6 86.7002 234.7 84.4002C231.7 83.6002 230.1 83.6002 224 83.6002C220.2 84.5002 217.2 84.5002 216.4 84.5002ZM526.8 84.5002C513.9 86.0002 500.2 92.1002 490.3 99.7002C471.3 115.7 461.4 140.8 465.2 166.6C469 195.5 489.5 217.6 518.5 225.2C524.6 226.7 530.7 227.5 538.3 227.5C552 227.5 561.9 225.2 572.5 219.9C593.8 209.2 607.5 190.2 610.5 166.6C611.3 160.5 611.3 150.6 610.5 145.3C609 133.9 604.4 122.5 597.6 113.3C594.6 109.5 588.5 102.6 584.7 99.6002C574 91.2002 561.9 85.9002 548.2 84.4002C542.8 83.7002 532.2 83.7002 526.8 84.5002ZM682 84.5002C669.1 86.0002 656.1 91.3002 646.2 99.7002C642.4 102.7 635.5 109.6 633.3 113.4C626.5 122.5 622.6 133.9 620.4 145.4C619.6 150.7 619.6 161.4 620.4 166.7C625 197.1 647 220.7 677.5 226.8C683.6 228.3 686.6 228.3 693.5 228.3C706.4 228.3 717.8 226 728.5 219.9C756.6 205.4 771.9 173.5 765 140.8C758.9 110.4 734.6 88.3002 703.4 84.5002C698 83.7002 687.4 83.7002 682 84.5002ZM1.09961 87.5002C1.09961 87.5002 13.9996 118.7 29.9996 156.7C45.9996 194.8 58.9996 226 58.9996 226C58.9996 226 54.3996 237.4 48.2996 251.1C42.1996 264.8 37.5996 275.4 37.5996 276.2C37.5996 277 48.9996 276.2 63.4996 276.2H89.3996L128.2 182.6C149.5 130.9 167 89.0002 167 88.3002C167 88.3002 161.7 87.5002 141.1 88.3002H115.2L99.1996 127.9C92.3996 149.2 85.4996 167.5 85.4996 167.5C85.4996 167.5 78.6996 149.2 69.4996 127.9L54.2996 88.3002H27.7996C13.2996 87.5002 1.09961 87.5002 1.09961 87.5002ZM240 128.6C249.9 130.9 257.5 138.5 260.5 148.4C261.3 152.2 261.3 159.1 260.5 162.9C258.2 172.8 250.6 180.4 240.7 182.7C236.9 183.5 230 183.5 226.2 182.7C217.8 180.4 210.2 174.3 207.2 166.7C203.4 158.3 204.9 147.7 209.5 140.1C216.4 130.1 227.9 126.3 240 128.6ZM543.6 129.4C554.3 130.9 562.6 139.3 564.9 149.9C565.7 153.7 565.7 159.8 564.9 163.6C562.6 173.5 555 180.3 545.9 183.4C542.9 184.2 534.5 184.2 531.4 183.4C523.8 181.1 517.7 175.8 513.9 168.9C511.6 164.3 511.6 162.1 511.6 156.7C511.6 152.1 512.4 149.9 513.9 146C516.2 141.4 519.2 136.9 523.8 133.8C528.4 129.4 536 127.9 543.6 129.4ZM698 129.4C707.1 130.9 714.7 137 717.8 145.4C719.3 149.2 720.1 151.5 720.1 156.1C720.1 161.4 719.3 163.7 717.8 168.3C714.8 175.1 707.9 180.5 700.3 182.8C697.3 183.6 688.9 183.6 685.8 182.8C676.7 180.5 669.1 172.9 666.8 163C666 159.2 666 152.3 666.8 148.5C669.8 136.3 680.5 128 692.7 128C694.2 128.6 696.5 128.6 698 129.4ZM801.5 162.9C787 164.4 776.4 175.1 773.4 188.8C772.6 192.6 772.6 199.5 773.4 203.3C776.4 215.5 785.6 223.8 797.7 226.9C799.2 226.9 802.3 227.7 804.5 227.7C813.6 227.7 821.2 224.7 827.3 218.6C834.1 211.8 836.4 204.9 836.4 195.8C836.4 184.4 831.1 174.5 821.9 169.2C815.9 163.6 807.6 162.1 801.5 162.9ZM400.5 237.4C390.6 240.4 386 251.9 391.4 260.2C392.9 262.5 396 265.5 398.2 266.3C400.5 267.1 400.5 267.1 405 267.1C408.8 267.1 409.6 267.1 411.8 266.3C414.8 264.8 417.9 261.7 419.4 258.7C423.2 251.1 419.4 242 411.8 238.2C409.5 236.7 408.8 236.7 405.7 236.7C402.6 236.7 402.1 236.6 400.5 237.4ZM359.5 238.2C346.6 240.5 338.2 248.9 334.4 262.5C333.6 264.8 333.6 267.1 333.6 270.1V275.4H328.3H323V286.8V298.2H328.3H333.6V325.6V353H348.1H362.6V325.6V298.2H372.5H382.4V286.8V275.4H372.5H362.6V273.1C363.4 267.8 365.6 264 370.2 263.2C373.2 262.4 377.8 262.4 380.9 264C382.4 264.8 383.2 264.8 383.2 264.8C383.2 264.8 383.2 259.5 383.2 252.6V240.4L380.9 239.6C377.9 238.1 374.1 238.1 368.7 238.1C364.8 237.4 361.7 238.2 359.5 238.2ZM475.1 273.9C469 275.4 464.4 278.5 461.4 282.3L459.9 284.6V280V275.4H445.4H431V314.2V353H445.5H460V331.7C460 319.5 460 309.6 460 308.1C460.8 305.1 462.3 302 463.8 300.5C467.6 297.5 474.5 298.2 477.5 302C479.8 305 479.8 305 479.8 329.4V352.2H494.3H508.8V326.3C508.8 298.9 508.8 295.9 507.3 290.5C505.8 285.9 504.3 282.1 500.5 279.1C497.5 276.1 494.4 273.8 489.8 273C485.8 273.2 478.1 273.2 475.1 273.9ZM547.4 273.2C542.8 274 536 276.2 532.2 279.3C523.8 285.4 518.5 294.5 516.2 305.9C515.4 310.5 515.4 318.8 516.2 323.4C517.7 330.2 520 337.1 523.8 341.7C529.1 348.5 536 353.1 544.3 354.6C548.9 355.4 556.5 355.4 560.3 353.8C564.9 352.3 567.9 350.8 571.7 347.7L574.7 344.7V348.5V352.3H589.2H603.7V313.5V274.7H589.2H574.7V278.5V282.3L572.4 281.5C568.6 277.7 563.3 274.7 557.2 273.9C555 273.2 549.7 273.2 547.4 273.2ZM657.7 273.9C652.4 274.7 647 278.5 644 282.3L642.5 283.8V279.2V274.6H628H613.5V313.4V352.2H628H642.5V330.1C642.5 306.5 642.5 306.5 644 302.7C645.5 299.7 648.6 298.1 651.6 298.1C654.6 298.1 656.2 298.9 658.4 300.4C661.4 303.4 661.4 302.7 661.4 328.5V351.3H676H690.5V323.2C690.5 295.1 690.5 295.1 689.7 292C688.9 290.5 688.2 287.4 687.4 285.2C685.9 282.2 685.1 281.4 682.8 279.1C679.8 276.1 677.5 274.5 674.4 273C669.1 273.2 663 272.4 657.7 273.9ZM733 273.9C720.1 276.2 710.2 282.3 704.1 292.9C702.6 295.9 701.1 299.7 699.5 303.6C698.7 307.4 698.7 308.2 698.7 314.3C698.7 321.1 698.7 323.4 701 328.8C705.6 341.7 716.2 351.6 730.7 354.7C733 355.5 735.3 355.5 740.6 355.5C748.2 355.5 751.3 354.7 756.6 352.5L759.6 351V338.1V325.2L757.3 326.7C753.5 329 751.2 329.7 746.6 329.7C742 329.7 739.8 329.7 736.7 328.2C733.6 326.7 731.4 324.4 729.9 321.4C729.1 319.1 729.1 319.1 729.1 315.3C729.1 312.3 729.1 311.5 729.9 309.2C732.2 303.1 737.5 300.1 745.1 299.3C750.4 299.3 752.7 299.3 760.3 303.1C760.3 303.1 760.3 297 760.3 290.2V277L758 276.2C749.7 273.2 740.6 272.4 733 273.9ZM798.4 273.9C776.3 277.7 762.6 296.7 764.2 318.8C765 326.4 767.2 333.3 771 338.6C776.3 347 784.7 352.3 795.3 354.6C799.9 355.4 812 355.4 817.4 354.6C825 353.1 831.9 349.3 837.2 343.9C839.5 341.6 843.3 336.3 843.3 336.3C843.3 336.3 838 334 831.1 331.7L818.9 327.1L817.4 328.6C815.1 330.9 813.6 331.6 810.6 332.4C802.2 334.7 793.9 330.1 792.3 322.5V321H819H845.6V314.2C845.6 309.6 845.6 306.6 844.8 305.1C843.3 296 839.5 289.9 834.1 283.8C828.8 278.5 822.7 275.4 814.3 273.9C811.4 273.2 802.2 273.2 798.4 273.9ZM390.7 314.2V353H405.2H419.7V314.2V275.4H405.2H390.7V314.2ZM809.9 295.2C812.2 296 812.9 296.7 815.2 298.2C816.7 299.7 818.2 301.2 818.2 303.5V305H805.3C790.8 305 791.6 305 793.1 302C795.4 296.7 802.2 293.7 809.9 295.2ZM564.1 299C567.9 299.8 572.5 303.6 574 307.4C577.8 315.8 574 325.7 564.9 328.7C561.9 329.5 557.3 329.5 554.2 328.7C549.6 327.2 545.1 323.4 544.3 318.8C543.5 316.5 543.5 315.8 543.5 313.5C543.5 310.5 543.5 309.7 545 307.4C548.1 300.6 555.7 297.5 564.1 299Z" fill="black"/>
</svg>
