<svg width="622" height="86" viewBox="0 0 622 86" fill="none" xmlns="http://www.w3.org/2000/svg">
<path d="M25.76 84L0.56 0.359997H16.88L34.16 60.24L50.12 5.16H65.48L81.32 60.24L98.72 0.359997H114.92L89.72 84H74.72L56.48 23.76H59L40.88 84H25.76ZM144.417 85.2C138.657 85.2 133.537 83.88 129.057 81.24C124.577 78.6 121.017 74.96 118.377 70.32C115.817 65.6 114.537 60.28 114.537 54.36C114.537 48.36 115.817 43.08 118.377 38.52C120.937 33.88 124.457 30.24 128.937 27.6C133.497 24.96 138.657 23.64 144.417 23.64C150.097 23.64 155.177 24.96 159.657 27.6C164.137 30.24 167.657 33.88 170.217 38.52C172.777 43.08 174.057 48.36 174.057 54.36C174.057 60.28 172.777 65.56 170.217 70.2C167.657 74.84 164.137 78.52 159.657 81.24C155.177 83.88 150.097 85.2 144.417 85.2ZM144.417 72.12C147.457 72.12 150.057 71.4 152.217 69.96C154.457 68.52 156.137 66.48 157.257 63.84C158.457 61.2 159.057 58.04 159.057 54.36C159.057 50.6 158.457 47.44 157.257 44.88C156.137 42.24 154.457 40.24 152.217 38.88C150.057 37.44 147.457 36.72 144.417 36.72C141.297 36.72 138.617 37.44 136.377 38.88C134.137 40.24 132.417 42.24 131.217 44.88C130.017 47.44 129.417 50.6 129.417 54.36C129.417 58.04 130.017 61.2 131.217 63.84C132.417 66.48 134.137 68.52 136.377 69.96C138.617 71.4 141.297 72.12 144.417 72.12ZM185.968 84V24.84H200.968V38.28L198.568 38.52C199.608 34.92 201.128 32.04 203.128 29.88C205.128 27.72 207.448 26.16 210.088 25.2C212.728 24.16 215.448 23.64 218.248 23.64C224.968 23.64 230.208 25.56 233.968 29.4C237.808 33.16 239.728 38.48 239.728 45.36V84H224.728V50.88C224.728 45.92 223.848 42.32 222.088 40.08C220.328 37.76 217.568 36.6 213.808 36.6C210.928 36.6 208.528 37.28 206.608 38.64C204.768 39.92 203.368 41.96 202.408 44.76C201.448 47.56 200.968 51.2 200.968 55.68V84H185.968ZM276.143 85.2C270.943 85.2 266.463 83.88 262.703 81.24C258.943 78.52 256.023 74.84 253.943 70.2C251.943 65.48 250.943 60.2 250.943 54.36C250.943 47.88 252.063 42.36 254.303 37.8C256.623 33.24 259.703 29.76 263.543 27.36C267.383 24.88 271.583 23.64 276.143 23.64C279.343 23.64 282.303 24.32 285.023 25.68C287.823 26.96 290.223 28.92 292.223 31.56C294.223 34.2 295.543 37.56 296.183 41.64L293.183 40.8V0.359997H307.943V84H293.183V68.16L296.663 66.48C295.703 71.12 294.143 74.84 291.983 77.64C289.903 80.36 287.463 82.32 284.663 83.52C281.943 84.64 279.103 85.2 276.143 85.2ZM280.223 71.52C283.183 71.52 285.703 70.8 287.783 69.36C289.943 67.92 291.583 65.92 292.703 63.36C293.903 60.8 294.503 57.8 294.503 54.36C294.503 50.92 293.903 47.92 292.703 45.36C291.583 42.8 289.943 40.84 287.783 39.48C285.703 38.04 283.183 37.32 280.223 37.32C277.343 37.32 274.823 38.04 272.663 39.48C270.503 40.84 268.823 42.8 267.623 45.36C266.503 47.84 265.943 50.84 265.943 54.36C265.943 57.88 266.503 60.92 267.623 63.48C268.823 66.04 270.503 68.04 272.663 69.48C274.823 70.84 277.343 71.52 280.223 71.52ZM349.009 85.2C343.889 85.2 339.489 84.36 335.809 82.68C332.129 81 329.089 78.76 326.689 75.96C324.369 73.08 322.649 69.84 321.529 66.24C320.409 62.56 319.849 58.72 319.849 54.72C319.849 50.88 320.409 47.12 321.529 43.44C322.649 39.76 324.329 36.44 326.569 33.48C328.809 30.52 331.689 28.16 335.209 26.4C338.809 24.56 343.089 23.64 348.049 23.64C352.689 23.64 356.729 24.44 360.169 26.04C363.609 27.56 366.449 29.72 368.689 32.52C370.929 35.24 372.609 38.44 373.729 42.12C374.929 45.8 375.529 49.72 375.529 53.88C375.529 54.44 375.489 55.24 375.409 56.28C375.409 57.24 375.329 58.28 375.169 59.4H334.729C335.129 63.64 336.689 66.84 339.409 69C342.209 71.16 345.689 72.24 349.849 72.24C352.889 72.24 355.849 71.72 358.729 70.68C361.609 69.56 364.169 68 366.409 66L373.849 76.08C371.049 78.24 368.409 80 365.929 81.36C363.449 82.72 360.849 83.68 358.129 84.24C355.489 84.88 352.449 85.2 349.009 85.2ZM360.769 51.96C360.929 51.32 361.049 50.68 361.129 50.04C361.289 49.4 361.369 48.8 361.369 48.24C361.369 46.56 361.049 45 360.409 43.56C359.769 42.04 358.889 40.72 357.769 39.6C356.649 38.48 355.289 37.64 353.689 37.08C352.169 36.44 350.409 36.12 348.409 36.12C345.449 36.12 342.969 36.72 340.969 37.92C338.969 39.12 337.449 40.68 336.409 42.6C335.449 44.44 334.849 46.36 334.609 48.36H365.809L360.769 51.96ZM387.531 84V24.84H402.531V40.92L400.251 41.16C400.491 37.72 401.531 34.68 403.371 32.04C405.211 29.4 407.451 27.36 410.091 25.92C412.811 24.4 415.571 23.64 418.371 23.64C420.371 23.64 422.251 23.92 424.011 24.48C425.851 24.96 427.731 25.8 429.651 27L422.451 40.44C421.571 39.96 420.451 39.52 419.091 39.12C417.731 38.72 416.371 38.52 415.011 38.52C413.411 38.52 411.851 38.8 410.331 39.36C408.891 39.92 407.571 40.8 406.371 42C405.251 43.2 404.331 44.8 403.611 46.8C403.291 47.92 403.011 49.36 402.771 51.12C402.611 52.8 402.531 55.28 402.531 58.56V84H387.531ZM439.345 84V0.359997H454.825V70.08H490.465V84H439.345ZM537.013 84L535.813 75.12V46.68C535.813 43.16 534.693 40.56 532.453 38.88C530.293 37.12 527.333 36.24 523.573 36.24C520.453 36.24 517.253 36.88 513.973 38.16C510.773 39.36 507.933 41.08 505.453 43.32L497.893 33.12C502.053 29.76 506.293 27.36 510.613 25.92C515.013 24.4 519.733 23.64 524.773 23.64C532.933 23.64 539.293 25.68 543.853 29.76C548.413 33.84 550.693 39.48 550.693 46.68V84H537.013ZM519.133 85.2C514.813 85.2 510.933 84.4 507.493 82.8C504.133 81.2 501.453 78.92 499.453 75.96C497.533 73 496.573 69.6 496.573 65.76C496.573 62.32 497.253 59.4 498.613 57C500.053 54.52 501.933 52.64 504.253 51.36C506.253 50.16 508.453 49.32 510.853 48.84C513.333 48.36 515.973 48.12 518.773 48.12H537.133V59.16H520.933C519.653 59.16 518.373 59.28 517.093 59.52C515.893 59.68 514.853 60.12 513.973 60.84C513.173 61.4 512.573 62.12 512.173 63C511.773 63.8 511.573 64.72 511.573 65.76C511.573 68 512.453 69.8 514.213 71.16C515.973 72.52 518.333 73.2 521.293 73.2C523.933 73.2 526.333 72.64 528.493 71.52C530.733 70.32 532.493 68.72 533.773 66.72C535.133 64.64 535.813 62.28 535.813 59.64L539.773 67.56C538.733 71.72 537.133 75.12 534.973 77.76C532.893 80.32 530.493 82.2 527.773 83.4C525.053 84.6 522.173 85.2 519.133 85.2ZM596.401 85.2C593.441 85.2 590.561 84.64 587.761 83.52C585.041 82.32 582.641 80.36 580.561 77.64C578.481 74.84 576.921 71.12 575.881 66.48L579.481 68.16V84H564.601V0.359997H579.481V40.8L576.361 41.76C577.081 37.68 578.401 34.32 580.321 31.68C582.321 28.96 584.721 26.96 587.521 25.68C590.321 24.32 593.281 23.64 596.401 23.64C601.041 23.64 605.281 24.88 609.121 27.36C612.961 29.76 616.001 33.24 618.241 37.8C620.481 42.36 621.601 47.88 621.601 54.36C621.601 60.2 620.601 65.48 618.601 70.2C616.601 74.84 613.681 78.52 609.841 81.24C606.081 83.88 601.601 85.2 596.401 85.2ZM592.321 71.52C595.281 71.52 597.801 70.84 599.881 69.48C602.041 68.04 603.721 66.04 604.921 63.48C606.121 60.92 606.721 57.88 606.721 54.36C606.721 50.84 606.121 47.84 604.921 45.36C603.721 42.8 602.041 40.84 599.881 39.48C597.801 38.04 595.281 37.32 592.321 37.32C589.441 37.32 586.921 38.04 584.761 39.48C582.681 40.84 581.041 42.8 579.841 45.36C578.721 47.92 578.161 50.92 578.161 54.36C578.161 57.8 578.721 60.8 579.841 63.36C581.041 65.92 582.681 67.92 584.761 69.36C586.921 70.8 589.441 71.52 592.321 71.52Z" fill="black"/>
</svg>
