<svg width="286" height="75" viewBox="0 0 286 75" fill="none" xmlns="http://www.w3.org/2000/svg">
<path d="M9.09003 73.0001C9.90003 73.1501 10.73 73.1601 11.49 73.1601C13.84 73.1601 17.33 73.1001 17.82 72.7601C18.1 72.5701 18.27 71.8301 18.42 71.3901L18.76 70.3101H19.68C19.51 71.5001 19.31 72.9401 19.08 74.0101C17.83 74.0301 15.57 74.1001 13.44 74.0701C10.87 74.0401 8.97004 74.0101 7.21004 74.0101C6.24004 74.0101 5.53004 74.0501 4.78004 74.0701V73.5801L5.66003 73.2401C6.14003 73.0501 6.38004 72.5501 6.38004 71.9701V61.7701C6.38004 60.9501 6.31003 60.4001 6.12003 60.1501C5.95003 59.9401 5.60004 59.8601 4.92004 59.8301L3.54004 59.7701V59.1201C5.03004 59.1701 6.38004 59.1901 7.78004 59.1901C9.09004 59.1901 10.44 59.1601 11.92 59.1201V59.7701L10.55 59.8301C9.86003 59.8601 9.52003 59.9401 9.34003 60.1501C9.15003 60.4001 9.08004 60.9501 9.08004 61.7701V73.0001H9.09003Z" fill="black"/>
<path d="M35.3703 67.8199C35.4003 66.1499 34.2803 65.0599 31.7703 65.0599C30.5403 65.0599 30.1403 65.1499 29.7703 65.5199C29.5903 65.6899 29.4503 65.9599 29.2803 66.2199L28.9103 66.8899L28.1703 66.7399V65.3499L29.6803 64.6599C30.9203 64.0999 32.0903 63.9199 33.0003 63.9199C36.5703 63.9199 37.6603 65.1099 37.6603 68.1999V72.1399C37.6603 72.4799 37.6903 72.8299 37.7403 73.0599C37.8103 73.2799 38.0603 73.3699 38.4603 73.3799L39.5803 73.4199V74.0699C38.8603 74.0399 38.1503 74.0099 37.4403 74.0099C36.7003 74.0099 35.9803 74.0499 35.2403 74.0699L35.3903 72.2399L31.8303 74.0899C31.6103 74.2199 31.0403 74.2599 30.5203 74.2599C28.5803 74.2599 27.0303 73.3999 27.0303 71.6699C27.0303 69.1899 29.9303 68.5599 32.5503 68.1999L35.3703 67.8199ZM35.3703 68.4999C33.9403 68.6499 32.6403 68.8299 31.1903 69.2499C30.1803 69.5499 29.4703 70.4799 29.4703 71.2799C29.4703 72.3699 30.5703 73.0399 31.7103 73.0399C32.6003 73.0399 33.5103 72.5899 34.4503 72.0499C34.9103 71.7799 35.2503 71.4699 35.3703 71.3399V68.4999Z" fill="black"/>
<path d="M51.0398 71.8099C51.0398 72.3999 51.0698 72.8199 51.1798 73.0599C51.2898 73.2499 51.6098 73.3399 52.0998 73.3699L53.3898 73.4299V74.0799C52.3798 74.0499 51.2498 74.0199 49.8498 74.0199C48.4498 74.0199 47.2998 74.0599 46.2998 74.0799V73.4299L47.5798 73.3699C48.0698 73.3399 48.3798 73.2499 48.4998 73.0599C48.6098 72.8199 48.6398 72.3999 48.6398 71.8099V66.9699C48.6398 66.2899 48.5898 65.7999 48.4398 65.6399C48.2698 65.4599 47.9798 65.3999 47.3798 65.3999H46.3198V64.7999C48.0098 64.6699 49.7298 64.2499 50.7798 63.9099L51.0398 63.9999V65.8299H51.0998L53.2098 64.4399C53.8398 64.0299 54.3898 63.8999 55.5298 63.8999C58.8698 63.8999 60.2498 65.2999 60.2498 67.6499V71.7999C60.2498 72.3899 60.2798 72.8099 60.3898 73.0499C60.5098 73.2399 60.8198 73.3299 61.3098 73.3599L62.4798 73.4199V74.0699C61.7798 74.0399 60.9398 74.0099 60.1398 74.0099C59.3398 74.0099 58.5098 74.0499 57.8498 74.0699V67.9599C57.8498 66.1799 56.5098 65.2299 54.5698 65.2299C52.8198 65.2299 51.0498 66.3699 51.0498 67.2499V71.8099H51.0398Z" fill="black"/>
<path d="M80.2502 60.6699C80.2502 60.1799 80.1702 59.7899 79.5402 59.7899H77.9302V59.1999C79.4402 59.0199 80.9602 58.8299 82.3902 58.3999L82.6502 58.5699V71.8099C82.6502 72.3999 82.6802 72.8199 82.7902 73.0599C82.9102 73.2499 83.2202 73.3399 83.7102 73.3699L85.0302 73.4299V74.0799C83.8602 74.0499 83.1402 74.0199 82.4302 74.0199C81.6802 74.0199 80.9702 74.0599 80.2302 74.0799L80.3702 72.0999L77.1902 74.0999C76.9302 74.2499 76.1002 74.2699 75.3602 74.2699C71.3602 74.2699 69.4702 72.1299 69.4702 69.3099C69.4702 67.3499 70.7302 65.8899 72.1702 65.3299L74.6902 64.3299C75.5402 63.9899 76.3202 63.9299 76.8102 63.9299C78.1002 63.9299 79.0402 64.2099 80.2602 64.6299V60.6699H80.2502ZM80.2502 66.4799C80.2502 66.0499 77.9402 64.8899 76.2202 64.9299C73.3102 64.9899 71.9602 66.2399 71.9602 68.8699C71.9602 70.8699 73.4502 73.0399 76.4202 73.0399C77.6202 73.0399 78.7602 72.4199 79.5402 71.6799C80.3402 70.9299 80.2502 70.1999 80.2502 69.2499V66.4799Z" fill="black"/>
<path d="M93.69 70.9299V71.8099C93.69 73.1399 95.72 73.6399 97.38 73.6399C99.18 73.6399 100.72 72.8399 100.72 71.6699C100.72 70.9799 100.24 70.4299 99.36 70.2399C98.1 70.0199 96.53 69.7799 95.15 69.3999C93.78 68.9999 92.72 68.3599 92.72 67.0499C92.72 64.7199 95.42 63.8999 98.1 63.8999C99.43 63.8999 100.67 64.1399 101.79 64.4399C101.7 65.2199 101.67 66.0099 101.64 66.8699H100.84V66.3799C100.84 65.2599 99.15 64.6099 97.52 64.6099C95.09 64.6099 94.72 65.6299 94.72 66.3599C94.72 67.2899 95.67 67.7799 97.84 68.0599C101.25 68.4999 102.84 69.1399 102.84 70.8199C102.84 73.1799 99.7 74.4299 96.52 74.4299C95.15 74.4299 93.92 74.2899 92.52 73.9099C92.81 72.9699 92.84 71.9399 92.84 70.9199H93.69V70.9299Z" fill="black"/>
<path d="M143.59 65.5397C143.36 66.0897 143.24 66.5697 143.24 67.0797C141.93 66.8997 140.5 66.8597 139.25 66.8297C139.39 67.1597 139.39 67.5097 139.39 67.8197C139.39 69.2097 138.3 70.4897 137.07 71.4697C138.69 72.1797 140.26 72.8297 141.9 72.8297C142.64 72.8297 143.13 72.6397 143.73 72.4297L143.89 72.9697L141.41 74.3197C141.15 74.4497 140.67 74.4397 140.26 74.4397C139.07 74.4397 136.34 73.5197 135.27 72.7797C133.66 73.7697 131.66 74.4397 129.57 74.4397C125.92 74.4397 123.6 72.6397 123.6 70.2897C123.6 68.1297 125.66 66.6497 128.04 65.6897C127.52 64.7597 127.17 63.7497 127.17 62.8997C127.17 62.0197 127.37 61.3097 127.87 60.9797L129.81 59.6897C130.18 59.4297 130.73 59.1997 131.79 59.1997C133.45 59.1997 134.5 59.8797 134.5 61.1597C134.5 62.9897 132.22 64.5297 130.39 65.4597C132.02 67.4897 134.02 69.2997 136.22 70.9697C137.06 70.1797 137.6 69.3597 137.6 68.6497C137.6 67.8197 137.31 66.9497 136.94 66.8497C136.54 66.7397 135.46 66.6697 134.34 66.6097L135.28 65.6497C136.19 65.6697 137.13 65.7197 138.05 65.6897L143.59 65.5397ZM126.09 69.5497C126.09 71.4897 128.26 73.2297 130.86 73.2297C132.1 73.2297 133.4 72.7697 134.38 72.2397C132.22 70.4097 130.03 68.5797 128.46 66.4397C127.01 67.2497 126.09 68.1297 126.09 69.5497ZM129.16 62.2197C129.16 62.8997 129.6 64.0697 129.91 64.7397C131.03 64.1997 132.57 62.8697 132.57 61.8297C132.57 61.1597 132.05 60.3197 131.02 60.3197C129.35 60.3197 129.16 61.2697 129.16 62.2197Z" fill="black"/>
<path d="M170.6 62.3201C170.6 61.5101 170.57 60.8101 170.48 60.1801H166.05C165.19 60.1801 164.97 60.3701 164.9 60.8801L164.79 62.5901H163.9C163.9 61.4201 163.84 60.2501 163.7 59.1201C165.76 59.1201 167.83 59.1901 169.89 59.1901H174.03C176.1 59.1901 178.15 59.1201 180.21 59.1201C180.07 60.2501 180 61.4201 180 62.5901H179.12L179 60.8801C178.95 60.3701 178.72 60.1801 177.86 60.1801H173.43C173.33 60.8101 173.31 61.5101 173.31 62.3201V71.4201C173.31 72.2401 173.37 72.8001 173.57 73.0401C173.74 73.2501 174.08 73.3401 174.78 73.3701L176.15 73.4301V74.0801C174.67 74.0401 173.32 74.0201 172 74.0201C170.6 74.0201 169.25 74.0401 167.77 74.0801V73.4301L169.14 73.3701C169.83 73.3401 170.18 73.2501 170.35 73.0401C170.55 72.8001 170.6 72.2401 170.6 71.4201V62.3201Z" fill="black"/>
<path d="M184.72 69.4199C184.72 66.1799 187.41 63.9199 192.02 63.9199C195.67 63.9199 198.51 66.0699 198.51 68.8299C198.51 72.1199 195.39 74.4399 191 74.4399C187.41 74.5299 184.72 72.3699 184.72 69.4199ZM187.39 68.4799C187.39 70.7399 188.47 73.7299 192.13 73.7299C194.74 73.7299 195.85 71.7799 195.85 69.7799C195.85 66.9999 194.11 64.6299 191.36 64.6299C188.33 64.6199 187.39 66.4799 187.39 68.4799Z" fill="black"/>
<path d="M216.95 63.9199H217.6C217.86 64.5399 218.15 65.1099 218.43 65.6599L221.72 71.8999C222.18 71.0199 222.66 70.1299 223.1 69.2399L224.53 66.2199C224.98 65.2699 224.67 64.8299 223.62 64.7799L222.65 64.7399V64.1299C223.59 64.1699 224.5 64.2099 225.44 64.2099C226.39 64.2099 227.3 64.1699 228.25 64.1299V64.7399L227.5 64.7799C226.85 64.8299 226.39 65.4099 225.67 66.6499L223.73 70.0099C222.95 71.3499 222.42 72.7799 221.76 74.1499H220.44L216.55 66.7999C216.06 67.5999 215.52 68.4199 215.06 69.2099L212.26 74.1599H210.92L208.01 66.9399C207.26 65.1299 206.84 64.8299 206.12 64.7799L205.31 64.7399V64.1299C206.46 64.1699 207.58 64.2099 208.72 64.2099C209.87 64.2099 210.98 64.1699 212.12 64.1299V64.7399L210.98 64.7799C210.01 64.8299 209.69 65.0599 210.01 65.8399L212.41 71.7699C212.78 71.1899 213.09 70.5999 213.43 70.0199L216.95 63.9199Z" fill="black"/>
<path d="M247.51 67.8499C247.51 68.1599 247.51 68.4599 247.45 68.7599C245.74 68.9699 244 69.0599 242.27 69.0599H238.09C238.09 71.5799 239.75 73.2999 243.26 73.2999C244.63 73.2999 245.73 72.7799 246.81 72.2899L247.18 72.5099L246.6 73.2399C246.4 73.4899 243.98 74.4399 242.03 74.4399C237.72 74.4399 235.42 72.3699 235.42 69.4799C235.42 67.3899 236.16 66.1499 237.48 65.3599C238.02 65.0399 238.63 64.7199 239.26 64.4999C240.26 64.1599 241.08 63.9199 242.06 63.9199C245.19 63.9199 247.51 65.4199 247.51 67.8499ZM238.16 68.1999C240.5 68.3899 242.91 68.3499 244.96 68.2599C244.96 66.2599 244 64.6199 241.93 64.6199C239.73 64.6199 238.03 65.8499 238.16 68.1999Z" fill="black"/>
<path d="M257.08 66.9797C257.08 66.2997 257.03 65.8097 256.88 65.6497C256.72 65.4697 256.43 65.4097 255.82 65.4097H254.77V64.8097C256.45 64.6797 258.17 64.2597 259.23 63.9197L259.5 64.0097V66.1797H259.55L261.09 64.7997C261.78 64.1697 262.75 63.9097 263.49 63.9097C263.97 63.9097 264.58 64.0197 264.81 64.1497L264.55 66.7197H263.96C263.64 66.1997 263.04 65.7397 262 65.7397C260.75 65.7397 259.5 66.7197 259.5 68.1097V71.8097C259.5 72.3997 259.52 72.8197 259.64 73.0597C259.75 73.2497 260.18 73.3397 260.83 73.3697L262.32 73.4297V74.0797C260.83 74.0497 259.69 74.0197 258.29 74.0197C256.88 74.0197 255.74 74.0597 254.71 74.0797V73.4297L256.03 73.3697C256.51 73.3397 256.83 73.2497 256.94 73.0597C257.06 72.8197 257.08 72.3997 257.08 71.8097V66.9797Z" fill="black"/>
<path d="M273.16 70.9299V71.8099C273.16 73.1399 275.18 73.6399 276.83 73.6399C278.64 73.6399 280.19 72.8399 280.19 71.6699C280.19 70.9799 279.71 70.4299 278.81 70.2399C277.56 70.0199 275.99 69.7799 274.61 69.3999C273.24 68.9999 272.18 68.3599 272.18 67.0499C272.18 64.7199 274.87 63.8999 277.55 63.8999C278.89 63.8999 280.13 64.1399 281.24 64.4399C281.15 65.2199 281.12 66.0099 281.1 66.8699H280.29V66.3799C280.29 65.2599 278.61 64.6099 276.98 64.6099C274.54 64.6099 274.18 65.6299 274.18 66.3599C274.18 67.2899 275.12 67.7799 277.29 68.0599C280.7 68.4999 282.3 69.1399 282.3 70.8199C282.3 73.1799 279.16 74.4299 275.98 74.4299C274.6 74.4299 273.37 74.2899 271.97 73.9099C272.25 72.9699 272.29 71.9399 272.29 70.9199H273.16V70.9299Z" fill="black"/>
<path d="M0 52.5901V51.3301H285.85V52.5901H0Z" fill="black"/>
<path d="M10.5998 6.96C11.5398 5.32 13.0298 4.09 15.0698 3.28C17.1298 2.44 19.6198 2.03 22.5398 2.03C25.0998 2.03 27.1498 2.29 28.6998 2.8C30.2498 3.33 31.5898 4.08 32.7298 5.07C33.8798 6.06 34.7498 7.26 35.3598 8.68C35.9798 10.09 36.2698 11.64 36.2698 13.34C36.2698 15.8 35.7198 17.91 34.5898 19.64C33.4498 21.39 31.8998 22.61 29.9098 23.34C27.9098 24.05 25.6598 24.43 23.1398 24.43C20.4298 24.43 18.0598 24.04 16.0698 23.28C14.0598 22.53 12.4198 21.23 11.1398 19.38C9.85984 17.52 9.20984 15.18 9.20984 12.37C9.19984 10.39 9.66984 8.59 10.5998 6.96ZM2.75985 20.6C4.60985 22.53 7.12985 23.98 10.3598 24.97C13.5698 25.95 17.4398 26.45 21.9298 26.45C26.0798 26.45 29.7798 26.04 33.0098 25.23C35.3598 24.63 37.4598 23.77 39.3098 22.63C41.1598 21.51 42.5598 20.21 43.5198 18.77C44.8098 16.82 45.4598 14.72 45.4598 12.44C45.4598 11.11 45.2398 9.89 44.7898 8.77C44.3398 7.65 43.6798 6.63 42.7998 5.7C41.9098 4.77 40.6298 3.86 38.9498 2.98C37.2498 2.09 35.3098 1.4 33.1198 0.93C30.1698 0.31 26.8698 0 23.2398 0C19.5898 0 16.2198 0.32 13.1198 0.96C10.7098 1.47 8.47984 2.3 6.41984 3.46C4.35984 4.61 2.76984 5.99 1.66984 7.65C0.559842 9.3 0.00984627 11.22 0.00984627 13.44C-0.000153728 16.29 0.919846 18.67 2.75985 20.6Z" fill="black"/>
<path d="M90.2998 22.52L88.9098 24.35C86.4198 25.15 84.1898 25.7 82.1998 26C80.2098 26.31 77.7398 26.45 74.7698 26.45C70.5498 26.45 66.8098 26.04 63.5498 25.23C60.9998 24.57 58.8498 23.71 57.0598 22.63C55.2798 21.58 53.9198 20.4 52.9698 19.12C51.5098 17.22 50.7798 15.17 50.7798 12.96C50.7798 9.16 52.9198 6.04 57.2198 3.63C61.5198 1.21 67.5698 0 75.4198 0C78.1098 0 80.5198 0.120001 82.6698 0.360001C84.8098 0.590001 87.2898 1.02 90.1398 1.63L90.2798 1.87C89.9698 2.43 89.7198 3.15 89.5498 3.98C89.2598 5.32 89.0698 6.56 88.9998 7.7H86.6598C86.6298 6.4 86.5498 5.34 86.4398 4.58C85.0898 3.72 83.5798 3.08 81.9098 2.68C80.2498 2.27 78.1098 2.06 75.4998 2.06C70.7998 2.06 67.0398 2.97 64.2198 4.76C61.3998 6.56 59.9798 9.08 59.9798 12.32C59.9798 14.26 60.4498 15.96 61.3898 17.42C62.3398 18.88 63.6098 20.08 65.1698 21.02C66.7498 21.99 68.3298 22.68 69.9298 23.12C72.0998 23.69 74.7398 23.98 77.8298 23.98C79.8698 23.98 81.7898 23.85 83.5998 23.57C85.4198 23.28 87.3998 22.8 89.5398 22.12L90.2998 22.52Z" fill="black"/>
<path d="M112.38 6.66004L118.78 15.98C116.97 16.03 114.9 16.05 112.63 16.05C110.24 16.05 108.13 16.03 106.26 15.98L112.38 6.66004ZM99.87 25.7L106.8 25.85V24.26C104.42 24.22 103 24.11 102.52 23.95C102.19 23.82 102.04 23.63 102.04 23.34C102.04 22.93 102.55 21.88 103.54 20.22L104.86 18.08H120.29L122.85 22.03C123.32 22.73 123.55 23.22 123.55 23.52C123.55 23.76 123.4 23.92 123.09 24.03C122.77 24.12 121.42 24.21 119 24.26V25.85L129.52 25.7L137.85 25.85V24.26C137.28 24.22 136.83 24.19 136.54 24.17C135.59 24.13 135.02 24.09 134.79 24.04C134.55 24 134.35 23.94 134.17 23.84C134 23.74 133.81 23.58 133.61 23.36L132.4 21.7L130.54 19.21L117.14 0.290039H112.91L110.26 4.42004L102.44 16.07C100.95 18.28 99.95 19.76 99.44 20.52C98.3 22.11 97.62 23.03 97.38 23.28C97.15 23.53 96.92 23.71 96.69 23.82C96.48 23.93 96.22 24.02 95.9 24.07C95.59 24.13 94.62 24.19 93 24.24V25.83L99.87 25.7Z" fill="black"/>
<path d="M141.06 25.8499V24.2599C143.38 24.1599 144.74 24.0699 145.17 23.9599C145.42 23.9199 145.61 23.8399 145.76 23.7199C145.93 23.5599 146.07 23.3299 146.12 23.0299C146.27 22.3299 146.36 20.8299 146.44 18.5299C146.46 17.4199 146.5 15.4899 146.5 12.7399C146.5 10.2999 146.45 8.11994 146.41 6.22994C146.33 4.32994 146.2 3.20994 146.01 2.85994C145.92 2.68994 145.8 2.55994 145.63 2.46994C145.45 2.36994 145.12 2.29994 144.65 2.24994C143.32 2.10994 142.13 2.03994 141.05 2.01994V0.439941C145.19 0.529941 148.03 0.589941 149.6 0.589941C151.66 0.589941 153.73 0.529941 155.82 0.439941L158.44 4.03994L160.53 6.76994L170.04 18.6799C172.07 16.2899 173.59 14.4499 174.61 13.1199L178.56 8.07994C180.75 5.26994 182.1 3.52994 182.57 2.87994C183.06 2.23994 183.62 1.41994 184.23 0.439941C186.87 0.529941 188.57 0.589941 189.31 0.589941L198.32 0.439941V2.01994H197.89C195.85 2.01994 194.55 2.15994 194.01 2.45994C193.47 2.74994 193.19 3.31994 193.19 4.16994C193.19 5.15994 193.19 5.92994 193.17 6.43994L193.05 11.5099V17.8699C193.05 19.4099 193.05 20.3299 193.05 20.5799C193.2 22.1099 193.34 23.0599 193.47 23.4199C193.53 23.5699 193.63 23.6999 193.79 23.7999C193.96 23.8999 194.2 23.9799 194.5 24.0299C194.8 24.0999 196.07 24.1599 198.32 24.2399V25.8299L188.67 25.6799L179.28 25.8499V24.2599C181.8 24.2199 183.22 24.1299 183.58 24.0099C183.93 23.8899 184.19 23.5899 184.34 23.1399C184.49 22.6799 184.57 21.1899 184.57 18.6199V5.41994L177.63 13.9399L174.31 18.1699C173.43 19.2899 172.2 20.9099 170.6 23.0299C169.62 24.3099 168.85 25.3499 168.29 26.1399H166.26C165.52 25.1299 164.5 23.7199 163.13 21.9599C160.82 18.9299 159.06 16.6599 157.86 15.1699L149.96 5.41994V14.3299C149.96 15.8199 150 17.5899 150.04 19.6399C150.09 21.6899 150.15 22.8599 150.24 23.1299C150.32 23.4199 150.45 23.6099 150.61 23.7199C150.79 23.8399 151.09 23.9499 151.53 24.0199C151.96 24.0999 153.21 24.1799 155.24 24.2599V25.8499C153.01 25.7599 150.72 25.6999 148.37 25.6999C145.31 25.6999 142.87 25.7499 141.06 25.8499Z" fill="black"/>
<path d="M201.95 2.02988V0.449883L210.79 0.599883L224.16 0.379883C226.77 0.379883 228.83 0.539883 230.33 0.869883C231.85 1.20988 233.16 1.80988 234.24 2.65988C235.32 3.51988 235.87 4.62988 235.87 6.01988C235.87 7.36988 235.35 8.64988 234.31 9.81988C233.26 10.9999 231.65 11.9699 229.44 12.7299C227.24 13.4899 224.87 13.8699 222.36 13.8699C221.72 13.8699 221.1 13.8499 220.5 13.7899C219.89 13.7499 219.29 13.6699 218.7 13.5999C218.5 13.2599 218.15 12.8099 217.64 12.2899L218.25 11.8899C218.69 11.9699 219.09 12.0299 219.48 12.0699C219.86 12.1199 220.21 12.1299 220.54 12.1299C222.45 12.1299 224.02 11.7199 225.27 10.8999C226.51 10.0699 227.14 8.85988 227.14 7.29988C227.14 5.65988 226.48 4.41988 225.18 3.57988C223.89 2.74988 222.07 2.32988 219.75 2.32988C218.65 2.32988 217.4 2.42988 216.05 2.63988C215.94 3.39988 215.87 4.48988 215.85 5.90988L215.75 9.47988V16.3499C215.75 18.0499 215.8 19.7799 215.9 21.5799C215.97 22.6299 216.07 23.2999 216.23 23.5799C216.31 23.6999 216.43 23.8199 216.62 23.8999C216.82 23.9899 217.16 24.0499 217.66 24.1199L221.69 24.2699V25.8599C216.55 25.7699 212.7 25.7099 210.1 25.7099C207.25 25.7099 204.54 25.7599 201.95 25.8599V24.2699C204.17 24.2499 205.58 24.1599 206.17 23.9699C206.34 23.9099 206.48 23.8199 206.59 23.6999C206.72 23.5199 206.84 23.0799 206.92 22.3799C207.11 20.4399 207.22 18.2899 207.22 15.9099V9.51988L207.06 6.11988C207.03 4.65988 206.98 3.74988 206.93 3.38988C206.88 3.00988 206.79 2.74988 206.66 2.59988C206.57 2.49988 206.44 2.40988 206.25 2.33988C206.06 2.26988 205.72 2.19988 205.22 2.12988L201.95 2.02988Z" fill="black"/>
<path d="M250.98 6.96C251.91 5.32 253.4 4.09 255.45 3.28C257.51 2.44 259.98 2.03 262.91 2.03C265.47 2.03 267.52 2.29 269.07 2.8C270.62 3.33 271.96 4.08 273.1 5.07C274.24 6.06 275.12 7.26 275.72 8.68C276.34 10.09 276.64 11.64 276.64 13.34C276.64 15.8 276.07 17.91 274.94 19.64C273.82 21.39 272.25 22.61 270.26 23.34C268.27 24.05 266.02 24.43 263.5 24.43C260.78 24.43 258.42 24.04 256.42 23.28C254.42 22.53 252.78 21.23 251.51 19.38C250.22 17.52 249.58 15.18 249.58 12.37C249.58 10.39 250.05 8.59 250.98 6.96ZM243.14 20.6C244.98 22.53 247.49 23.98 250.73 24.97C253.96 25.95 257.81 26.45 262.31 26.45C266.45 26.45 270.15 26.04 273.38 25.23C275.75 24.63 277.84 23.77 279.69 22.63C281.53 21.51 282.93 20.21 283.89 18.77C285.2 16.82 285.85 14.72 285.85 12.44C285.85 11.11 285.62 9.89 285.17 8.77C284.72 7.65 284.05 6.63 283.17 5.7C282.3 4.77 281.02 3.86 279.33 2.98C277.64 2.09 275.7 1.4 273.51 0.93C270.55 0.31 267.26 0 263.63 0C259.97 0 256.6 0.32 253.5 0.96C251.09 1.47 248.86 2.3 246.79 3.46C244.74 4.61 243.16 5.99 242.05 7.65C240.94 9.3 240.38 11.22 240.38 13.44C240.38 16.29 241.31 18.67 243.14 20.6Z" fill="black"/>
<path d="M2.98972 33.1301V32.5601C5.00972 32.6201 6.61972 32.6401 7.80972 32.6401C8.58972 32.6401 9.43973 32.6301 10.3197 32.6101L12.7097 32.5601C12.9697 32.5601 13.2097 32.5601 13.4297 32.5601C15.0397 32.5601 16.3097 32.6601 17.2297 32.8701C18.1597 33.0701 18.8697 33.4101 19.3897 33.8601C19.8997 34.3201 20.1597 34.8401 20.1597 35.4201C20.1597 35.9401 19.9497 36.4601 19.5197 36.9801C19.0797 37.5001 18.4597 37.9501 17.6397 38.3101C16.8297 38.6601 15.9697 38.9201 15.0797 39.0701C14.4697 39.1801 13.7897 39.2301 13.0297 39.2301C12.3797 39.2301 11.6797 39.1901 10.9297 39.0901L10.6097 38.4601C11.5097 38.5801 12.2097 38.6401 12.7197 38.6401C13.4797 38.6401 14.1997 38.5401 14.8797 38.3101C15.5597 38.0901 16.0797 37.7501 16.4597 37.3201C16.8497 36.8901 17.0297 36.4001 17.0297 35.8701C17.0297 35.3601 16.8597 34.8901 16.4897 34.4701C16.1097 34.0601 15.5597 33.7501 14.8097 33.5301C14.0497 33.3201 13.1397 33.2201 12.0797 33.2201C11.1197 33.2201 10.0997 33.3201 9.00973 33.5201C8.88973 34.1501 8.85973 35.1301 8.85973 36.5001V41.0101C8.85973 41.8201 8.87972 42.6101 8.91972 43.3801C8.95972 43.9401 9.01972 44.2801 9.12972 44.3801C9.25972 44.4901 9.42973 44.5701 9.68973 44.6201C9.94973 44.6701 10.6597 44.7101 11.8497 44.7201V45.2801C9.97972 45.2201 8.59973 45.2001 7.71973 45.2001C7.37973 45.2001 5.78973 45.2201 2.96973 45.2801V44.7101C4.13973 44.7001 4.86972 44.6601 5.12972 44.6101C5.39972 44.5501 5.57972 44.4901 5.66972 44.4001C5.79972 44.2801 5.87973 43.9701 5.89973 43.5201C5.89973 43.4001 5.93972 42.5601 5.97972 40.9901V36.8501C5.97972 36.0401 5.94973 35.2501 5.89973 34.4701C5.86973 33.9001 5.79973 33.5701 5.68973 33.4601C5.56973 33.3501 5.37972 33.2701 5.12972 33.2201C4.89972 33.1701 4.17972 33.1401 2.98972 33.1301Z" fill="black"/>
<path d="M27.7397 33.1301V32.5601C28.1397 32.5701 28.7297 32.5801 29.5497 32.5901L32.4398 32.6401C33.0098 32.6401 33.8997 32.6301 35.1097 32.6101C36.6797 32.5701 37.5797 32.5601 37.8397 32.5601C39.7597 32.5601 41.1597 32.6601 42.0397 32.8601C42.9197 33.0601 43.6097 33.3901 44.0897 33.8401C44.5697 34.2801 44.8197 34.7901 44.8197 35.3501C44.8197 35.8301 44.5897 36.3201 44.1397 36.8201C43.6897 37.3101 43.0297 37.7301 42.1797 38.0501C41.3197 38.3801 40.1997 38.6301 38.8397 38.8201C39.0897 39.0401 39.6797 39.4901 40.6097 40.2001L44.3997 43.1801C45.4897 43.9901 46.1297 44.4501 46.3097 44.5601C46.3997 44.5901 46.4897 44.6201 46.5897 44.6401C46.7397 44.6701 47.0698 44.6901 47.5798 44.6901V45.2501C46.8098 45.1901 46.1297 45.1701 45.5597 45.1701C44.9797 45.1701 44.2297 45.1901 43.3597 45.2501C42.7097 44.8101 41.6197 43.9301 40.0897 42.6301C39.2397 41.9101 38.4897 41.3201 37.8397 40.8401C36.7897 40.0301 35.7898 39.3101 34.8498 38.6701L34.9898 38.3901C35.4998 38.4201 35.8897 38.4301 36.1697 38.4301C37.9897 38.4301 39.3597 38.1801 40.3097 37.6701C41.2297 37.1501 41.7097 36.4701 41.7097 35.6401C41.7097 34.9101 41.2998 34.3201 40.4898 33.8801C39.6798 33.4501 38.4698 33.2301 36.8298 33.2301C35.7898 33.2301 34.7798 33.3301 33.7998 33.5301C33.7598 33.8501 33.7297 34.1501 33.6997 34.4301C33.6897 34.5201 33.6598 35.3801 33.5998 37.0201V40.9801C33.5998 41.8001 33.6197 42.5801 33.6697 43.3501C33.6997 43.9101 33.7698 44.2501 33.8798 44.3601C33.9798 44.4601 34.1798 44.5401 34.4398 44.6001C34.6898 44.6501 35.4097 44.6901 36.6097 44.7001V45.2601C35.1797 45.2001 33.8597 45.1801 32.6497 45.1801C31.6797 45.1801 30.0597 45.2001 27.7497 45.2601V44.7101C28.9497 44.7001 29.6697 44.6601 29.9197 44.6101C30.1797 44.5501 30.3697 44.4901 30.4597 44.4001C30.5797 44.2801 30.6597 43.9701 30.6997 43.5201C30.7097 43.4001 30.7297 42.5601 30.7697 40.9901V36.8501C30.7697 36.0401 30.7397 35.2501 30.6997 34.4701C30.6597 33.9001 30.5897 33.5701 30.4697 33.4601C30.3597 33.3501 30.1797 33.2701 29.9197 33.2201C29.6597 33.1701 28.9297 33.1401 27.7397 33.1301Z" fill="black"/>
<path d="M58.7199 35.5601C59.3299 34.7601 60.2399 34.1401 61.4499 33.7201C62.6499 33.3001 64.0499 33.0901 65.6599 33.0901C66.7699 33.0901 67.7999 33.1801 68.7599 33.3901C69.7099 33.6001 70.4899 33.8301 71.0899 34.1301C71.6799 34.4301 72.2099 34.7701 72.6399 35.1601C73.0699 35.5601 73.4199 35.9901 73.6899 36.4901C74.0899 37.2801 74.3199 38.1501 74.3199 39.1001C74.3199 40.2001 74.0199 41.1701 73.4299 42.0201C72.8399 42.8601 71.9599 43.5201 70.7599 43.9901C69.5599 44.4601 68.1499 44.7001 66.5199 44.7001C65.3599 44.7001 64.2899 44.5801 63.3399 44.3401C62.3699 44.1201 61.4999 43.7601 60.7199 43.2701C59.9499 42.7901 59.3099 42.1901 58.8199 41.4801C58.5399 41.0601 58.2899 40.5601 58.0999 39.9701C57.9199 39.3901 57.8199 38.8201 57.8199 38.2601C57.8099 37.2701 58.1099 36.3501 58.7199 35.5601ZM55.4099 41.5501C55.8999 42.4101 56.6199 43.1201 57.5699 43.7101C58.5199 44.3101 59.6699 44.7701 61.0399 45.0701C62.4099 45.3801 63.8799 45.5201 65.4599 45.5201C68.9299 45.5201 71.8099 44.8601 74.0799 43.5301C76.3699 42.2001 77.5099 40.5201 77.5099 38.5301C77.5099 37.9001 77.3899 37.3201 77.1599 36.7601C76.9399 36.2201 76.6399 35.7501 76.2599 35.3401C75.7499 34.7901 75.0699 34.2801 74.1899 33.8401C73.3299 33.3901 72.2099 33.0201 70.8399 32.7501C69.4899 32.4701 67.9899 32.3301 66.3099 32.3301C64.5199 32.3301 62.9099 32.4901 61.5199 32.8101C60.1199 33.1301 58.8599 33.6101 57.7599 34.2501C56.6599 34.8901 55.8599 35.6001 55.3799 36.3901C54.8999 37.1801 54.6699 38.0501 54.6699 38.9901C54.6799 39.8501 54.9099 40.6901 55.4099 41.5501Z" fill="black"/>
<path d="M85.21 33.1301V32.5601C87.26 32.6201 88.86 32.6401 90.05 32.6401C90.84 32.6401 91.67 32.6301 92.57 32.6101L94.95 32.5601C95.22 32.5601 95.45 32.5601 95.68 32.5601C97.29 32.5601 98.57 32.6601 99.48 32.8701C100.4 33.0701 101.13 33.4101 101.63 33.8601C102.15 34.3201 102.41 34.8401 102.41 35.4201C102.41 35.9401 102.2 36.4601 101.77 36.9801C101.35 37.5001 100.72 37.9501 99.9 38.3101C99.08 38.6601 98.23 38.9201 97.33 39.0701C96.74 39.1801 96.04 39.2301 95.27 39.2301C94.62 39.2301 93.94 39.1901 93.18 39.0901L92.86 38.4601C93.76 38.5801 94.46 38.6401 94.98 38.6401C95.73 38.6401 96.45 38.5401 97.13 38.3101C97.81 38.0901 98.34 37.7501 98.72 37.3201C99.11 36.8901 99.28 36.4001 99.28 35.8701C99.28 35.3601 99.1 34.8901 98.73 34.4701C98.36 34.0601 97.81 33.7501 97.06 33.5301C96.31 33.3201 95.41 33.2201 94.34 33.2201C93.38 33.2201 92.36 33.3201 91.26 33.5201C91.16 34.1501 91.12 35.1301 91.12 36.5001V41.0101C91.12 41.8201 91.15 42.6101 91.19 43.3801C91.22 43.9401 91.29 44.2801 91.41 44.3801C91.52 44.4901 91.7 44.5701 91.96 44.6201C92.22 44.6701 92.93 44.7101 94.13 44.7201V45.2801C92.25 45.2201 90.88 45.2001 90 45.2001C89.65 45.2001 88.06 45.2201 85.23 45.2801V44.7101C86.42 44.7001 87.15 44.6601 87.41 44.6101C87.67 44.5501 87.85 44.4901 87.96 44.4001C88.08 44.2801 88.16 43.9701 88.18 43.5201C88.2 43.4001 88.21 42.5601 88.26 40.9901V36.8501C88.26 36.0401 88.23 35.2501 88.18 34.4701C88.16 33.9001 88.08 33.5701 87.97 33.4601C87.85 33.3501 87.67 33.2701 87.41 33.2201C87.13 33.1701 86.4 33.1401 85.21 33.1301Z" fill="black"/>
<path d="M118.91 44.7098V45.2698C116.76 45.2098 115.36 45.1898 114.68 45.1898L110.01 45.2698V44.7098C111.2 44.6998 111.92 44.6598 112.19 44.6098C112.45 44.5498 112.63 44.4898 112.73 44.3998C112.85 44.2798 112.93 43.9698 112.97 43.5198C112.97 43.3998 113 42.5598 113.04 40.9898V36.8498C113.04 36.0398 113 35.2498 112.97 34.4698C112.93 33.8998 112.86 33.5698 112.75 33.4598C112.64 33.3498 112.44 33.2698 112.2 33.2198C111.94 33.1698 111.21 33.1398 110.02 33.1398V32.5698C111.95 32.6298 113.43 32.6498 114.49 32.6498C115.48 32.6498 116.97 32.6298 118.92 32.5698V33.1398C117.73 33.1398 117 33.1798 116.74 33.2198C116.48 33.2698 116.3 33.3498 116.22 33.4398C116.1 33.5498 116.01 33.8498 115.98 34.2998C115.97 34.4198 115.95 35.2698 115.9 36.8498V40.9898C115.9 41.7998 115.93 42.5898 115.95 43.3598C115.98 43.9198 116.06 44.2598 116.17 44.3598C116.29 44.4698 116.48 44.5498 116.74 44.5998C116.97 44.6598 117.7 44.6898 118.91 44.7098Z" fill="black"/>
<path d="M126.95 45.2698V44.7098C128.02 44.7098 128.71 44.6598 129.03 44.5798C129.17 44.5298 129.28 44.4698 129.34 44.3998C129.44 44.2798 129.51 43.9698 129.55 43.4698C129.61 42.6798 129.64 41.9898 129.64 41.4298V36.8498C129.64 36.0398 129.62 35.2498 129.56 34.4698C129.53 33.8998 129.47 33.5698 129.35 33.4598C129.25 33.3498 129.06 33.2698 128.8 33.2198C128.54 33.1698 127.82 33.1398 126.63 33.1398V32.5698L130.93 32.6298L135.5 32.5898C137.69 32.5798 139.28 32.5798 140.27 32.5798C141.26 32.5798 142.22 32.6098 143.1 32.6598C142.93 32.9998 142.82 33.2998 142.77 33.5398C142.75 33.5998 142.66 34.2198 142.5 35.4098H141.55C141.56 34.7798 141.5 34.2198 141.35 33.7198C140.79 33.5598 140.17 33.4798 139.51 33.4398C138.38 33.3498 137.23 33.2998 136.1 33.2998C135.86 33.2998 135.32 33.3098 134.47 33.3398C133.63 33.3498 133.03 33.3698 132.66 33.3898C132.62 34.0598 132.59 34.6798 132.57 35.2898L132.5 38.3698C133.68 38.4198 134.78 38.4398 135.76 38.4398C136.97 38.4398 138 38.4198 138.86 38.3498C139.19 38.3298 139.39 38.2798 139.48 38.2098C139.57 38.1398 139.66 37.8898 139.72 37.4698L139.81 36.8498H140.72V37.0298L140.65 38.8698L140.72 40.9398H139.7L139.66 40.3298C139.63 39.8798 139.57 39.6098 139.46 39.5098C139.34 39.3998 139.11 39.3298 138.8 39.2798C138.21 39.2098 137.08 39.1698 135.42 39.1698C134.73 39.1698 133.76 39.1898 132.51 39.2498C132.46 39.8398 132.43 40.7298 132.43 41.9098C132.43 42.9998 132.46 43.8398 132.51 44.4098C133.97 44.4598 135.6 44.4798 137.4 44.4798C138.67 44.4798 139.58 44.4598 140.13 44.4098C140.68 44.3598 141.18 44.2898 141.66 44.1798C141.77 43.9798 141.89 43.7398 142.02 43.4198C142.24 42.8798 142.39 42.4798 142.46 42.2098H143.48C143.23 43.4098 143.1 44.4098 143.1 45.1998C142.23 45.2798 141.18 45.3098 139.94 45.3098L130.92 45.2298C130.78 45.1898 129.47 45.2098 126.95 45.2698Z" fill="black"/>
<path d="M156.99 42.6901L156.94 39.8901V36.3101L157.01 35.0001C157.03 34.2401 157.06 33.7201 157.09 33.4301C158.37 33.3201 159.63 33.2701 160.85 33.2701C163.2 33.2701 165.04 33.5001 166.38 33.9101C167.75 34.3401 168.72 34.9501 169.41 35.7501C170.07 36.5401 170.41 37.5001 170.41 38.6101C170.41 39.3801 170.23 40.1401 169.89 40.8601C169.54 41.5801 169.04 42.1801 168.41 42.6401C167.77 43.1101 167.1 43.4701 166.42 43.7001C165.73 43.9401 164.9 44.1201 163.94 44.2601C162.98 44.3901 161.86 44.4601 160.6 44.4601C159.37 44.4601 158.22 44.4101 157.1 44.3001C157.04 43.6701 157.01 43.1201 156.99 42.6901ZM155.61 45.1901C156.03 45.1901 156.92 45.2001 158.28 45.2301C159.32 45.2501 160.16 45.2701 160.78 45.2701C162.64 45.2701 164.08 45.1901 165.15 45.0101C166.2 44.8301 167.2 44.5801 168.18 44.2301C169.15 43.8901 170.05 43.4101 170.89 42.8301C171.73 42.2301 172.41 41.5401 172.9 40.7501C173.39 39.9501 173.64 39.1101 173.64 38.2101C173.64 36.9401 173.11 35.8801 172.07 34.9901C171.01 34.1201 169.74 33.5101 168.25 33.1201C166.75 32.7601 164.78 32.5601 162.31 32.5601C161.48 32.5601 160.32 32.5701 158.83 32.6101C157.33 32.6301 156.15 32.6401 155.28 32.6401C154.15 32.6401 152.86 32.6201 151.39 32.5601V33.1301C152.44 33.1301 153.13 33.1801 153.46 33.2601C153.61 33.3101 153.72 33.3601 153.79 33.4301C153.88 33.5401 153.95 33.8601 154 34.3501C154.05 35.1401 154.08 35.8301 154.08 36.4101V40.0501C154.08 40.5401 154.04 41.3801 153.97 42.6201C153.92 43.3501 153.87 43.9101 153.81 44.3101C153.43 44.4801 152.94 44.6501 152.37 44.8401V45.2601C153.91 45.2101 154.99 45.1901 155.61 45.1901Z" fill="black"/>
<path d="M192.55 34.8602L196.34 40.2902H188.68L192.55 34.8602ZM184.87 45.1902C185.7 45.1902 186.99 45.2102 188.69 45.2702V44.7102C187.75 44.7102 187.1 44.6802 186.73 44.6302C186.5 44.6002 186.32 44.5502 186.2 44.4602C186.13 44.4202 186.08 44.3502 186.08 44.2702C186.08 44.0802 186.23 43.7702 186.53 43.3502L188.16 41.0502H196.93L198.79 43.7902C198.94 44.0102 199 44.1802 199 44.3102C199 44.3802 198.96 44.4502 198.88 44.5102C198.79 44.5802 198.62 44.6202 198.38 44.6302C198.15 44.6702 197.46 44.6902 196.34 44.7102V45.2702L201.19 45.1902C201.81 45.1902 202.92 45.2102 204.48 45.2702V44.7102C203.69 44.7102 203.19 44.6802 202.95 44.6102C202.72 44.5402 202.52 44.4002 202.32 44.2002C201.99 43.8202 201.28 42.9102 200.24 41.4402L193.78 32.4702H192.81C191.45 34.3802 190.56 35.6102 190.15 36.1702L186.37 41.2402C185.23 42.6902 184.57 43.5302 184.39 43.7702C184.08 44.1502 183.83 44.3902 183.68 44.4702C183.51 44.5602 183.33 44.6402 183.14 44.6602C182.94 44.6902 182.44 44.7202 181.64 44.7202V45.2802C182.8 45.2102 183.88 45.1902 184.87 45.1902Z" fill="black"/>
<path d="M217.37 42.6901L217.32 39.8901V36.3101L217.38 35.0001C217.41 34.2401 217.44 33.7201 217.47 33.4301C218.75 33.3201 220 33.2701 221.23 33.2701C223.58 33.2701 225.41 33.5001 226.76 33.9101C228.09 34.3401 229.1 34.9501 229.77 35.7501C230.43 36.5401 230.77 37.5001 230.77 38.6101C230.77 39.3801 230.6 40.1401 230.25 40.8601C229.91 41.5801 229.41 42.1801 228.76 42.6401C228.13 43.1101 227.47 43.4701 226.77 43.7001C226.09 43.9401 225.26 44.1201 224.29 44.2601C223.33 44.3901 222.21 44.4601 220.95 44.4601C219.73 44.4601 218.56 44.4101 217.46 44.3001C217.41 43.6701 217.38 43.1201 217.37 42.6901ZM215.98 45.1901C216.41 45.1901 217.3 45.2001 218.66 45.2301C219.71 45.2501 220.54 45.2701 221.15 45.2701C223 45.2701 224.45 45.1901 225.51 45.0101C226.57 44.8301 227.58 44.5801 228.55 44.2301C229.52 43.8901 230.42 43.4101 231.27 42.8301C232.11 42.2301 232.78 41.5401 233.28 40.7501C233.77 39.9501 234.01 39.1101 234.01 38.2101C234.01 36.9401 233.49 35.8801 232.45 34.9901C231.4 34.1201 230.13 33.5101 228.63 33.1201C227.15 32.7601 225.15 32.5601 222.68 32.5601C221.85 32.5601 220.69 32.5701 219.2 32.6101C217.72 32.6301 216.53 32.6401 215.67 32.6401C214.55 32.6401 213.25 32.6201 211.78 32.5601V33.1301C212.82 33.1301 213.53 33.1801 213.85 33.2601C214 33.3101 214.1 33.3601 214.17 33.4301C214.26 33.5401 214.35 33.8601 214.38 34.3501C214.43 35.1401 214.45 35.8301 214.45 36.4101V40.0501C214.45 40.5401 214.42 41.3801 214.36 42.6201C214.31 43.3501 214.25 43.9101 214.19 44.3101C213.81 44.4801 213.33 44.6501 212.77 44.8401V45.2601C214.29 45.2101 215.36 45.1901 215.98 45.1901Z" fill="black"/>
<path d="M242.55 45.2698V44.7098C243.6 44.7098 244.29 44.6598 244.62 44.5798C244.76 44.5298 244.86 44.4698 244.92 44.3998C245.02 44.2798 245.09 43.9698 245.13 43.4698C245.19 42.6798 245.23 41.9898 245.23 41.4298V36.8498C245.23 36.0398 245.2 35.2498 245.15 34.4698C245.12 33.8998 245.04 33.5698 244.94 33.4598C244.82 33.3498 244.63 33.2698 244.37 33.2198C244.12 33.1698 243.41 33.1398 242.2 33.1398V32.5698L246.51 32.6298L251.09 32.5898C253.27 32.5798 254.86 32.5798 255.85 32.5798C256.85 32.5798 257.81 32.6098 258.68 32.6598C258.52 32.9998 258.41 33.2998 258.35 33.5398C258.34 33.5998 258.24 34.2198 258.07 35.4098H257.13C257.14 34.7798 257.08 34.2198 256.94 33.7198C256.38 33.5598 255.76 33.4798 255.1 33.4398C253.96 33.3498 252.82 33.2998 251.69 33.2998C251.45 33.2998 250.89 33.3098 250.06 33.3398C249.21 33.3498 248.61 33.3698 248.24 33.3898C248.19 34.0598 248.17 34.6798 248.15 35.2898L248.09 38.3698C249.27 38.4198 250.37 38.4398 251.36 38.4398C252.56 38.4398 253.59 38.4198 254.45 38.3498C254.77 38.3298 254.98 38.2798 255.07 38.2098C255.17 38.1398 255.24 37.8898 255.31 37.4698L255.4 36.8498H256.3V37.0298L256.22 38.8698L256.3 40.9398H255.28L255.24 40.3298C255.21 39.8798 255.15 39.6098 255.03 39.5098C254.92 39.3998 254.7 39.3298 254.37 39.2798C253.78 39.2098 252.66 39.1698 250.99 39.1698C250.31 39.1698 249.35 39.1898 248.09 39.2498C248.04 39.8398 248.01 40.7298 248.01 41.9098C248.01 42.9998 248.04 43.8398 248.09 44.4098C249.55 44.4598 251.17 44.4798 252.99 44.4798C254.26 44.4798 255.18 44.4598 255.73 44.4098C256.27 44.3598 256.78 44.2898 257.24 44.1798C257.37 43.9798 257.49 43.7398 257.61 43.4198C257.83 42.8798 257.96 42.4798 258.05 42.2098H259.08C258.81 43.4098 258.69 44.4098 258.69 45.1998C257.83 45.2798 256.77 45.3098 255.54 45.3098L246.52 45.2298C246.38 45.1898 245.05 45.2098 242.55 45.2698Z" fill="black"/>
<path d="M267.48 44.8301C267.66 44.2601 267.75 43.3401 267.77 42.0601H268.79C268.85 42.9401 268.93 43.4301 269.05 43.6001C269.16 43.7401 269.44 43.9101 269.88 44.1001C270.32 44.2701 270.91 44.4401 271.64 44.5801C272.37 44.7101 273.09 44.7801 273.79 44.7801C274.79 44.7801 275.73 44.6301 276.58 44.3601C277.42 44.0901 278.03 43.7101 278.43 43.2701C278.82 42.8201 279.01 42.3301 279.01 41.8301C279.01 41.4301 278.92 41.0901 278.73 40.8101C278.53 40.5301 278.22 40.3001 277.82 40.1201C277.42 39.9401 276.93 39.8201 276.34 39.7601C275.96 39.7301 275.23 39.6601 274.12 39.5801C273 39.5001 272.06 39.4101 271.27 39.3101C270.24 39.1201 269.47 38.8801 268.98 38.6401C268.49 38.3901 268.09 38.0501 267.77 37.6301C267.48 37.2101 267.33 36.7701 267.33 36.3001C267.33 35.5901 267.62 34.9301 268.25 34.3001C268.87 33.6901 269.79 33.2001 270.98 32.8601C272.19 32.5101 273.52 32.3501 274.94 32.3501C275.79 32.3501 276.73 32.4101 277.73 32.5401C278.74 32.6701 279.69 32.8701 280.56 33.1401C280.43 33.5101 280.35 33.8601 280.29 34.1801C280.24 34.5101 280.21 34.9901 280.18 35.6201H279.17C279.14 34.7101 279.08 34.2101 279.03 34.1201C278.77 33.9201 278.44 33.7201 277.99 33.5301C276.95 33.1901 275.87 33.0301 274.74 33.0301C273.28 33.0301 272.11 33.2801 271.23 33.8101C270.36 34.3401 269.93 35.0201 269.93 35.8401C269.93 36.3301 270.08 36.7301 270.39 37.0001C270.7 37.2901 271.24 37.5101 272.05 37.6801C272.61 37.7801 273.5 37.9001 274.74 38.0001C275.99 38.0901 277.11 38.1901 278.13 38.3201C279.06 38.4801 279.76 38.6701 280.22 38.9101C280.66 39.1401 281.03 39.4401 281.32 39.8101C281.62 40.2001 281.75 40.6201 281.75 41.1101C281.75 42.3001 280.94 43.3401 279.27 44.2201C277.62 45.0901 275.49 45.5301 272.86 45.5301C270.89 45.5201 269.09 45.3001 267.48 44.8301Z" fill="black"/>
</svg>
