<svg width="10901" height="2000" viewBox="0 0 10901 2000" fill="none" xmlns="http://www.w3.org/2000/svg">
<path d="M1904.8 343.1H2289.1V1266.3C2289.1 1351.2 2337.9 1385.5 2420.2 1385.5H3074.8C3157 1385.5 3205.9 1351.2 3205.9 1266.3V343.1H3590V1326.9C3590 1535.7 3411 1693.9 3205.8 1693.9H2289C2084.7 1693.9 1904.7 1534.8 1904.7 1326.9V343.1H1904.8Z" fill="black"/>
<path d="M82.8994 1277.2H465.299C471.599 1354.1 516.799 1385.6 592.799 1385.6H1295.4C1360.5 1385.6 1396.6 1329.7 1396.6 1269C1396.6 1187.7 1337 1145.1 1260.1 1145.1H494.2C241.9 1145.1 70.0996 1022.1 70.0996 756.3C70.0996 618 124.399 471.5 247.399 397.3C324.199 350.2 418.199 343 506.899 343H1409.2C1604.6 343 1761.8 481.3 1760 680.2V751.6H1365C1361.4 690.1 1325.2 650.4 1260.2 650.4H593.799C525.999 650.4 469 684.7 469 759.8C469 834 526.899 862 592.899 862H1409.4C1673.4 862 1810 1038.4 1810 1295.2C1810 1541.1 1696 1693.8 1441 1693.8H465.399C242.899 1693.8 85.5996 1604.4 83.7996 1367.5L82.8994 1277.2Z" fill="black"/>
<path d="M9177.9 343.1H9563.1V1266.3C9563.1 1351.2 9612 1385.5 9694.2 1385.5H10348.7C10430.9 1385.5 10479.8 1351.2 10479.8 1266.3V343.1H10864V1326.9C10864 1534.7 10684.1 1693.9 10479.8 1693.9H9562.9C9357.7 1693.9 9177.7 1535.7 9177.7 1326.9L9177.9 343.1Z" fill="black"/>
<path d="M5936.4 1427.2L5785.4 1693.8H5358.7L6092 343.1H6593.8L7327.2 1693.8H6900.3L6749.3 1427.2H5936.4ZM6342.4 684.9L6100.1 1135.2H6585.7L6342.4 684.9Z" fill="black"/>
<path d="M3736.7 343.1H4921.2C5175.2 343.1 5363.3 431.7 5363.3 716.5C5363.3 839.5 5314.6 947.1 5206.1 1007.7C5325.3 1071 5393.2 1188.4 5393.2 1324C5393.2 1514.8 5271 1693.8 5065.9 1693.8H3736.7V343.1ZM4130 1385.5H4860.6C4931.9 1385.5 4998 1346.7 4998 1268.9C4998 1192 4931.1 1152.3 4860.6 1152.3H4130V1385.5ZM4130 873H4860.6C4926.5 873 4968.2 826.9 4968.2 762.7C4968.2 698.5 4927.5 650.7 4860.6 650.7H4130V873Z" fill="black"/>
<path d="M7400.3 343.1H8687.8C8944.7 343.1 9068.6 552.9 9068.6 787.1C9068.6 938.9 9013.5 1080.9 8874.2 1153.4C9009.9 1219.3 9072.2 1323.3 9072.2 1475.3V1694H8687.8V1475.4C8687.8 1347 8616.5 1300.9 8492.5 1300.9H7796.5V1694H7400.4L7400.3 343.1ZM7796.4 993.2H8517C8610 993.2 8672.5 910 8672.5 822.3C8672.5 710.2 8589.3 650.5 8481.7 650.5H7796.4V993.2Z" fill="black"/>
</svg>
