<svg width="587" height="300" viewBox="0 0 587 300" fill="none" xmlns="http://www.w3.org/2000/svg">
<g clip-path="url(#clip0_1667_8246)">
<g clip-path="url(#clip1_1667_8246)">
<path d="M152.89 196.268C150.548 193.926 149.38 190.145 149.38 184.909V103.422H172.502V184.498L166.72 178.992H211.59V199.778H164.242C159.018 199.772 155.232 198.604 152.89 196.268Z" fill="#0D1717"/>
<path d="M228.595 198.392C225.062 196.649 222.379 194.219 220.542 191.096C218.705 187.979 217.789 184.398 217.789 180.36C217.789 173.662 220.354 168.361 225.496 164.464C230.632 160.566 238.528 158.611 249.17 158.611H263.07V169.899H251.647H249.857C247.379 169.993 245.384 170.381 243.869 171.067C242.355 171.754 241.228 172.717 240.494 173.955C239.76 175.194 239.39 176.685 239.39 178.428C239.39 180.999 240.148 183.036 241.662 184.551C243.177 186.065 245.448 186.822 248.477 186.822C252.792 186.822 255.956 185.261 257.975 182.144C259.994 179.027 261.004 174.343 261.004 168.103V152.829C261.004 148.973 260.247 146.337 258.732 144.916C257.218 143.496 255.087 142.78 252.334 142.78C249.305 142.78 246.986 143.467 245.384 144.846C243.775 146.225 242.93 148.427 242.836 151.456H221.499C221.863 143.748 224.504 137.99 229.411 134.18C234.319 130.371 241.915 128.469 252.193 128.469C262.377 128.469 270.155 130.465 275.526 134.456C280.897 138.448 283.58 144.987 283.58 154.068V184.627L285.505 199.766H264.168L260.863 183.934L263.892 186.136C262.606 190.814 260.035 194.465 256.184 197.077C252.334 199.689 247.327 200.998 241.181 200.998C236.32 201.01 232.123 200.136 228.595 198.392Z" fill="#0D1717"/>
<path d="M308.275 129.715H336.239V148.158H308.275V129.715ZM306.508 196.956C302.381 195.077 299.235 191.954 297.081 187.593C294.926 183.237 293.846 177.385 293.846 170.042V133.154V108.242H316.422V170.458C316.422 172.753 316.698 174.608 317.25 176.035C317.802 177.461 318.741 178.512 320.073 179.199C321.4 179.886 323.261 180.232 325.65 180.232H338.311V199.779H322.069C315.818 199.773 310.634 198.834 306.508 196.956Z" fill="#0D1717"/>
<path d="M349.999 117.599C347.798 115.58 346.694 112.78 346.694 109.205C346.694 105.718 347.798 103.036 349.999 101.152C352.2 99.2732 355.458 98.3281 359.772 98.3281C363.993 98.3281 367.157 99.2673 369.27 101.152C371.377 103.036 372.434 105.718 372.434 109.205C372.434 112.786 371.377 115.586 369.27 117.599C367.157 119.619 363.993 120.628 359.772 120.628C355.458 120.628 352.2 119.619 349.999 117.599ZM348.209 181.189V148.153V129.709H370.785V181.189V199.773H348.209V181.189Z" fill="#0D1717"/>
<path d="M383.511 129.715H424.63V148.158H383.511V129.715ZM394.898 196.956C390.772 195.077 387.625 191.954 385.471 187.593C383.317 183.237 382.237 177.385 382.237 170.042V133.154V108.242H404.813V170.458C404.813 172.753 405.089 174.608 405.641 176.035C406.192 177.461 407.131 178.512 408.464 179.199C409.791 179.886 411.651 180.232 414.04 180.232H426.702V199.779H410.46C404.214 199.773 399.031 198.834 394.898 196.956Z" fill="#0D1717"/>
<path d="M450.781 197.363C445.826 194.933 442.111 191.24 439.633 186.28C437.156 181.326 435.918 175.133 435.918 167.696V129.711H458.353V167.561C458.353 171.047 458.811 173.824 459.732 175.89C460.648 177.956 461.91 179.424 463.518 180.293C465.121 181.167 467.076 181.602 469.371 181.602C472.858 181.602 475.54 180.545 477.425 178.438C479.303 176.33 480.248 172.703 480.248 167.567V129.711H502.824V167.702C502.824 178.896 500.024 187.249 494.43 192.755C488.83 198.261 480.483 201.014 469.377 201.014C461.934 201.014 455.735 199.793 450.781 197.363Z" fill="#0D1717"/>
<path d="M524.508 196.528C519.917 193.546 516.478 189.302 514.182 183.796C511.887 178.29 510.743 171.915 510.743 164.665C510.743 157.416 511.887 151.088 514.182 145.67C516.478 140.258 519.917 136.037 524.508 133.008C529.098 129.98 534.598 128.465 541.026 128.465C546.896 128.465 551.921 129.821 556.1 132.527C560.274 135.233 563.467 139.295 565.668 144.707C567.869 150.125 568.973 156.776 568.973 164.665C568.973 166.961 568.926 168.798 568.838 170.171C568.38 176.869 566.954 182.516 564.571 187.101C562.181 191.691 559.018 195.154 555.073 197.49C551.128 199.833 546.444 201.001 541.032 201.001C534.598 201.007 529.092 199.516 524.508 196.528ZM558.712 177.808C561.236 174.732 562.498 170.353 562.498 164.665C562.498 158.977 561.236 154.616 558.712 151.587C556.188 148.558 552.59 147.044 547.906 147.044C543.221 147.044 539.647 148.582 537.169 151.652C534.692 154.727 533.454 159.065 533.454 164.66C533.454 168.422 534.005 171.633 535.103 174.292C536.207 176.957 537.856 178.971 540.057 180.35C542.259 181.729 544.877 182.416 547.906 182.416C552.584 182.422 556.182 180.884 558.712 177.808ZM562.493 184.623V101.352H584.928V184.899L586.994 199.762H565.657L562.493 184.623Z" fill="#0D1717"/>
<path d="M120.758 198.471C120.717 198.389 120.676 198.301 120.629 198.219L63.8129 97.7476C63.0968 96.4738 61.8171 95.8457 60.5492 95.8516C59.2754 95.8457 58.0016 96.4797 57.2855 97.7476L0.469721 198.219C0.422761 198.301 0.375801 198.389 0.340581 198.471C-1.07409 201.459 2.1955 204.552 5.15985 203.102C11.8047 199.845 27.0021 186.437 52.3781 183.978L60.5492 129.487L68.7202 183.978C94.0962 186.432 109.288 199.845 115.938 203.102C118.903 204.558 122.172 201.459 120.758 198.471Z" fill="#0D1717"/>
</g>
</g>
<defs>
<clipPath id="clip0_1667_8246">
<rect width="587" height="300" fill="white"/>
</clipPath>
<clipPath id="clip1_1667_8246">
<rect width="587" height="107.621" fill="white" transform="translate(0 95.8594)"/>
</clipPath>
</defs>
</svg>
