<svg width="531" height="300" viewBox="0 0 531 300" fill="none" xmlns="http://www.w3.org/2000/svg">
<g clip-path="url(#clip0_1667_8280)">
<path d="M62.2534 113.336H1V185.858H24.0079V158.687H60.5378V142.345H24.0079V130.087H62.2534V113.336Z" fill="#111111"/>
<path d="M138.198 113.336H115.19V157.053C115.19 165.735 110.649 168.697 103.585 168.697C101.567 168.697 99.3468 168.493 97.3286 168.187V186.062C100.558 186.777 105.503 187.185 110.044 187.185C126.896 187.185 138.198 179.831 138.198 161.956V113.336Z" fill="#111111"/>
<path d="M245.03 185.858V180.853H200.326V113.336H194.675V185.858H245.03Z" fill="#111111"/>
<path d="M344.917 185.858L312.222 113.336H306.571L273.977 185.858H280.031L289.012 165.327H329.882L338.863 185.858H344.917ZM305.966 126.819C307.58 123.04 308.488 120.792 309.296 118.545H309.497C310.406 120.792 311.314 123.04 312.929 126.819L327.662 160.424H291.232L305.966 126.819Z" fill="#111111"/>
<path d="M421.92 148.269C431.306 146.737 435.239 139.689 435.239 131.824C435.239 122.835 430.092 113.336 412.94 113.336H378.225V185.858H413.647C431.202 185.858 436.955 176.767 436.955 166.042C436.955 156.542 432.312 149.597 421.92 148.269ZM412.637 118.341C426.259 118.341 429.489 125.389 429.489 132.13C429.489 138.565 426.966 146.124 413.14 146.124H383.977V118.341H412.637ZM383.977 180.853V151.027H413.747C426.763 151.027 431.202 157.258 431.202 165.837C431.202 174.315 426.966 180.853 413.24 180.853H383.977Z" fill="#111111"/>
<path d="M501.335 188.015C520.004 188.015 530.501 180.66 530.501 167.28C530.501 154.92 523.538 149.609 509.308 147.26L493.059 144.808C481.656 142.867 477.017 138.577 477.017 130.61C477.017 121.417 484.886 116.106 498.712 116.106C513.848 116.106 521.921 121.826 523.638 134.798L529.59 133.777C527.574 118.149 516.774 111.203 498.812 111.203C481.253 111.203 470.96 118.557 470.96 131.019C470.96 141.642 477.62 147.77 490.436 149.813L506.985 152.265C519.298 154.205 524.544 157.985 524.544 167.79C524.544 177.902 516.271 183.01 501.539 183.01C484.583 183.01 475.603 175.451 473.887 162.479L467.834 163.194C469.95 179.128 480.85 188.015 501.335 188.015Z" fill="#111111"/>
</g>
<defs>
<clipPath id="clip0_1667_8280">
<rect width="530" height="76.8116" fill="white" transform="translate(1 111.203)"/>
</clipPath>
</defs>
</svg>
