<svg width="438" height="300" viewBox="0 0 438 300" fill="none" xmlns="http://www.w3.org/2000/svg">
<g clip-path="url(#clip0_1652_7160)">
<path d="M68.6697 100.242H82.621V114.938H68.6697V100.242ZM312.928 100.242H326.879V114.938H312.928V100.242Z" fill="#525254"/>
<path d="M37.8357 120.211C29.0425 120.211 23.957 124.156 21.504 126.882C21.2126 124.533 19.663 121.486 13.6177 121.486H0.489502V135.228H5.86984C6.7801 135.228 7.07326 135.519 7.07326 136.427V199.172H22.7228V175.623C22.7228 174.987 22.71 174.393 22.6938 173.861C25.1382 176.107 29.8066 179.197 37.0989 179.197C52.3946 179.197 63.0886 167.072 63.0886 149.707C63.0886 132.066 52.9348 120.211 37.8357 120.211ZM34.6562 165.566C26.2314 165.566 22.404 157.5 22.404 150.026C22.404 138.255 28.8416 134.059 34.8656 134.059C42.2527 134.059 47.2211 140.428 47.2211 149.916C47.2211 160.736 40.904 165.566 34.6562 165.566Z" fill="#231F1F"/>
<path d="M83.6902 163.095V129.848C83.6902 124.226 80.9808 121.492 75.433 121.492H61.4509V135.234H66.8373C67.7441 135.234 68.0355 135.525 68.0355 136.432V169.569C68.0355 175.27 70.6612 177.923 76.2791 177.923H90.2791V164.302H84.8911C84.0244 164.302 83.6902 163.956 83.6902 163.095Z" fill="#231F1F"/>
<path d="M124.567 120.211C115.771 120.211 110.693 124.157 108.229 126.882C107.938 124.534 106.396 121.487 100.352 121.487H87.2151V135.229H92.6014C93.5082 135.229 93.8023 135.519 93.8023 136.428V199.173H109.459V175.623C109.459 174.987 109.442 174.393 109.422 173.862C111.856 176.107 116.54 179.198 123.83 179.198C139.127 179.198 149.816 167.073 149.816 149.707C149.816 132.066 139.668 120.211 124.568 120.211M121.375 165.567C112.973 165.567 109.132 157.5 109.132 150.027C109.132 138.255 115.568 134.059 121.597 134.059C128.983 134.059 133.95 140.429 133.95 149.917C133.95 160.736 127.642 165.567 121.375 165.567ZM178.662 120.211C161.804 120.211 150.016 132.342 150.016 149.707C150.016 166.791 162.736 179.198 180.262 179.198C194.05 179.198 202.474 171.036 202.83 170.691L203.459 170.07L196.644 158.757L195.63 159.716C195.566 159.764 189.38 165.465 181.21 165.465C173.368 165.465 167.628 160.679 166.275 153.17H203.381L203.47 152.145C203.494 152.005 203.804 148.675 203.804 147.047C203.804 130.998 193.7 120.211 178.662 120.211ZM166.856 141.561C168.554 136.023 172.799 132.886 178.662 132.886C183.372 132.886 187.002 136.469 187.639 141.561H166.856ZM260.716 163.089V108.596C260.716 102.979 257.97 100.242 252.35 100.242H238.364V113.983H243.748C244.654 113.983 244.954 114.276 244.954 115.186V125.036C242.644 122.951 238.133 120.211 230.369 120.211C215.183 120.211 204.587 132.342 204.587 149.706C204.587 167.348 214.741 179.198 229.841 179.198C238.476 179.198 243.45 175.189 245.881 172.399C246.197 174.834 247.774 177.917 253.63 177.917H267.188V164.298H261.915C261.048 164.298 260.716 163.951 260.716 163.089ZM232.81 165.568C225.368 165.568 220.554 159.34 220.554 149.707C220.554 140.344 225.563 134.059 233.024 134.059C241.481 134.059 245.272 141.858 245.272 149.605C245.272 161.379 238.829 165.568 232.81 165.568ZM302.09 120.74C295.577 120.74 289.581 124.499 286.027 130.488V129.199C286.027 124.085 283.203 121.486 277.664 121.486H264.211V135.229H269.591C270.497 135.229 270.797 135.517 270.797 136.428V177.919H286.443V155.334C286.443 152.359 286.823 149.495 287.563 146.85C289.917 139.061 296.178 136.288 301.24 136.288C303.035 136.288 304.342 136.479 304.362 136.485L305.67 136.682V121.127L304.718 120.965C304.67 120.957 303.345 120.74 302.09 120.74ZM327.942 163.089V129.842C327.942 124.221 325.248 121.487 319.695 121.487H307.045V135.229H311.089C312.001 135.229 312.291 135.519 312.291 136.427V169.564C312.291 175.264 314.918 177.917 320.546 177.917H334.533V164.297H329.145C328.277 164.297 327.942 163.951 327.942 163.089Z" fill="#231F1F"/>
<path d="M386.742 135.227V121.485H378.392C373.516 121.485 370.899 123.176 369.353 127.331L359.153 155.823C358.787 156.936 358.465 158.062 358.187 159.2C357.889 158.058 357.539 156.86 357.152 155.801L346.951 127.321C345.385 123.123 342.859 121.484 337.913 121.484H329.038V135.227H331.342C332.562 135.227 332.954 135.641 333.246 136.405L349.036 177.916H366.63L382.423 136.405C382.712 135.641 383.115 135.227 384.339 135.227H386.742Z" fill="#231F1F"/>
<path d="M437.031 152.146C437.044 152.005 437.361 148.674 437.361 147.048C437.361 130.998 427.253 120.211 412.211 120.211C395.353 120.211 383.573 132.343 383.573 149.707C383.573 166.792 396.278 179.198 413.81 179.198C427.6 179.198 436.029 171.037 436.379 170.691L437.016 170.071L430.213 158.757L429.179 159.716C429.125 159.765 422.908 165.466 414.767 165.466C406.921 165.466 401.178 160.679 399.821 153.171H436.939L437.031 152.146ZM400.407 141.562C402.119 136.024 406.349 132.885 412.211 132.885C416.933 132.885 420.55 136.469 421.191 141.562H400.407Z" fill="#231F1F"/>
<path d="M302.09 120.74C297.032 120.74 292.321 123.028 288.785 126.835C291.772 126.809 294.778 126.784 297.784 126.784C300.425 126.784 303.044 126.809 305.671 126.824V121.127L304.718 120.965C304.67 120.957 303.345 120.74 302.09 120.74ZM369.354 127.333L368.71 129.144C374.761 129.56 380.764 130.019 386.742 130.533V121.487H378.394C373.517 121.487 370.898 123.177 369.354 127.333ZM37.8357 120.211C29.0425 120.211 23.9553 124.157 21.504 126.882C21.2109 124.534 19.663 121.487 13.6177 121.487H0.489502V135.229H5.86984C6.7801 135.229 7.07326 135.519 7.07326 136.427V171.393C14.3866 168.852 21.7442 166.441 29.1425 164.16C24.5442 161.529 22.404 155.615 22.404 150.025C22.404 138.256 28.8416 134.059 34.8656 134.059C42.2527 134.059 47.2211 140.429 47.2211 149.917C47.2211 153.901 46.3562 157.062 44.9596 159.477C50.8696 157.802 56.7999 156.2 62.7493 154.671C62.9442 153.069 63.0886 151.418 63.0886 149.707C63.0886 132.066 52.9348 120.211 37.8357 120.211ZM75.4331 121.487H61.451V135.229H66.8374C67.7433 135.229 68.0339 135.519 68.0339 136.428V153.353C73.2398 152.055 78.4589 150.811 83.6904 149.621V129.842C83.6904 124.223 80.9809 121.487 75.4331 121.487ZM68.6698 100.242H82.6211V114.938H68.6698V100.242ZM124.569 120.211C115.772 120.211 110.695 124.157 108.231 126.882C107.937 124.534 106.398 121.487 100.352 121.487H87.2169V135.229H92.6015C93.5083 135.229 93.804 135.519 93.804 136.427V147.388C99.1449 146.256 104.496 145.171 109.855 144.132C111.648 136.869 116.73 134.059 121.597 134.059C126.003 134.059 129.514 136.357 131.655 140.196C137.057 139.296 142.493 138.429 147.978 137.607C144.413 126.863 135.877 120.211 124.569 120.211ZM178.662 120.211C166.345 120.211 156.763 126.696 152.483 136.958C159.134 135.999 165.854 135.105 172.634 134.274C174.368 133.37 176.387 132.887 178.662 132.887C179.525 132.887 180.325 133.047 181.101 133.27C187.252 132.574 193.459 131.933 199.714 131.346C195.414 124.366 187.99 120.211 178.662 120.211ZM252.35 100.242H238.364V113.983H243.748C244.653 113.983 244.954 114.276 244.954 115.186V125.036C242.644 122.951 238.133 120.211 230.369 120.211C221.87 120.211 214.811 124.011 210.239 130.411C227.038 129.004 243.868 128.007 260.716 127.421V108.596C260.716 102.979 257.97 100.242 252.35 100.242ZM277.666 121.487H264.21V127.323C271.349 127.096 278.521 126.934 285.754 126.852C284.962 123.304 282.268 121.487 277.666 121.487ZM312.928 100.242H326.879V114.938H312.928V100.242ZM319.696 121.487H307.047V126.834C313.956 126.896 320.833 127.022 327.673 127.209C326.895 123.387 324.287 121.487 319.696 121.487ZM337.913 121.487H329.038V127.251C335.113 127.43 341.152 127.652 347.156 127.926L346.951 127.323C345.385 123.125 342.859 121.487 337.913 121.487ZM412.211 120.211C402.598 120.211 394.653 124.164 389.578 130.773C396.927 131.418 404.232 132.142 411.454 132.939C412.567 133.061 413.66 133.174 414.754 133.302C421.725 134.09 428.619 134.957 435.454 135.889C431.874 126.203 423.412 120.211 412.211 120.211Z" fill="#3B3B3C"/>
</g>
<defs>
<clipPath id="clip0_1652_7160">
<rect width="437.828" height="100" fill="white" transform="translate(0 100)"/>
</clipPath>
</defs>
</svg>
