<?xml version="1.0" encoding="utf-8"?>
<!-- Generator: Adobe Illustrator 27.7.0, SVG Export Plug-In . SVG Version: 6.00 Build 0)  -->
<svg version="1.1" xmlns="http://www.w3.org/2000/svg" xmlns:xlink="http://www.w3.org/1999/xlink" x="0px" y="0px"
	 viewBox="0 0 1000 183.34" style="enable-background:new 0 0 1000 183.34;" xml:space="preserve">
<style type="text/css">
	.st0{fill:#0D1717;}
	.st1{fill:#F6891A;}
	.st2{fill:#00DD80;}
	.st3{fill:#09CED3;}
	.st4{fill:#3B25B9;}
	.st5{fill:#FFFFFF;}
	.st6{fill:#FF327C;}
</style>
<g id="Layer_1">
	<g>
		<g>
			<path class="st0" d="M260.46,171.05c-3.99-3.99-5.98-10.43-5.98-19.35V12.88h39.39V151l-9.85-9.38h76.44v35.41h-80.66
				C270.9,177.02,264.45,175.03,260.46,171.05z"/>
			<path class="st0" d="M389.43,174.68c-6.02-2.97-10.59-7.11-13.72-12.43c-3.13-5.31-4.69-11.41-4.69-18.29
				c0-11.41,4.37-20.44,13.13-27.08c8.75-6.64,22.2-9.97,40.33-9.97h23.68v19.23H428.7h-3.05c-4.22,0.16-7.62,0.82-10.2,1.99
				c-2.58,1.17-4.5,2.81-5.75,4.92c-1.25,2.11-1.88,4.65-1.88,7.62c0,4.38,1.29,7.85,3.87,10.43c2.58,2.58,6.45,3.87,11.61,3.87
				c7.35,0,12.74-2.66,16.18-7.97c3.44-5.31,5.16-13.29,5.16-23.92V97.06c0-6.57-1.29-11.06-3.87-13.48
				c-2.58-2.42-6.21-3.64-10.9-3.64c-5.16,0-9.11,1.17-11.84,3.52c-2.74,2.35-4.18,6.1-4.34,11.26h-36.35
				c0.62-13.13,5.12-22.94,13.48-29.43c8.36-6.49,21.3-9.73,38.81-9.73c17.35,0,30.6,3.4,39.75,10.2
				c9.15,6.8,13.72,17.94,13.72,33.41v52.06l3.28,25.79h-36.35l-5.63-26.97l5.16,3.75c-2.19,7.97-6.57,14.19-13.13,18.64
				s-15.09,6.68-25.56,6.68C402.59,179.14,395.44,177.65,389.43,174.68z"/>
			<path class="st0" d="M525.17,57.67h47.64v31.42h-47.64V57.67z M522.16,172.22c-7.03-3.2-12.39-8.52-16.06-15.95
				c-3.67-7.42-5.51-17.39-5.51-29.9V63.53V21.09h38.46v105.99c0,3.91,0.47,7.07,1.41,9.5c0.94,2.43,2.54,4.22,4.81,5.39
				c2.26,1.17,5.43,1.76,9.5,1.76h21.57v33.3h-27.67C538.02,177.02,529.19,175.42,522.16,172.22z"/>
			<path class="st0" d="M596.25,37.04c-3.75-3.44-5.63-8.21-5.63-14.3c0-5.94,1.88-10.51,5.63-13.72c3.75-3.2,9.3-4.81,16.65-4.81
				c7.19,0,12.58,1.6,16.18,4.81c3.59,3.21,5.39,7.78,5.39,13.72c0,6.1-1.8,10.87-5.39,14.3c-3.6,3.44-8.99,5.16-16.18,5.16
				C605.55,42.2,600,40.48,596.25,37.04z M593.2,145.37V89.09V57.67h38.46v87.7v31.66H593.2V145.37z"/>
			<path class="st0" d="M653.34,57.67h70.05v31.42h-70.05V57.67z M672.74,172.22c-7.03-3.2-12.39-8.52-16.06-15.95
				c-3.67-7.42-5.51-17.39-5.51-29.9V63.53V21.09h38.46v105.99c0,3.91,0.47,7.07,1.41,9.5c0.94,2.43,2.54,4.22,4.81,5.39
				c2.26,1.17,5.43,1.76,9.5,1.76h21.57v33.3h-27.67C688.61,177.02,679.78,175.42,672.74,172.22z"/>
			<path class="st0" d="M767.94,172.92c-8.44-4.14-14.77-10.43-18.99-18.88c-4.22-8.44-6.33-18.99-6.33-31.66V57.67h38.22v64.48
				c0,5.94,0.78,10.67,2.35,14.19c1.56,3.52,3.71,6.02,6.45,7.5c2.73,1.49,6.06,2.23,9.97,2.23c5.94,0,10.51-1.8,13.72-5.39
				c3.2-3.59,4.81-9.77,4.81-18.52V57.67h38.46v64.72c0,19.07-4.77,33.3-14.3,42.68c-9.54,9.38-23.76,14.07-42.68,14.07
				C786.94,179.14,776.38,177.06,767.94,172.92z"/>
			<path class="st0" d="M893.54,171.51c-7.82-5.08-13.68-12.31-17.59-21.69c-3.91-9.38-5.86-20.24-5.86-32.59
				c0-12.35,1.95-23.13,5.86-32.36c3.91-9.22,9.77-16.41,17.59-21.57c7.82-5.16,17.19-7.74,28.14-7.74c10,0,18.56,2.31,25.68,6.92
				c7.11,4.61,12.55,11.53,16.3,20.75c3.75,9.23,5.63,20.56,5.63,34c0,3.91-0.08,7.04-0.23,9.38c-0.78,11.41-3.21,21.03-7.27,28.84
				c-4.07,7.82-9.46,13.72-16.18,17.7c-6.72,3.99-14.7,5.98-23.92,5.98C910.73,179.14,901.35,176.6,893.54,171.51z M951.81,139.62
				c4.3-5.24,6.45-12.7,6.45-22.39c0-9.69-2.15-17.12-6.45-22.28c-4.3-5.16-10.43-7.74-18.41-7.74s-14.07,2.62-18.29,7.85
				c-4.22,5.24-6.33,12.63-6.33,22.16c0,6.41,0.94,11.88,2.81,16.41c1.88,4.54,4.69,7.97,8.44,10.32c3.75,2.35,8.21,3.52,13.37,3.52
				C941.37,147.48,947.5,144.86,951.81,139.62z M958.25,151.23V9.37h38.22V151.7l3.52,25.32h-36.35L958.25,151.23z"/>
		</g>
		<g>
			<path class="st0" d="M205.72,174.82c-0.07-0.14-0.14-0.29-0.22-0.43L108.71,3.23c-1.22-2.17-3.4-3.24-5.56-3.23
				c-2.17-0.01-4.34,1.07-5.56,3.23L0.8,174.39c-0.08,0.14-0.16,0.29-0.22,0.43c-2.41,5.09,3.16,10.36,8.21,7.89
				c11.32-5.55,37.21-28.39,80.44-32.58l13.92-92.83l13.92,92.83c43.23,4.18,69.11,27.03,80.44,32.58
				C202.56,185.19,208.13,179.91,205.72,174.82z"/>
		</g>
	</g>
</g>
<g id="Layer_2">
</g>
</svg>
