<svg width="474" height="300" viewBox="0 0 474 300" fill="none" xmlns="http://www.w3.org/2000/svg">
<path d="M289.815 122.291V181.256H306.236V122.291H289.815ZM158.444 122.291V181.256H175.309V135.148H188.624C193.062 135.148 195.725 136.034 197.944 138.251C200.607 140.911 201.494 145.788 201.494 153.768V180.813H217.916V148.448C217.916 124.951 202.826 121.847 188.624 121.847L158.444 122.291ZM316.444 122.291V181.256H343.517C358.163 181.256 362.601 179.039 367.927 173.719C371.478 170.172 373.697 161.749 373.697 152.438C373.697 144.015 371.921 136.921 368.371 132.044C362.157 123.621 353.281 122.291 339.966 122.291H316.444ZM332.865 135.148H339.966C350.174 135.148 357.275 139.581 357.275 151.995C357.275 164.409 350.618 168.842 339.966 168.842H332.865V135.148ZM265.405 122.291L251.646 169.286L238.331 122.291H220.135L239.219 181.256H263.185L282.27 122.291H265.405ZM381.685 181.256H398.551V122.291H381.685V181.256ZM428.287 122.291L405.208 181.256H421.629L425.18 170.616H452.697L456.247 180.813H474L450.478 121.847L428.287 122.291ZM438.938 132.931L449.146 160.419H428.73L438.938 132.931Z" fill="black"/>
<path d="M50.5955 132.044V124.064C51.4831 124.064 52.3708 124.064 52.8146 124.064C75.0056 123.177 89.6517 143.128 89.6517 143.128C89.6517 143.128 74.118 164.852 57.2528 164.852C55.0337 164.852 52.8146 164.409 50.5955 163.966V139.138C59.4719 140.025 60.8034 144.015 66.1292 152.438L77.6685 142.685C77.6685 142.685 69.236 131.601 55.0337 131.601C53.7022 131.601 52.3708 132.044 50.5955 132.044ZM50.5955 105V116.97H52.8146C83.882 116.084 103.854 142.241 103.854 142.241C103.854 142.241 80.7753 170.172 56.809 170.172C54.5899 170.172 52.8146 170.172 50.5955 169.729V177.266C52.3708 177.266 54.1461 177.709 55.9214 177.709C78.5562 177.709 94.5337 166.182 110.511 152.882C113.174 155.099 123.826 159.975 126.045 162.192C110.955 174.606 75.8933 184.803 56.3652 184.803C54.5899 184.803 52.8146 184.803 51.0393 184.36V195H136.253V105H50.5955ZM50.5955 163.522V169.729C29.736 166.182 23.9663 144.458 23.9663 144.458C23.9663 144.458 33.7303 133.374 50.5955 131.601V138.695C41.7191 137.808 35.0618 145.788 35.0618 145.788C35.0618 145.788 39.0562 159.532 50.5955 163.522ZM13.7584 144.015C13.7584 144.015 26.1854 125.837 50.5955 124.064V117.414C23.5225 119.631 0 142.685 0 142.685C0 142.685 13.3146 181.256 50.5955 184.803V177.709C23.0787 174.163 13.7584 144.015 13.7584 144.015Z" fill="#76B900"/>
</svg>
