<svg width="24" height="24" viewBox="0 0 24 24" fill="none" xmlns="http://www.w3.org/2000/svg">
<path d="M20.2603 5.13274C20.089 5.04902 19.9222 4.95725 19.7606 4.85776C19.2906 4.564 18.8598 4.21786 18.4772 3.82681C17.5201 2.79136 17.1626 1.74091 17.031 1.00545H17.0363C16.9263 0.39498 16.9717 0 16.9786 0H12.6192V15.9382C12.6192 16.1522 12.6192 16.3637 12.6097 16.5727C12.6097 16.5987 12.6071 16.6227 12.6055 16.6507C12.6055 16.6622 12.6055 16.6742 12.6029 16.6862C12.6029 16.6892 12.6029 16.6922 12.6029 16.6952C12.5569 17.267 12.363 17.8194 12.0383 18.3038C11.7135 18.7882 11.2678 19.1897 10.7404 19.473C10.1908 19.7687 9.56911 19.9238 8.93673 19.923C6.90563 19.923 5.25949 18.3571 5.25949 16.4232C5.25949 14.4893 6.90563 12.9234 8.93673 12.9234C9.3212 12.923 9.70332 12.9802 10.0689 13.0928L10.0742 8.89606C8.96442 8.76052 7.83701 8.84391 6.76305 9.14096C5.6891 9.43802 4.69191 9.94229 3.83439 10.622C3.08301 11.2392 2.45132 11.9758 1.96775 12.7984C1.78373 13.0983 1.08943 14.3038 1.00535 16.2602C0.952468 17.3706 1.30517 18.5211 1.47333 18.9965V19.0065C1.57909 19.2865 1.9889 20.242 2.65677 21.0474C3.19531 21.6935 3.83158 22.2611 4.54509 22.7319V22.7219L4.55567 22.7319C6.66609 24.0878 9.006 23.9988 9.006 23.9988C9.41106 23.9833 10.7679 23.9988 12.3088 23.3083C14.0179 22.5429 14.9909 21.4024 14.9909 21.4024C15.6125 20.721 16.1067 19.9444 16.4525 19.106C16.847 18.1256 16.9786 16.9497 16.9786 16.4797V8.0241C17.0315 8.0541 17.7359 8.49458 17.7359 8.49458C17.7359 8.49458 18.7506 9.10954 20.3338 9.51002C21.4697 9.79501 23 9.85501 23 9.85501V5.76321C22.4638 5.81821 21.375 5.65822 20.2603 5.13274Z" fill="#3957ED"/>
</svg>
